<?xml version="1.0" encoding="utf-8"?>
<!-- Generator: Adobe Illustrator 22.0.1, SVG Export Plug-In . SVG Version: 6.00 Build 0)  -->
<svg version="1.1" id="Layer_1" xmlns="http://www.w3.org/2000/svg" xmlns:xlink="http://www.w3.org/1999/xlink" x="0px" y="0px"
	 viewBox="0 0 152.6 469.7" style="enable-background:new 0 0 152.6 469.7;" xml:space="preserve">
<style type="text/css">
	.st0{fill:#FFFFFF;}
</style>
<path class="st0" d="M104.1,14.8V6.7c0-3.7-3-6.7-6.7-6.7H55.3c-3.7,0-6.7,3-6.7,6.7v8.1l0.3,29v71.6l-0.1,1l-0.2,1l-0.3,1l-0.4,0.9
	l-0.5,0.9l-0.6,0.8l-0.7,0.7l-0.8,0.6l-0.9,0.5l-0.9,0.4l-2.5,0.9l-2.4,1l-2.4,1.1l-2.4,1.2l-2.4,1.5l-2.2,1.4l-2.2,1.5l-2.1,1.6
	l-2.1,1.7l-2,1.8l-1.9,1.8l-1.8,1.9l-1.8,2l-1.7,2.1l-1.6,2.1l-1.5,2.2l-1.4,2.3l-1.3,2.3L6.6,156l-1.1,2.4l-1,2.5l-0.9,2.5
	l-0.8,2.5l-0.7,2.6l-0.6,2.6L1,173.7l-0.4,2.6l-0.3,2.6l-0.2,2.6L0,184.2v203l0.1,2.6v0.4c0,1.1-0.1,2.1-0.1,3.2
	c0,42.1,34.2,76.3,76.3,76.3s76.3-34.2,76.3-76.3c0-1.1,0-2.1-0.1-3.2v-0.4l0.1-2.6v-203l-0.1-2.7l-0.2-2.6l-0.3-2.6l-0.4-2.6
	l-0.5-2.6l-0.6-2.6l-0.7-2.6l-0.8-2.5l-0.9-2.5l-1-2.5L146,156l-1.2-2.4l-1.3-2.3l-1.4-2.3l-1.5-2.2l-1.6-2.1l-1.7-2.1l-1.8-2
	l-1.8-1.9l-1.9-1.8l-2-1.8l-2.1-1.7l-2.1-1.6l-2.2-1.5l-2.2-1.4l-2.3-1.3l-2.4-1.2l-2.4-1.1l-2.4-1l-2.5-0.9l-0.9-0.4l-0.9-0.5
	l-0.8-0.6l-0.7-0.7l-0.6-0.8l-0.5-0.9l-0.4-0.9l-0.3-1l-0.2-1l-0.1-1V44L104.1,14.8L104.1,14.8z"/>
</svg>
