<?xml version="1.0" encoding="utf-8"?>
<!-- Generator: Adobe Illustrator 22.0.1, SVG Export Plug-In . SVG Version: 6.00 Build 0)  -->
<svg version="1.1" id="Layer_1" xmlns="http://www.w3.org/2000/svg" xmlns:xlink="http://www.w3.org/1999/xlink" x="0px" y="0px"
	 viewBox="0 0 142 427.6" style="enable-background:new 0 0 142 427.6;" xml:space="preserve">
<style type="text/css">
	.st0{fill:#FFFFFF;}
</style>
<path class="st0" d="M142,356.5c0-1-0.1-2-0.1-3V353l0.1-2.5V161.3l-0.1-2.5l-0.2-2.5l-0.3-2.5l-0.4-2.5l-0.4-2.4l-0.5-2.4l-0.6-2.4
	l-0.8-2.4l-0.9-2.3l-1-2.3l-1-2.3l-1.1-2.2l-1.2-2.1l-1.3-2.1l-1.4-2l-1.5-2l-1.6-1.9l-1.6-1.9l-1.7-1.8l-1.8-1.7l-1.8-1.7L119,114
	l-2-1.5l-2-1.4l-2.1-1.3l-2.1-1.2l-2.2-1.1l-2.3-1.1l-2.3-1l-2.3-0.9l-0.9-0.4l-0.8-0.5l-0.8-0.6l-0.7-0.6l-0.6-0.8l-0.5-0.8
	l-0.4-0.9L96.9,99l-0.2-0.9l-0.1-1V30.5l0.2-27c0-1.9-1.6-3.4-3.5-3.4L48.5,0.1c-1.9,0-3.4,1.6-3.4,3.4l0.3,26.9v66.8l-0.1,1
	l-0.2,0.9l-0.3,0.9l-0.4,0.9l-0.5,0.8l-0.6,0.8l-0.7,0.6l-0.8,0.6l-0.8,0.5l-0.9,0.4l-2.3,0.9l-2.3,1l-2.3,1.1l-2.2,1.1l-2.1,1.2
	l-2.1,1.3l-2,1.4l-2,1.5l-1.9,1.6l-1.8,1.7l-1.8,1.7l-1.7,1.8l-1.6,1.9l-1.6,1.9l-1.5,2l-1.4,2l-1.3,2.1l-1.2,2.1l-1.1,2.2l-1,2.3
	l-1,2.3L3.2,142l-0.8,2.4l-0.6,2.4l-0.5,2.4l-0.4,2.4L0.5,154l-0.3,2.5L0.1,159L0,161.4v189.3l0.1,2.5v0.4c-0.1,1-0.1,2-0.1,3
	c-0.3,39.1,31.6,70.9,70.9,70.9S142,395.7,142,356.5z"/>
</svg>
