<?xml version="1.0" encoding="utf-8"?>
<!-- Generator: Adobe Illustrator 27.8.1, SVG Export Plug-In . SVG Version: 6.00 Build 0)  -->
<svg version="1.1" baseProfile="tiny" id="Layer_1" xmlns="http://www.w3.org/2000/svg" xmlns:xlink="http://www.w3.org/1999/xlink"
	 x="0px" y="0px" viewBox="0 0 1920 1080" overflow="visible" xml:space="preserve">
<path fill="#FFFFFF" d="M987.7,323.9v-8.1c0-3.7-3-6.7-6.7-6.7h-42.1c-3.7,0-6.7,3-6.7,6.7v8.1c0,0,0.3,29,0.3,29v71.6l-0.1,1
	l-0.2,1l-0.3,1l-0.4,0.9l-0.5,0.9l-0.6,0.8l-0.7,0.7l-0.8,0.6l-0.9,0.5l-0.9,0.4l-2.5,0.9l-2.4,1l-2.4,1.1l-2.4,1.2L915,438
	l-2.2,1.4l-2.2,1.5l-2.1,1.6l-2.1,1.7l-2,1.8l-1.9,1.8l-1.8,1.9l-1.8,2l-1.7,2.1l-1.6,2.1l-1.5,2.2l-1.4,2.3l-1.3,2.3l-1.2,2.4
	l-1.1,2.4l-1,2.5l-0.9,2.5l-0.8,2.5l-0.7,2.6l-0.6,2.6l-0.5,2.6l-0.4,2.6l-0.3,2.6l-0.2,2.6l-0.1,2.7v203l0.1,2.6l0,0.4
	c0,1.1-0.1,2.1-0.1,3.2c0,42.1,34.2,76.3,76.3,76.3c42.1,0,76.3-34.2,76.3-76.3c0-1.1,0-2.1-0.1-3.2l0-0.4l0.1-2.6v-203l-0.1-2.7
	l-0.2-2.6l-0.3-2.6l-0.4-2.6l-0.5-2.6l-0.6-2.6l-0.7-2.6l-0.8-2.5l-0.9-2.5l-1-2.5l-1.1-2.4l-1.2-2.4l-1.3-2.3l-1.4-2.3l-1.5-2.2
	l-1.6-2.1l-1.7-2.1l-1.8-2l-1.8-1.9l-1.9-1.8l-2-1.8l-2.1-1.7l-2.1-1.6l-2.2-1.5l-2.2-1.4l-2.3-1.3l-2.4-1.2l-2.4-1.1l-2.4-1
	l-2.5-0.9l-0.9-0.4l-0.9-0.5l-0.8-0.6l-0.7-0.7l-0.6-0.8l-0.5-0.9l-0.4-0.9l-0.3-1l-0.2-1l-0.1-1v-71.6L987.7,323.9L987.7,323.9z"/>
</svg>
