<svg xmlns="http://www.w3.org/2000/svg" xmlns:xlink="http://www.w3.org/1999/xlink" viewBox="0 0 698.174 839.261"><defs><clipPath id="clip-path"><path d="M50.134,133.272A131.654,131.654,0,1,0,181.787,1.622,131.654,131.654,0,0,0,50.134,133.272" style="fill:none"/></clipPath><clipPath id="clip-path-2"><rect y="0.004" width="400.775" height="266.54" style="fill:none"/></clipPath><clipPath id="clip-path-3"><path d="M404.939,204.425A75.828,75.828,0,1,0,480.767,128.6a75.828,75.828,0,0,0-75.828,75.827" style="fill:none"/></clipPath><linearGradient id="linear-gradient" x1="-1540.471" y1="1954.178" x2="-1539.471" y2="1954.178" gradientTransform="matrix(205.182, 0, 0, -205.182, 316468.727, 401167.024)" gradientUnits="userSpaceOnUse"><stop offset="0" stop-color="#b7dcdf"/><stop offset="1" stop-color="#617b80"/></linearGradient></defs><title>Asset 2</title><g style="isolation:isolate"><g id="Layer_2" data-name="Layer 2"><g id="Layer_1-2" data-name="Layer 1"><g style="clip-path:url(#clip-path)"><g style="opacity:0.3000029921531677;mix-blend-mode:multiply"><g style="clip-path:url(#clip-path-2)"><rect width="400.775" height="266.547"/></g></g></g><circle cx="267.991" cy="706.858" r="131.654" transform="translate(-7.198 2.771) rotate(-0.585)" style="fill:none;stroke:#283337;stroke-miterlimit:10;stroke-width:1.5px"/><circle cx="354.015" cy="396.58" r="105.401" style="fill:none;stroke:#283337;stroke-miterlimit:10;stroke-width:1.5px"/><circle cx="606.676" cy="392.589" r="90.749" transform="translate(201.795 991.131) rotate(-88.831)" style="fill:none;stroke:#283337;stroke-miterlimit:10;stroke-width:1.5px"/><g style="clip-path:url(#clip-path-3)"><rect x="376.05" y="99.708" width="209.434" height="209.432" transform="translate(-34.46 290.84) rotate(-32.557)" style="fill:url(#linear-gradient)"/></g><path d="M304.829,379.041a.212.212,0,0,1,.154-.062h2.106a.213.213,0,0,1,.216.217v12.168a.208.208,0,0,1-.063.152.2.2,0,0,1-.153.062h-2.106a.2.2,0,0,1-.154-.062.207.207,0,0,1-.062-.152V386.4a.079.079,0,0,0-.09-.09H300.7a.079.079,0,0,0-.09.09v4.969a.212.212,0,0,1-.063.152.207.207,0,0,1-.153.062h-2.107a.213.213,0,0,1-.215-.214V379.2a.213.213,0,0,1,.215-.217h2.107a.215.215,0,0,1,.153.062.217.217,0,0,1,.063.155v4.841a.079.079,0,0,0,.09.09h3.978a.079.079,0,0,0,.09-.09V379.2A.212.212,0,0,1,304.829,379.041Z" style="fill:#b7dcdf"/><path d="M311.238,391.516a.208.208,0,0,1-.063-.152V379.2a.213.213,0,0,1,.063-.155.21.21,0,0,1,.153-.062h2.1a.213.213,0,0,1,.217.217v12.168a.208.208,0,0,1-.063.152.2.2,0,0,1-.154.062h-2.1A.2.2,0,0,1,311.238,391.516Z" style="fill:#b7dcdf"/><path d="M325.989,378.979h2.105a.213.213,0,0,1,.216.217v12.168a.208.208,0,0,1-.063.152.2.2,0,0,1-.153.062h-2.105a.2.2,0,0,1-.154-.062.208.208,0,0,1-.063-.152v-7.94c0-.047-.012-.07-.035-.07s-.049.017-.073.052l-1.908,2.989a.283.283,0,0,1-.252.144h-1.062a.284.284,0,0,1-.252-.144l-1.907-2.989c-.025-.035-.049-.05-.073-.044s-.036.033-.036.082v7.92a.211.211,0,0,1-.062.152.207.207,0,0,1-.154.062h-2.106a.2.2,0,0,1-.152-.062.2.2,0,0,1-.064-.152V379.2a.215.215,0,0,1,.216-.217h2.106a.284.284,0,0,1,.252.144l2.7,4.194c.037.072.072.072.108,0l2.719-4.194A.282.282,0,0,1,325.989,378.979Z" style="fill:#b7dcdf"/><path d="M340.082,391.4l-.54-1.764c-.024-.049-.054-.072-.09-.072h-4.428c-.036,0-.066.023-.09.072l-.522,1.764a.224.224,0,0,1-.234.179h-2.286a.173.173,0,0,1-.18-.252l3.888-12.168a.226.226,0,0,1,.234-.179h2.826a.226.226,0,0,1,.234.179l3.889,12.168a.226.226,0,0,1,.017.09c0,.11-.066.162-.2.162h-2.286A.224.224,0,0,1,340.082,391.4Zm-4.428-3.8h3.168c.072,0,.1-.037.072-.11l-1.62-5.345c-.012-.047-.03-.069-.054-.063a.086.086,0,0,0-.054.063l-1.584,5.345C335.57,387.565,335.594,387.6,335.654,387.6Z" style="fill:#b7dcdf"/><path d="M346.265,391.516a.208.208,0,0,1-.063-.152V379.2a.213.213,0,0,1,.216-.217h2.106a.211.211,0,0,1,.153.062.214.214,0,0,1,.064.155v10.115a.079.079,0,0,0,.089.09h5.886a.213.213,0,0,1,.216.216v1.747a.208.208,0,0,1-.063.152.205.205,0,0,1-.153.062h-8.3A.2.2,0,0,1,346.265,391.516Z" style="fill:#b7dcdf"/><path d="M366.4,391.4l-.54-1.764c-.025-.049-.054-.072-.09-.072H361.34c-.036,0-.066.023-.09.072l-.522,1.764a.224.224,0,0,1-.234.179h-2.286a.173.173,0,0,1-.18-.252l3.888-12.168a.226.226,0,0,1,.234-.179h2.826a.226.226,0,0,1,.234.179l3.888,12.168a.209.209,0,0,1,.018.09c0,.11-.066.162-.2.162h-2.286A.224.224,0,0,1,366.4,391.4Zm-4.428-3.8h3.168c.072,0,.1-.037.072-.11l-1.62-5.345c-.013-.047-.03-.069-.054-.063a.084.084,0,0,0-.054.063l-1.584,5.345C361.886,387.565,361.91,387.6,361.97,387.6Z" style="fill:#b7dcdf"/><path d="M374.165,391.5a.207.207,0,0,1-.063-.154v-4.553a.256.256,0,0,0-.018-.109l-3.708-7.451a.271.271,0,0,1-.036-.108c0-.095.066-.144.2-.144h2.268a.255.255,0,0,1,.252.162l2.25,4.787q.054.108.108,0l2.25-4.787a.255.255,0,0,1,.252-.162h2.3a.2.2,0,0,1,.171.062.2.2,0,0,1-.009.19l-3.744,7.451a.256.256,0,0,0-.018.109v4.553a.215.215,0,0,1-.216.217h-2.088A.211.211,0,0,1,374.165,391.5Z" style="fill:#b7dcdf"/><path d="M390,391.4l-.54-1.764c-.024-.049-.053-.072-.089-.072h-4.428c-.036,0-.067.023-.09.072l-.522,1.764a.226.226,0,0,1-.234.179h-2.286a.2.2,0,0,1-.162-.062.2.2,0,0,1-.019-.19l3.889-12.168a.225.225,0,0,1,.233-.179h2.827a.226.226,0,0,1,.234.179l3.888,12.168a.226.226,0,0,1,.017.09c0,.11-.065.162-.2.162H390.23A.226.226,0,0,1,390,391.4Zm-4.427-3.8h3.168c.072,0,.1-.037.072-.11l-1.62-5.345c-.013-.047-.03-.069-.054-.063a.087.087,0,0,0-.055.063l-1.584,5.345C385.484,387.565,385.507,387.6,385.568,387.6Z" style="fill:#b7dcdf"/><path d="M403.414,379.041a.211.211,0,0,1,.153-.062h2.106a.213.213,0,0,1,.216.217v12.168a.208.208,0,0,1-.063.152.2.2,0,0,1-.153.062h-2.034a.258.258,0,0,1-.252-.142l-4.662-7.7c-.024-.035-.048-.051-.071-.045s-.036.033-.036.082l.036,7.6a.209.209,0,0,1-.064.152.2.2,0,0,1-.153.062h-2.106a.2.2,0,0,1-.153-.062.207.207,0,0,1-.062-.152V379.2a.212.212,0,0,1,.215-.217h2.035a.261.261,0,0,1,.252.144l4.643,7.668c.024.035.048.051.072.045s.036-.033.036-.082l-.018-7.558A.213.213,0,0,1,403.414,379.041Z" style="fill:#b7dcdf"/><path d="M319.589,416.049a.212.212,0,0,1,.154-.062h2.106a.209.209,0,0,1,.152.062.213.213,0,0,1,.064.154v12.168a.209.209,0,0,1-.064.153.2.2,0,0,1-.152.062h-2.106a.2.2,0,0,1-.154-.062.207.207,0,0,1-.062-.153V423.4a.08.08,0,0,0-.09-.09h-3.979a.08.08,0,0,0-.09.09v4.968a.211.211,0,0,1-.062.153.207.207,0,0,1-.153.062h-2.107a.2.2,0,0,1-.152-.062.205.205,0,0,1-.064-.153V416.2a.215.215,0,0,1,.216-.216h2.107a.212.212,0,0,1,.215.216v4.842a.08.08,0,0,0,.09.09h3.979a.08.08,0,0,0,.09-.09V416.2A.211.211,0,0,1,319.589,416.049Z" style="fill:#b7dcdf"/><path d="M333.783,428.406l-.54-1.763c-.025-.049-.055-.072-.09-.072h-4.429c-.036,0-.065.023-.09.072l-.521,1.763a.226.226,0,0,1-.235.18h-2.286a.173.173,0,0,1-.18-.252l3.888-12.168a.226.226,0,0,1,.235-.179h2.826a.226.226,0,0,1,.233.179l3.889,12.168a.226.226,0,0,1,.017.09c0,.109-.066.162-.2.162h-2.286A.223.223,0,0,1,333.783,428.406Zm-4.429-3.8h3.168c.072,0,.1-.037.072-.11l-1.62-5.345c-.012-.047-.029-.069-.054-.063a.082.082,0,0,0-.053.063l-1.584,5.345C329.27,424.573,329.294,424.61,329.354,424.61Z" style="fill:#b7dcdf"/><path d="M347.372,422.125a3.047,3.047,0,0,1,1.71,2.934,3.089,3.089,0,0,1-1.188,2.637,5.064,5.064,0,0,1-3.113.89h-4.663a.2.2,0,0,1-.153-.062.207.207,0,0,1-.062-.153V416.2a.212.212,0,0,1,.215-.216h4.518q4.266,0,4.267,3.457a2.666,2.666,0,0,1-1.531,2.572C347.3,422.053,347.3,422.088,347.372,422.125Zm-4.931-3.871v2.809a.079.079,0,0,0,.09.09h2.105a1.967,1.967,0,0,0,1.315-.4,1.341,1.341,0,0,0,.467-1.08,1.386,1.386,0,0,0-.467-1.1,1.938,1.938,0,0,0-1.315-.407h-2.105A.08.08,0,0,0,342.441,418.254Zm3.635,7.713a1.674,1.674,0,0,0,0-2.322,1.9,1.9,0,0,0-1.314-.422h-2.231a.079.079,0,0,0-.09.09V426.3a.079.079,0,0,0,.09.09h2.25A1.857,1.857,0,0,0,346.076,425.967Z" style="fill:#b7dcdf"/><path d="M352.745,428.524a.2.2,0,0,1-.063-.153V416.2a.208.208,0,0,1,.063-.154.211.211,0,0,1,.153-.062H355a.212.212,0,0,1,.216.216v12.168a.211.211,0,0,1-.062.153.207.207,0,0,1-.154.062H352.9A.2.2,0,0,1,352.745,428.524Z" style="fill:#b7dcdf"/><path d="M368.063,416.049a.211.211,0,0,1,.062.154v1.764a.2.2,0,0,1-.062.152.2.2,0,0,1-.153.063h-3.222a.08.08,0,0,0-.09.09v10.1a.212.212,0,0,1-.063.153.2.2,0,0,1-.153.062h-2.106a.2.2,0,0,1-.154-.062.207.207,0,0,1-.062-.153v-10.1a.08.08,0,0,0-.09-.09h-3.132a.217.217,0,0,1-.217-.215V416.2a.215.215,0,0,1,.217-.216h9.072A.211.211,0,0,1,368.063,416.049Z" style="fill:#b7dcdf"/><path d="M378.026,428.406l-.54-1.763c-.025-.049-.055-.072-.09-.072h-4.429c-.036,0-.065.023-.09.072l-.521,1.763a.224.224,0,0,1-.235.18h-2.286a.172.172,0,0,1-.179-.252l3.887-12.168a.227.227,0,0,1,.235-.179H376.6a.226.226,0,0,1,.233.179l3.889,12.168a.21.21,0,0,1,.017.09c0,.109-.066.162-.2.162h-2.286A.223.223,0,0,1,378.026,428.406Zm-4.429-3.8h3.168c.072,0,.1-.037.072-.11l-1.62-5.345c-.012-.047-.029-.069-.054-.063a.082.082,0,0,0-.053.063l-1.584,5.345C373.513,424.573,373.537,424.61,373.6,424.61Z" style="fill:#b7dcdf"/><path d="M391.678,416.049a.213.213,0,0,1,.064.154v1.764a.217.217,0,0,1-.216.215H388.3a.08.08,0,0,0-.09.09v10.1a.212.212,0,0,1-.216.215h-2.105a.2.2,0,0,1-.153-.062.209.209,0,0,1-.064-.153v-10.1a.08.08,0,0,0-.09-.09h-3.132a.2.2,0,0,1-.153-.063.2.2,0,0,1-.062-.152V416.2a.212.212,0,0,1,.215-.216h9.073A.211.211,0,0,1,391.678,416.049Z" style="fill:#b7dcdf"/><path d="M108.567,126.115l-2.25-4.986a.116.116,0,0,0-.109-.072h-1.673a.08.08,0,0,0-.09.09v4.914a.219.219,0,0,1-.216.217h-2.107a.206.206,0,0,1-.152-.065.2.2,0,0,1-.063-.152V113.893a.2.2,0,0,1,.063-.153.207.207,0,0,1,.152-.062h5.149a4.208,4.208,0,0,1,2.024.467,3.29,3.29,0,0,1,1.351,1.332,4.077,4.077,0,0,1,.476,2,3.572,3.572,0,0,1-.611,2.1,3.257,3.257,0,0,1-1.71,1.232.087.087,0,0,0-.055.127l2.449,5.094a.291.291,0,0,1,.036.107c0,.1-.067.145-.2.145h-2.214A.256.256,0,0,1,108.567,126.115Zm-4.122-10.169v3.078a.08.08,0,0,0,.09.09h2.358a1.717,1.717,0,0,0,1.232-.452,1.528,1.528,0,0,0,.478-1.17,1.557,1.557,0,0,0-.478-1.177,1.7,1.7,0,0,0-1.232-.459h-2.358A.079.079,0,0,0,104.445,115.946Z" style="fill:#b7dcdf"/><path d="M123.39,115.791a.21.21,0,0,1-.153.065h-5.905a.079.079,0,0,0-.089.09v2.789a.079.079,0,0,0,.089.089h3.87a.209.209,0,0,1,.154.065.2.2,0,0,1,.062.152v1.746a.212.212,0,0,1-.216.215h-3.87a.08.08,0,0,0-.089.092v2.916a.08.08,0,0,0,.089.09h5.905a.207.207,0,0,1,.153.062.211.211,0,0,1,.062.153v1.746a.207.207,0,0,1-.062.152.21.21,0,0,1-.153.065H114.92a.206.206,0,0,1-.152-.065.2.2,0,0,1-.064-.152V113.893a.2.2,0,0,1,.064-.153.207.207,0,0,1,.152-.062h8.317a.211.211,0,0,1,.153.062.208.208,0,0,1,.062.153v1.746A.207.207,0,0,1,123.39,115.791Z" style="fill:#b7dcdf"/><path d="M128.853,125.961a3.7,3.7,0,0,1-1.665-1.312,3.438,3.438,0,0,1-.585-1.991v-.394a.21.21,0,0,1,.062-.154.213.213,0,0,1,.154-.063h2.051a.213.213,0,0,1,.154.063.21.21,0,0,1,.062.154v.269a1.472,1.472,0,0,0,.666,1.215,2.956,2.956,0,0,0,1.8.494,2.13,2.13,0,0,0,1.422-.4,1.272,1.272,0,0,0,.468-1,1.012,1.012,0,0,0-.288-.728,2.58,2.58,0,0,0-.784-.522q-.5-.225-1.575-.621a15.538,15.538,0,0,1-2.043-.846,4.12,4.12,0,0,1-1.4-1.179,2.964,2.964,0,0,1-.567-1.844,3.241,3.241,0,0,1,.558-1.891,3.533,3.533,0,0,1,1.548-1.242,5.684,5.684,0,0,1,2.286-.432,5.845,5.845,0,0,1,2.439.487,3.99,3.99,0,0,1,1.673,1.357,3.476,3.476,0,0,1,.6,2.026v.271a.217.217,0,0,1-.216.215H133.6a.213.213,0,0,1-.216-.215v-.144a1.637,1.637,0,0,0-.621-1.288,2.54,2.54,0,0,0-1.7-.531,2.15,2.15,0,0,0-1.324.36,1.171,1.171,0,0,0-.476.99,1.081,1.081,0,0,0,.278.756,2.444,2.444,0,0,0,.828.548c.367.163.934.381,1.7.659a21.15,21.15,0,0,1,2.006.828,4,4,0,0,1,1.315,1.07,2.82,2.82,0,0,1,.585,1.846,3.224,3.224,0,0,1-1.242,2.672,5.292,5.292,0,0,1-3.367.98A6.381,6.381,0,0,1,128.853,125.961Z" style="fill:#b7dcdf"/><path d="M146.817,114.145a3.429,3.429,0,0,1,1.394,1.377,4.133,4.133,0,0,1,.495,2.043,3.848,3.848,0,0,1-.512,2,3.512,3.512,0,0,1-1.441,1.342,4.6,4.6,0,0,1-2.133.476h-2.555a.079.079,0,0,0-.091.09v4.59a.219.219,0,0,1-.216.217h-2.105a.207.207,0,0,1-.154-.065.2.2,0,0,1-.063-.152V113.875a.2.2,0,0,1,.063-.152.207.207,0,0,1,.154-.065h5.075A4.334,4.334,0,0,1,146.817,114.145Zm-1.135,4.724a1.638,1.638,0,0,0,.5-1.25,1.691,1.691,0,0,0-.5-1.277,1.838,1.838,0,0,0-1.332-.486h-2.285a.079.079,0,0,0-.091.09v3.312a.08.08,0,0,0,.091.09h2.285A1.855,1.855,0,0,0,145.682,118.869Z" style="fill:#b7dcdf"/><path d="M154.223,125.9a4.122,4.122,0,0,1-1.665-1.612,4.7,4.7,0,0,1-.594-2.384v-3.852a4.611,4.611,0,0,1,.594-2.357,4.105,4.105,0,0,1,1.665-1.594,5.727,5.727,0,0,1,4.969,0,4.109,4.109,0,0,1,1.664,1.594,4.612,4.612,0,0,1,.595,2.357V121.9a4.753,4.753,0,0,1-.595,2.394,4.073,4.073,0,0,1-1.664,1.611,5.269,5.269,0,0,1-2.493.567A5.146,5.146,0,0,1,154.223,125.9Zm4.077-2.233a2.3,2.3,0,0,0,.612-1.674v-3.959a2.354,2.354,0,0,0-.6-1.683,2.328,2.328,0,0,0-3.2,0,2.354,2.354,0,0,0-.6,1.683v3.959a2.317,2.317,0,0,0,.6,1.674,2.1,2.1,0,0,0,1.594.631A2.125,2.125,0,0,0,158.3,123.666Z" style="fill:#b7dcdf"/><path d="M172.439,113.74a.207.207,0,0,1,.153-.062H174.7a.207.207,0,0,1,.153.062.205.205,0,0,1,.063.153v12.168a.219.219,0,0,1-.216.217h-2.034a.259.259,0,0,1-.252-.145l-4.662-7.7c-.024-.037-.049-.051-.072-.045s-.036.033-.036.08l.036,7.6a.207.207,0,0,1-.062.152.21.21,0,0,1-.154.065h-2.106a.206.206,0,0,1-.153-.065.2.2,0,0,1-.063-.152V113.893a.2.2,0,0,1,.063-.153.207.207,0,0,1,.153-.062h2.034a.257.257,0,0,1,.252.143l4.644,7.668c.024.037.048.052.072.044s.036-.033.036-.08l-.018-7.56A.205.205,0,0,1,172.439,113.74Z" style="fill:#b7dcdf"/><path d="M180.656,125.961a3.706,3.706,0,0,1-1.665-1.312,3.445,3.445,0,0,1-.585-1.991v-.394a.215.215,0,0,1,.215-.217h2.053a.208.208,0,0,1,.152.063.211.211,0,0,1,.064.154v.269a1.47,1.47,0,0,0,.666,1.215,2.95,2.95,0,0,0,1.8.494,2.128,2.128,0,0,0,1.422-.4,1.268,1.268,0,0,0,.467-1,1.007,1.007,0,0,0-.287-.728,2.561,2.561,0,0,0-.783-.522q-.5-.225-1.575-.621a15.424,15.424,0,0,1-2.043-.846,4.114,4.114,0,0,1-1.4-1.179,2.964,2.964,0,0,1-.567-1.844,3.248,3.248,0,0,1,.558-1.891,3.539,3.539,0,0,1,1.548-1.242,5.687,5.687,0,0,1,2.286-.432,5.845,5.845,0,0,1,2.439.487,3.987,3.987,0,0,1,1.674,1.357,3.483,3.483,0,0,1,.6,2.026v.271a.209.209,0,0,1-.063.152.214.214,0,0,1-.153.063h-2.07a.212.212,0,0,1-.153-.063.205.205,0,0,1-.063-.152v-.144a1.637,1.637,0,0,0-.621-1.288,2.539,2.539,0,0,0-1.7-.531,2.145,2.145,0,0,0-1.322.36,1.172,1.172,0,0,0-.477.99,1.073,1.073,0,0,0,.279.756,2.434,2.434,0,0,0,.828.548c.365.163.933.381,1.7.659a21.187,21.187,0,0,1,2.007.828,4.006,4.006,0,0,1,1.314,1.07,2.814,2.814,0,0,1,.585,1.846,3.227,3.227,0,0,1-1.242,2.672,5.287,5.287,0,0,1-3.366.98A6.386,6.386,0,0,1,180.656,125.961Z" style="fill:#b7dcdf"/><path d="M191.338,126.213a.2.2,0,0,1-.062-.152V113.893a.2.2,0,0,1,.062-.153.208.208,0,0,1,.154-.062H193.6a.215.215,0,0,1,.217.215v12.168a.22.22,0,0,1-.217.217h-2.105A.207.207,0,0,1,191.338,126.213Z" style="fill:#b7dcdf"/><path d="M205.225,119.815a3.045,3.045,0,0,1,1.71,2.933,3.1,3.1,0,0,1-1.188,2.639,5.059,5.059,0,0,1-3.114.891h-4.662a.2.2,0,0,1-.152-.065.2.2,0,0,1-.064-.152V113.893a.2.2,0,0,1,.064-.153.205.205,0,0,1,.152-.062h4.519q4.264,0,4.265,3.455a2.667,2.667,0,0,1-1.53,2.574C205.154,119.742,205.154,119.78,205.225,119.815Zm-4.932-3.869v2.806a.081.081,0,0,0,.09.092h2.107a1.978,1.978,0,0,0,1.313-.4,1.339,1.339,0,0,0,.468-1.081,1.385,1.385,0,0,0-.468-1.107,1.942,1.942,0,0,0-1.313-.4h-2.107A.08.08,0,0,0,200.293,115.946Zm3.636,7.712a1.672,1.672,0,0,0,0-2.322,1.893,1.893,0,0,0-1.313-.424h-2.233a.081.081,0,0,0-.09.09v2.988a.08.08,0,0,0,.09.09h2.25A1.861,1.861,0,0,0,203.929,123.658Z" style="fill:#b7dcdf"/><path d="M210.6,126.213a.2.2,0,0,1-.063-.152V113.893a.205.205,0,0,1,.063-.153.207.207,0,0,1,.153-.062h2.106a.215.215,0,0,1,.217.215V124.01a.079.079,0,0,0,.089.09h5.886a.2.2,0,0,1,.153.062.208.208,0,0,1,.063.153v1.746a.219.219,0,0,1-.216.217h-8.3A.206.206,0,0,1,210.6,126.213Z" style="fill:#b7dcdf"/><path d="M231.334,115.791a.208.208,0,0,1-.153.065h-5.9a.079.079,0,0,0-.09.09v2.789a.079.079,0,0,0,.09.089h3.87a.208.208,0,0,1,.153.065.2.2,0,0,1,.063.152v1.746a.213.213,0,0,1-.216.215h-3.87a.081.081,0,0,0-.09.092v2.916a.08.08,0,0,0,.09.09h5.9a.205.205,0,0,1,.153.062.212.212,0,0,1,.063.153v1.746a.219.219,0,0,1-.216.217h-8.316a.206.206,0,0,1-.153-.065.2.2,0,0,1-.063-.152V113.893a.2.2,0,0,1,.063-.153.207.207,0,0,1,.153-.062h8.316a.213.213,0,0,1,.216.215v1.746A.208.208,0,0,1,231.334,115.791Z" style="fill:#b7dcdf"/><path d="M249.172,113.74a.205.205,0,0,1,.063.153v1.763a.213.213,0,0,1-.216.217H245.8a.08.08,0,0,0-.09.09v10.1a.219.219,0,0,1-.215.217h-2.107a.219.219,0,0,1-.216-.217v-10.1a.08.08,0,0,0-.09-.09h-3.131a.213.213,0,0,1-.217-.217v-1.763a.205.205,0,0,1,.063-.153.208.208,0,0,1,.154-.062h9.071A.207.207,0,0,1,249.172,113.74Z" style="fill:#b7dcdf"/><path d="M254.572,125.9a4.122,4.122,0,0,1-1.665-1.612,4.7,4.7,0,0,1-.594-2.384v-3.852a4.611,4.611,0,0,1,.594-2.357,4.105,4.105,0,0,1,1.665-1.594,5.725,5.725,0,0,1,4.968,0,4.1,4.1,0,0,1,1.664,1.594,4.6,4.6,0,0,1,.595,2.357V121.9a4.743,4.743,0,0,1-.595,2.394,4.067,4.067,0,0,1-1.664,1.611,5.266,5.266,0,0,1-2.493.567A5.142,5.142,0,0,1,254.572,125.9Zm4.077-2.233a2.3,2.3,0,0,0,.612-1.674v-3.959a2.354,2.354,0,0,0-.6-1.683,2.329,2.329,0,0,0-3.205,0,2.357,2.357,0,0,0-.6,1.683v3.959a2.32,2.32,0,0,0,.6,1.674,2.1,2.1,0,0,0,1.594.631A2.128,2.128,0,0,0,258.649,123.666Z" style="fill:#b7dcdf"/><path d="M128.834,162.879a3.927,3.927,0,0,1-1.637-1.539,4.447,4.447,0,0,1-.577-2.285V154.9a4.449,4.449,0,0,1,.577-2.285,3.887,3.887,0,0,1,1.637-1.532,5.386,5.386,0,0,1,2.466-.539,5.512,5.512,0,0,1,2.44.512,3.872,3.872,0,0,1,1.637,1.459,4.072,4.072,0,0,1,.585,2.187c0,.108-.071.174-.216.2l-2.105.127H133.6c-.12,0-.181-.067-.181-.2a2.053,2.053,0,0,0-.585-1.529,2.092,2.092,0,0,0-1.539-.576,2.12,2.12,0,0,0-1.557.576,2.056,2.056,0,0,0-.584,1.529v4.338a2.027,2.027,0,0,0,.584,1.512,2.12,2.12,0,0,0,1.557.576,2.092,2.092,0,0,0,1.539-.576,2.024,2.024,0,0,0,.585-1.512c0-.131.072-.2.217-.2l2.105.09a.226.226,0,0,1,.154.055.159.159,0,0,1,.062.125,4.121,4.121,0,0,1-.585,2.2,3.9,3.9,0,0,1-1.637,1.474,5.432,5.432,0,0,1-2.44.522A5.288,5.288,0,0,1,128.834,162.879Z" style="fill:#b7dcdf"/><path d="M141.623,162.906a4.12,4.12,0,0,1-1.665-1.611,4.7,4.7,0,0,1-.593-2.385v-3.851a4.617,4.617,0,0,1,.593-2.358,4.116,4.116,0,0,1,1.665-1.593,5.725,5.725,0,0,1,4.968,0,4.11,4.11,0,0,1,1.665,1.593,4.618,4.618,0,0,1,.594,2.358v3.851a4.754,4.754,0,0,1-.594,2.4,4.076,4.076,0,0,1-1.665,1.611,5.263,5.263,0,0,1-2.493.567A5.134,5.134,0,0,1,141.623,162.906Zm4.078-2.232a2.3,2.3,0,0,0,.611-1.674v-3.959a2.352,2.352,0,0,0-.6-1.683,2.11,2.11,0,0,0-1.611-.639,2.088,2.088,0,0,0-1.593.639,2.352,2.352,0,0,0-.6,1.683V159a2.317,2.317,0,0,0,.6,1.674,2.1,2.1,0,0,0,1.593.631A2.13,2.13,0,0,0,145.7,160.674Z" style="fill:#b7dcdf"/><path d="M160.892,150.686H163a.213.213,0,0,1,.216.215v12.168a.217.217,0,0,1-.216.216h-2.106a.217.217,0,0,1-.216-.216v-7.938c0-.049-.013-.072-.036-.072s-.048.017-.072.055L158.66,158.1a.28.28,0,0,1-.252.142h-1.062a.28.28,0,0,1-.252-.142l-1.908-2.988c-.025-.038-.048-.051-.072-.045s-.036.033-.036.08v7.92a.217.217,0,0,1-.216.216h-2.106a.217.217,0,0,1-.216-.216V150.9a.213.213,0,0,1,.216-.215h2.106a.282.282,0,0,1,.252.142l2.7,4.2q.054.1.108,0l2.718-4.2A.282.282,0,0,1,160.892,150.686Z" style="fill:#b7dcdf"/><path d="M175.508,150.686h2.107a.2.2,0,0,1,.152.062.205.205,0,0,1,.063.153v12.168a.217.217,0,0,1-.215.216h-2.107a.217.217,0,0,1-.216-.216v-7.938c0-.049-.012-.072-.036-.072s-.048.017-.072.055l-1.908,2.988a.28.28,0,0,1-.252.142h-1.062a.28.28,0,0,1-.252-.142l-1.908-2.988c-.024-.038-.048-.051-.072-.045s-.035.033-.035.08v7.92a.219.219,0,0,1-.217.216h-2.106a.215.215,0,0,1-.215-.216V150.9a.212.212,0,0,1,.215-.215h2.106a.282.282,0,0,1,.252.142l2.7,4.2q.054.1.108,0l2.718-4.2A.282.282,0,0,1,175.508,150.686Z" style="fill:#b7dcdf"/><path d="M183.923,162.889a3.963,3.963,0,0,1-1.638-1.522,4.321,4.321,0,0,1-.585-2.257V150.9a.213.213,0,0,1,.216-.215h2.106a.213.213,0,0,1,.216.215v8.226a2.125,2.125,0,1,0,4.248,0V150.9a.205.205,0,0,1,.063-.153.2.2,0,0,1,.152-.062h2.107a.213.213,0,0,1,.216.215v8.209a4.33,4.33,0,0,1-.585,2.257,3.963,3.963,0,0,1-1.638,1.522,5.788,5.788,0,0,1-4.878,0Z" style="fill:#b7dcdf"/><path d="M202.175,150.748a.2.2,0,0,1,.152-.062h2.107a.213.213,0,0,1,.216.215v12.168a.2.2,0,0,1-.063.152.209.209,0,0,1-.153.064H202.4a.258.258,0,0,1-.252-.144l-4.662-7.7c-.025-.037-.048-.051-.072-.045s-.036.033-.036.08l.036,7.6a.217.217,0,0,1-.216.216h-2.106a.217.217,0,0,1-.216-.216V150.9a.213.213,0,0,1,.216-.215h2.034a.26.26,0,0,1,.252.142l4.644,7.668c.024.037.048.053.072.045s.036-.033.036-.08l-.018-7.56A.205.205,0,0,1,202.175,150.748Z" style="fill:#b7dcdf"/><path d="M208.655,163.221a.2.2,0,0,1-.063-.152V150.9a.205.205,0,0,1,.063-.153.2.2,0,0,1,.153-.062h2.105a.213.213,0,0,1,.217.215v12.168a.217.217,0,0,1-.217.216h-2.105A.2.2,0,0,1,208.655,163.221Z" style="fill:#b7dcdf"/><path d="M223.972,150.748a.205.205,0,0,1,.063.153v1.763a.213.213,0,0,1-.215.217H220.6a.079.079,0,0,0-.09.09v10.1a.2.2,0,0,1-.062.152.208.208,0,0,1-.154.064h-2.1a.219.219,0,0,1-.217-.216v-10.1a.079.079,0,0,0-.09-.09h-3.132a.212.212,0,0,1-.215-.217V150.9a.212.212,0,0,1,.215-.215h9.073A.2.2,0,0,1,223.972,150.748Z" style="fill:#b7dcdf"/><path d="M230.993,163.2a.2.2,0,0,1-.064-.152V158.5a.246.246,0,0,0-.018-.107l-3.708-7.451a.278.278,0,0,1-.036-.11c0-.095.066-.142.2-.142h2.267a.255.255,0,0,1,.252.16l2.25,4.789q.054.108.108,0l2.25-4.789a.255.255,0,0,1,.252-.16h2.3a.157.157,0,0,1,.162.252l-3.744,7.451a.248.248,0,0,0-.017.107v4.555a.2.2,0,0,1-.064.152.206.206,0,0,1-.153.065h-2.088A.2.2,0,0,1,230.993,163.2Z" style="fill:#b7dcdf"/><path d="M219.186,689.6a.2.2,0,0,1,.152-.063h2.107a.206.206,0,0,1,.153.063.2.2,0,0,1,.062.152v12.168a.2.2,0,0,1-.062.153.207.207,0,0,1-.153.064h-2.107a.219.219,0,0,1-.216-.217v-4.967a.08.08,0,0,0-.089-.091h-3.978a.08.08,0,0,0-.09.091v4.967a.217.217,0,0,1-.217.217h-2.1a.217.217,0,0,1-.216-.217V689.748a.215.215,0,0,1,.216-.215h2.1a.215.215,0,0,1,.217.215v4.842a.079.079,0,0,0,.09.09h3.978a.079.079,0,0,0,.089-.09v-4.842A.205.205,0,0,1,219.186,689.6Z" style="fill:#b7dcdf"/><path d="M225.594,702.069a.2.2,0,0,1-.063-.153V689.748a.2.2,0,0,1,.063-.152.2.2,0,0,1,.152-.063h2.107a.215.215,0,0,1,.216.215v12.168a.217.217,0,0,1-.216.217h-2.107A.2.2,0,0,1,225.594,702.069Z" style="fill:#b7dcdf"/><path d="M233.991,701.719a4.046,4.046,0,0,1-1.648-1.557,4.494,4.494,0,0,1-.585-2.314v-4.031a4.548,4.548,0,0,1,.585-2.323,3.961,3.961,0,0,1,1.648-1.556,5.717,5.717,0,0,1,4.868-.01A4.114,4.114,0,0,1,240.5,691.4a3.789,3.789,0,0,1,.585,2.062v.125a.217.217,0,0,1-.215.217H238.76a.217.217,0,0,1-.216-.217v-.052a1.885,1.885,0,0,0-.576-1.4,2.331,2.331,0,0,0-3.087.037,2.17,2.17,0,0,0-.585,1.574v4.176a2.082,2.082,0,0,0,.63,1.576,2.219,2.219,0,0,0,1.6.6,2.168,2.168,0,0,0,1.493-.494,1.745,1.745,0,0,0,.558-1.377v-.811a.079.079,0,0,0-.089-.09h-2.017a.215.215,0,0,1-.216-.216v-1.655a.215.215,0,0,1,.216-.216h4.393a.213.213,0,0,1,.215.216v2.375a4.712,4.712,0,0,1-.576,2.377,3.814,3.814,0,0,1-1.629,1.539,5.347,5.347,0,0,1-2.439.53A5.194,5.194,0,0,1,233.991,701.719Z" style="fill:#b7dcdf"/><path d="M251.513,689.6a.2.2,0,0,1,.153-.063h2.107a.217.217,0,0,1,.216.215v12.168a.219.219,0,0,1-.216.217h-2.107a.215.215,0,0,1-.215-.217v-4.967a.081.081,0,0,0-.09-.091h-3.979a.081.081,0,0,0-.09.091v4.967a.215.215,0,0,1-.216.217H244.97a.219.219,0,0,1-.216-.217V689.748a.217.217,0,0,1,.216-.215h2.106a.213.213,0,0,1,.216.215v4.842a.08.08,0,0,0,.09.09h3.979a.08.08,0,0,0,.09-.09v-4.842A.2.2,0,0,1,251.513,689.6Z" style="fill:#b7dcdf"/><path d="M265.2,701.727a3.936,3.936,0,0,1-1.638-1.539,4.455,4.455,0,0,1-.575-2.285v-4.159a4.461,4.461,0,0,1,.575-2.285,3.893,3.893,0,0,1,1.638-1.531,5.383,5.383,0,0,1,2.466-.539,5.5,5.5,0,0,1,2.439.512,3.874,3.874,0,0,1,1.638,1.459,4.069,4.069,0,0,1,.585,2.187c0,.108-.072.174-.215.2l-2.107.127h-.036c-.12,0-.18-.066-.18-.2a2.051,2.051,0,0,0-.585-1.529,2.367,2.367,0,0,0-3.095,0,2.048,2.048,0,0,0-.586,1.529v4.338a2.021,2.021,0,0,0,.586,1.512,2.367,2.367,0,0,0,3.095,0,2.024,2.024,0,0,0,.585-1.512c0-.131.073-.2.216-.2l2.107.09a.221.221,0,0,1,.152.054.16.16,0,0,1,.063.125,4.125,4.125,0,0,1-.585,2.2,3.92,3.92,0,0,1-1.638,1.474,5.422,5.422,0,0,1-2.439.522A5.285,5.285,0,0,1,265.2,701.727Z" style="fill:#b7dcdf"/><path d="M282.518,701.971l-2.25-4.986a.117.117,0,0,0-.108-.073h-1.674a.08.08,0,0,0-.09.09v4.914a.217.217,0,0,1-.216.217h-2.106a.205.205,0,0,1-.153-.064.2.2,0,0,1-.063-.153V689.748a.2.2,0,0,1,.063-.152.2.2,0,0,1,.153-.063h5.148a4.217,4.217,0,0,1,2.024.467,3.29,3.29,0,0,1,1.351,1.332,4.077,4.077,0,0,1,.477,2,3.568,3.568,0,0,1-.612,2.1,3.257,3.257,0,0,1-1.71,1.232.086.086,0,0,0-.054.127l2.448,5.094a.289.289,0,0,1,.036.108c0,.095-.066.144-.2.144H282.77A.256.256,0,0,1,282.518,701.971ZM278.4,691.8v3.078a.079.079,0,0,0,.09.09h2.358a1.716,1.716,0,0,0,1.232-.451,1.531,1.531,0,0,0,.478-1.17,1.559,1.559,0,0,0-.478-1.178,1.7,1.7,0,0,0-1.232-.459h-2.358A.079.079,0,0,0,278.4,691.8Z" style="fill:#b7dcdf"/><path d="M296.738,701.953l-.54-1.765c-.025-.047-.054-.071-.09-.071H291.68c-.036,0-.066.024-.09.071l-.522,1.765a.227.227,0,0,1-.234.18h-2.286a.2.2,0,0,1-.162-.064.2.2,0,0,1-.018-.188l3.888-12.168a.224.224,0,0,1,.234-.18h2.826a.225.225,0,0,1,.234.18l3.888,12.168a.2.2,0,0,1,.017.09c0,.107-.065.162-.2.162h-2.286A.226.226,0,0,1,296.738,701.953Zm-4.428-3.8h3.168q.108,0,.072-.108l-1.62-5.346c-.013-.048-.03-.07-.054-.064a.082.082,0,0,0-.054.064l-1.584,5.346C292.226,698.119,292.249,698.155,292.31,698.155Z" style="fill:#b7dcdf"/><path d="M311.525,691.647a.209.209,0,0,1-.154.064h-5.885a.079.079,0,0,0-.09.09v2.789a.079.079,0,0,0,.09.09h3.87a.219.219,0,0,1,.216.217v1.746a.217.217,0,0,1-.216.215h-3.87a.08.08,0,0,0-.09.091v4.967a.206.206,0,0,1-.064.153.2.2,0,0,1-.153.064h-2.1a.215.215,0,0,1-.216-.217V689.748a.213.213,0,0,1,.216-.215h8.3a.208.208,0,0,1,.154.063.2.2,0,0,1,.062.152v1.746A.2.2,0,0,1,311.525,691.647Z" style="fill:#b7dcdf"/><path d="M324.016,689.6a.2.2,0,0,1,.063.152v1.764a.215.215,0,0,1-.215.217h-3.223a.079.079,0,0,0-.09.09v10.1a.2.2,0,0,1-.062.153.208.208,0,0,1-.154.064h-2.1a.206.206,0,0,1-.154-.064.209.209,0,0,1-.063-.153v-10.1a.079.079,0,0,0-.09-.09h-3.132a.212.212,0,0,1-.153-.063.21.21,0,0,1-.062-.154v-1.764a.213.213,0,0,1,.215-.215h9.073A.2.2,0,0,1,324.016,689.6Z" style="fill:#b7dcdf"/><path d="M223.551,727.01a3.426,3.426,0,0,1,1.4,1.377,4.136,4.136,0,0,1,.5,2.043,3.839,3.839,0,0,1-.513,2,3.492,3.492,0,0,1-1.44,1.34,4.6,4.6,0,0,1-2.133.476H218.8a.082.082,0,0,0-.091.092v4.59a.213.213,0,0,1-.215.215h-2.106a.2.2,0,0,1-.153-.063.207.207,0,0,1-.064-.152V726.739a.213.213,0,0,1,.064-.153.21.21,0,0,1,.153-.062h5.075A4.331,4.331,0,0,1,223.551,727.01Zm-1.135,4.725a1.645,1.645,0,0,0,.5-1.252,1.7,1.7,0,0,0-.5-1.278,1.838,1.838,0,0,0-1.332-.486H218.8a.081.081,0,0,0-.091.09v3.312a.08.08,0,0,0,.091.09h2.285A1.858,1.858,0,0,0,222.416,731.735Z" style="fill:#b7dcdf"/><path d="M235.485,738.979l-2.25-4.987a.119.119,0,0,0-.109-.07h-1.674a.079.079,0,0,0-.089.09v4.914a.21.21,0,0,1-.063.152.208.208,0,0,1-.153.063H229.04a.215.215,0,0,1-.215-.215V726.758a.208.208,0,0,1,.063-.154.212.212,0,0,1,.152-.063h5.149a4.221,4.221,0,0,1,2.024.469,3.3,3.3,0,0,1,1.351,1.332,4.077,4.077,0,0,1,.476,2,3.563,3.563,0,0,1-.611,2.1,3.261,3.261,0,0,1-1.71,1.234.085.085,0,0,0-.055.125l2.449,5.094a.3.3,0,0,1,.036.109c0,.1-.067.143-.2.143h-2.214A.254.254,0,0,1,235.485,738.979Zm-4.122-10.17v3.078a.079.079,0,0,0,.089.09h2.359a1.719,1.719,0,0,0,1.232-.449,1.534,1.534,0,0,0,.478-1.17,1.564,1.564,0,0,0-.478-1.18,1.7,1.7,0,0,0-1.232-.459h-2.359A.08.08,0,0,0,231.363,728.809Z" style="fill:#b7dcdf"/><path d="M243.683,738.764a4.152,4.152,0,0,1-1.665-1.611,4.706,4.706,0,0,1-.594-2.385v-3.852a4.621,4.621,0,0,1,.594-2.359,4.088,4.088,0,0,1,1.665-1.592,5.718,5.718,0,0,1,4.969,0,4.091,4.091,0,0,1,1.664,1.592,4.621,4.621,0,0,1,.594,2.359v3.852a4.745,4.745,0,0,1-.594,2.392,4.051,4.051,0,0,1-1.664,1.612,5.246,5.246,0,0,1-2.493.568A5.158,5.158,0,0,1,243.683,738.764Zm4.077-2.233a2.3,2.3,0,0,0,.612-1.673V730.9a2.349,2.349,0,0,0-.6-1.682,2.322,2.322,0,0,0-3.2,0,2.349,2.349,0,0,0-.6,1.682v3.961a2.317,2.317,0,0,0,.6,1.673,2.1,2.1,0,0,0,1.594.629A2.132,2.132,0,0,0,247.76,736.531Z" style="fill:#b7dcdf"/><path d="M254.681,739.078a.206.206,0,0,1-.063-.152V726.758a.215.215,0,0,1,.216-.217h4.5a5.535,5.535,0,0,1,2.367.477,3.68,3.68,0,0,1,1.575,1.342,3.6,3.6,0,0,1,.558,2v4.966a3.6,3.6,0,0,1-.558,2,3.685,3.685,0,0,1-1.575,1.341,5.5,5.5,0,0,1-2.367.477h-4.5A.2.2,0,0,1,254.681,739.078Zm2.565-2.115h2.178a1.733,1.733,0,0,0,1.341-.558,2.188,2.188,0,0,0,.531-1.5v-4.138a2.122,2.122,0,0,0-.512-1.494,1.783,1.783,0,0,0-1.377-.559h-2.161a.079.079,0,0,0-.089.09v8.064A.078.078,0,0,0,257.246,736.963Z" style="fill:#b7dcdf"/><path d="M269.657,738.744a3.956,3.956,0,0,1-1.638-1.519,4.329,4.329,0,0,1-.585-2.26v-8.207a.213.213,0,0,1,.216-.217h2.106a.215.215,0,0,1,.216.217v8.225a2.125,2.125,0,1,0,4.248,0v-8.225a.215.215,0,0,1,.216-.217h2.106a.215.215,0,0,1,.216.217v8.207a4.329,4.329,0,0,1-.585,2.26,3.962,3.962,0,0,1-1.638,1.519,5.768,5.768,0,0,1-4.878,0Z" style="fill:#b7dcdf"/><path d="M282.572,738.737a3.942,3.942,0,0,1-1.638-1.539,4.457,4.457,0,0,1-.576-2.288v-4.156a4.454,4.454,0,0,1,.576-2.287,3.876,3.876,0,0,1,1.638-1.529,5.344,5.344,0,0,1,2.465-.541,5.523,5.523,0,0,1,2.44.513,3.883,3.883,0,0,1,1.638,1.457,4.084,4.084,0,0,1,.585,2.188c0,.109-.072.174-.216.2l-2.106.125h-.036c-.12,0-.181-.066-.181-.2a2.051,2.051,0,0,0-.585-1.531,2.1,2.1,0,0,0-1.539-.577,2.125,2.125,0,0,0-1.556.577,2.051,2.051,0,0,0-.585,1.531v4.338a2.027,2.027,0,0,0,.585,1.511,2.117,2.117,0,0,0,1.556.577,2.092,2.092,0,0,0,1.539-.577,2.027,2.027,0,0,0,.585-1.511c0-.133.073-.2.217-.2l2.106.089a.235.235,0,0,1,.153.055.164.164,0,0,1,.063.127,4.121,4.121,0,0,1-.585,2.2,3.907,3.907,0,0,1-1.638,1.477,5.429,5.429,0,0,1-2.44.521A5.308,5.308,0,0,1,282.572,738.737Z" style="fill:#b7dcdf"/><path d="M302.219,726.6a.212.212,0,0,1,.063.154v1.764a.215.215,0,0,1-.216.215h-3.222a.08.08,0,0,0-.09.089v10.1a.215.215,0,0,1-.216.215h-2.106a.2.2,0,0,1-.153-.063.206.206,0,0,1-.063-.152v-10.1a.08.08,0,0,0-.09-.089h-3.132a.215.215,0,0,1-.216-.215v-1.764a.215.215,0,0,1,.216-.217h9.072A.212.212,0,0,1,302.219,726.6Z" style="fill:#b7dcdf"/><path d="M307.556,738.826a3.716,3.716,0,0,1-1.665-1.314,3.426,3.426,0,0,1-.585-1.988v-.4a.2.2,0,0,1,.062-.152.207.207,0,0,1,.154-.065h2.052a.206.206,0,0,1,.153.065.2.2,0,0,1,.062.152v.27a1.475,1.475,0,0,0,.666,1.215,2.956,2.956,0,0,0,1.8.5,2.117,2.117,0,0,0,1.422-.407,1.265,1.265,0,0,0,.468-1,1.009,1.009,0,0,0-.288-.728,2.559,2.559,0,0,0-.783-.524c-.331-.148-.855-.355-1.576-.619a15.53,15.53,0,0,1-2.043-.847,4.1,4.1,0,0,1-1.4-1.178,2.964,2.964,0,0,1-.567-1.846,3.242,3.242,0,0,1,.558-1.89,3.538,3.538,0,0,1,1.548-1.241,5.65,5.65,0,0,1,2.286-.433,5.845,5.845,0,0,1,2.439.486,3.982,3.982,0,0,1,1.674,1.359,3.478,3.478,0,0,1,.6,2.026v.269a.217.217,0,0,1-.216.217h-2.07a.217.217,0,0,1-.216-.217v-.144a1.637,1.637,0,0,0-.621-1.287,2.533,2.533,0,0,0-1.7-.532,2.151,2.151,0,0,0-1.323.362,1.17,1.17,0,0,0-.477.99,1.088,1.088,0,0,0,.278.756,2.475,2.475,0,0,0,.828.549q.55.243,1.7.656a21.3,21.3,0,0,1,2.007.828,4.031,4.031,0,0,1,1.314,1.07,2.814,2.814,0,0,1,.585,1.846,3.224,3.224,0,0,1-1.242,2.674,5.287,5.287,0,0,1-3.366.98A6.386,6.386,0,0,1,307.556,738.826Z" style="fill:#b7dcdf"/><path d="M549.4,379.114a.211.211,0,0,1-.153.064h-5.905a.08.08,0,0,0-.09.09v2.789a.08.08,0,0,0,.09.09h3.87a.215.215,0,0,1,.216.217v1.746a.212.212,0,0,1-.216.214h-3.87a.081.081,0,0,0-.09.092v2.916a.08.08,0,0,0,.09.09h5.905a.213.213,0,0,1,.215.215v1.746a.2.2,0,0,1-.062.152.208.208,0,0,1-.153.065h-8.316a.206.206,0,0,1-.153-.065.2.2,0,0,1-.064-.152V377.215a.217.217,0,0,1,.217-.215h8.316a.206.206,0,0,1,.153.063.2.2,0,0,1,.062.152v1.746A.2.2,0,0,1,549.4,379.114Z" style="fill:#b7dcdf"/><path d="M552.7,389.528c-.036-.049-.03-.108.018-.18l3.492-5.994a.09.09,0,0,0,0-.108l-3.492-5.994-.036-.109c0-.1.065-.143.2-.143h2.286a.3.3,0,0,1,.27.143l2.34,4.123q.054.108.108,0l2.34-4.123a.3.3,0,0,1,.27-.143h2.268a.213.213,0,0,1,.18.071c.036.048.03.109-.018.181l-3.492,5.994a.166.166,0,0,0,0,.108l3.492,5.994.036.107c0,.1-.066.145-.2.145h-2.268a.3.3,0,0,1-.27-.145l-2.34-4.1q-.054-.108-.108,0l-2.358,4.1a.3.3,0,0,1-.27.145h-2.268A.211.211,0,0,1,552.7,389.528Z" style="fill:#b7dcdf"/><path d="M573.722,377.467a3.428,3.428,0,0,1,1.4,1.377,4.136,4.136,0,0,1,.5,2.043,3.83,3.83,0,0,1-.514,2,3.5,3.5,0,0,1-1.439,1.342,4.6,4.6,0,0,1-2.133.476H568.97a.08.08,0,0,0-.09.09v4.59a.2.2,0,0,1-.062.152.21.21,0,0,1-.154.065h-2.106a.22.22,0,0,1-.216-.217V377.2a.206.206,0,0,1,.064-.153.2.2,0,0,1,.152-.064h5.076A4.327,4.327,0,0,1,573.722,377.467Zm-1.134,4.725a1.641,1.641,0,0,0,.5-1.25,1.693,1.693,0,0,0-.5-1.278,1.838,1.838,0,0,0-1.332-.486H568.97a.079.079,0,0,0-.09.09v3.312a.08.08,0,0,0,.09.09h2.286A1.859,1.859,0,0,0,572.588,382.192Z" style="fill:#b7dcdf"/><path d="M587.682,379.114a.211.211,0,0,1-.153.064h-5.9a.079.079,0,0,0-.089.09v2.789a.079.079,0,0,0,.089.09h3.87a.215.215,0,0,1,.216.217v1.746a.212.212,0,0,1-.216.214h-3.87a.081.081,0,0,0-.089.092v2.916a.08.08,0,0,0,.089.09h5.9a.213.213,0,0,1,.215.215v1.746a.2.2,0,0,1-.062.152.208.208,0,0,1-.153.065h-8.316a.206.206,0,0,1-.153-.065.2.2,0,0,1-.064-.152V377.215a.217.217,0,0,1,.217-.215h8.316a.206.206,0,0,1,.153.063.2.2,0,0,1,.062.152v1.746A.2.2,0,0,1,587.682,379.114Z" style="fill:#b7dcdf"/><path d="M597.9,389.438l-2.25-4.987a.116.116,0,0,0-.108-.072h-1.674a.08.08,0,0,0-.09.09v4.914a.2.2,0,0,1-.063.152.206.206,0,0,1-.153.065h-2.106a.206.206,0,0,1-.153-.065.2.2,0,0,1-.063-.152V377.215a.215.215,0,0,1,.216-.215H596.6a4.221,4.221,0,0,1,2.025.467,3.287,3.287,0,0,1,1.35,1.332,4.066,4.066,0,0,1,.477,2,3.568,3.568,0,0,1-.612,2.1,3.257,3.257,0,0,1-1.71,1.232.087.087,0,0,0-.054.127l2.448,5.094a.273.273,0,0,1,.036.107c0,.1-.067.145-.2.145h-2.214A.256.256,0,0,1,597.9,389.438Zm-4.122-10.17v3.078a.08.08,0,0,0,.09.09h2.358a1.725,1.725,0,0,0,1.233-.451,1.534,1.534,0,0,0,.477-1.17,1.562,1.562,0,0,0-.477-1.178,1.7,1.7,0,0,0-1.233-.459h-2.358A.079.079,0,0,0,593.774,379.268Z" style="fill:#b7dcdf"/><path d="M604.1,389.535a.2.2,0,0,1-.063-.152V377.215a.215.215,0,0,1,.216-.215h2.106a.215.215,0,0,1,.216.215v12.168a.2.2,0,0,1-.063.152.208.208,0,0,1-.153.065H604.25A.206.206,0,0,1,604.1,389.535Z" style="fill:#b7dcdf"/><path d="M619.2,379.114a.211.211,0,0,1-.154.064h-5.9a.079.079,0,0,0-.09.09v2.789a.08.08,0,0,0,.09.09h3.87a.217.217,0,0,1,.216.217v1.746a.2.2,0,0,1-.063.152.2.2,0,0,1-.153.062h-3.87a.081.081,0,0,0-.09.092v2.916a.08.08,0,0,0,.09.09h5.9a.213.213,0,0,1,.216.215v1.746a.2.2,0,0,1-.062.152.209.209,0,0,1-.154.065h-8.315a.207.207,0,0,1-.154-.065.2.2,0,0,1-.063-.152V377.215a.215.215,0,0,1,.217-.215h8.315a.207.207,0,0,1,.154.063.2.2,0,0,1,.062.152v1.746A.2.2,0,0,1,619.2,379.114Z" style="fill:#b7dcdf"/><path d="M630.072,377.063a.2.2,0,0,1,.152-.063h2.106a.215.215,0,0,1,.216.215v12.168a.2.2,0,0,1-.063.152.206.206,0,0,1-.153.065H630.3a.259.259,0,0,1-.252-.145l-4.662-7.7c-.024-.037-.048-.051-.072-.045s-.036.033-.036.08l.036,7.6a.2.2,0,0,1-.063.152.206.206,0,0,1-.153.065h-2.105a.207.207,0,0,1-.154-.065.2.2,0,0,1-.063-.152V377.215a.215.215,0,0,1,.217-.215h2.033a.257.257,0,0,1,.252.143l4.644,7.668c.024.037.048.053.073.045s.035-.033.035-.08l-.018-7.561A.2.2,0,0,1,630.072,377.063Z" style="fill:#b7dcdf"/><path d="M645.389,377.063a.2.2,0,0,1,.062.152v1.764a.211.211,0,0,1-.062.154.216.216,0,0,1-.153.063h-3.222a.078.078,0,0,0-.09.089v10.1a.2.2,0,0,1-.063.152.207.207,0,0,1-.154.065H639.6a.219.219,0,0,1-.216-.217v-10.1a.079.079,0,0,0-.091-.089h-3.132a.212.212,0,0,1-.152-.063.208.208,0,0,1-.063-.154v-1.764a.2.2,0,0,1,.063-.152.2.2,0,0,1,.152-.063h9.073A.208.208,0,0,1,645.389,377.063Z" style="fill:#b7dcdf"/><path d="M648.935,389.535a.2.2,0,0,1-.064-.152V377.215a.217.217,0,0,1,.217-.215h2.106a.215.215,0,0,1,.216.215v12.168a.2.2,0,0,1-.063.152.208.208,0,0,1-.153.065h-2.106A.206.206,0,0,1,648.935,389.535Z" style="fill:#b7dcdf"/><path d="M663.181,389.42l-.54-1.765c-.024-.047-.054-.071-.09-.071h-4.428c-.036,0-.066.024-.09.071l-.522,1.765a.227.227,0,0,1-.234.18h-2.286a.2.2,0,0,1-.162-.065.19.19,0,0,1-.018-.187L658.7,377.18a.225.225,0,0,1,.234-.18h2.826a.225.225,0,0,1,.234.18l3.888,12.168a.2.2,0,0,1,.018.09c0,.107-.066.162-.2.162h-2.286A.227.227,0,0,1,663.181,389.42Zm-4.428-3.8h3.168c.072,0,.1-.035.072-.107l-1.62-5.346c-.012-.049-.03-.07-.054-.064s-.042.027-.054.064l-1.584,5.346C658.669,385.586,658.693,385.621,658.753,385.621Z" style="fill:#b7dcdf"/><path d="M669.365,389.535a.2.2,0,0,1-.064-.152V377.215a.205.205,0,0,1,.064-.152.2.2,0,0,1,.153-.063h2.105a.207.207,0,0,1,.154.063.2.2,0,0,1,.062.152v10.117a.08.08,0,0,0,.09.09h5.887a.2.2,0,0,1,.152.063.207.207,0,0,1,.064.152v1.746a.22.22,0,0,1-.216.217h-8.3A.2.2,0,0,1,669.365,389.535Z" style="fill:#b7dcdf"/><path d="M579.536,426.428l-3.185-12.188-.019-.072c0-.107.067-.16.2-.16h2.232a.225.225,0,0,1,.233.18l1.71,7.326c.012.047.031.07.055.07s.042-.023.054-.07l1.656-7.309a.229.229,0,0,1,.233-.2h2.179a.236.236,0,0,1,.252.18l1.8,7.326c.012.035.029.057.054.062s.042-.015.053-.062l1.657-7.309a.23.23,0,0,1,.234-.2h2.124c.168,0,.233.078.2.232L588.3,426.428a.238.238,0,0,1-.252.18h-2.142a.225.225,0,0,1-.234-.18l-1.836-7.8c-.013-.047-.03-.072-.054-.072s-.042.025-.054.072l-1.71,7.775a.218.218,0,0,1-.235.2h-2A.239.239,0,0,1,579.536,426.428Z" style="fill:#b7dcdf"/><path d="M596.376,426.229a4.116,4.116,0,0,1-1.665-1.612,4.7,4.7,0,0,1-.594-2.384v-3.852a4.611,4.611,0,0,1,.594-2.357,4.1,4.1,0,0,1,1.665-1.594,5.734,5.734,0,0,1,4.968,0,4.105,4.105,0,0,1,1.665,1.594,4.611,4.611,0,0,1,.594,2.357v3.852a4.753,4.753,0,0,1-.594,2.394,4.072,4.072,0,0,1-1.665,1.612,5.278,5.278,0,0,1-2.493.566A5.128,5.128,0,0,1,596.376,426.229ZM600.452,424a2.292,2.292,0,0,0,.613-1.673v-3.959a2.354,2.354,0,0,0-.6-1.684,2.11,2.11,0,0,0-1.611-.639,2.088,2.088,0,0,0-1.593.639,2.354,2.354,0,0,0-.6,1.684v3.959a2.316,2.316,0,0,0,.6,1.673,2.1,2.1,0,0,0,1.593.631A2.124,2.124,0,0,0,600.452,424Z" style="fill:#b7dcdf"/><path d="M613.97,426.446l-2.25-4.987a.113.113,0,0,0-.107-.072h-1.675a.08.08,0,0,0-.09.09v4.914a.219.219,0,0,1-.216.217h-2.1a.207.207,0,0,1-.154-.065.2.2,0,0,1-.063-.152V414.223a.2.2,0,0,1,.063-.152.205.205,0,0,1,.154-.063h5.147a4.214,4.214,0,0,1,2.026.467,3.279,3.279,0,0,1,1.349,1.332,4.056,4.056,0,0,1,.478,2,3.564,3.564,0,0,1-.613,2.1,3.257,3.257,0,0,1-1.71,1.232.085.085,0,0,0-.053.127l2.447,5.094a.273.273,0,0,1,.036.107c0,.1-.066.145-.2.145h-2.214A.256.256,0,0,1,613.97,426.446Zm-4.122-10.17v3.078a.08.08,0,0,0,.09.09H612.3a1.725,1.725,0,0,0,1.234-.452,1.533,1.533,0,0,0,.476-1.169,1.563,1.563,0,0,0-.476-1.178,1.7,1.7,0,0,0-1.234-.459h-2.358A.079.079,0,0,0,609.848,416.276Z" style="fill:#b7dcdf"/><path d="M620.19,426.543a.205.205,0,0,1-.064-.152V414.223a.217.217,0,0,1,.217-.215h2.106a.206.206,0,0,1,.153.063.2.2,0,0,1,.062.152V424.34a.08.08,0,0,0,.09.09h5.887a.2.2,0,0,1,.152.062.209.209,0,0,1,.064.153v1.746a.22.22,0,0,1-.216.217h-8.3A.206.206,0,0,1,620.19,426.543Z" style="fill:#b7dcdf"/><path d="M632.3,426.543a.2.2,0,0,1-.063-.152V414.223a.215.215,0,0,1,.216-.215h4.5a5.5,5.5,0,0,1,2.367.477,3.686,3.686,0,0,1,1.575,1.339,3.607,3.607,0,0,1,.558,2v4.968a3.6,3.6,0,0,1-.558,2,3.693,3.693,0,0,1-1.575,1.342,5.535,5.535,0,0,1-2.367.477h-4.5A.206.206,0,0,1,632.3,426.543Zm2.565-2.113h2.178a1.741,1.741,0,0,0,1.341-.559,2.183,2.183,0,0,0,.531-1.494v-4.14a2.127,2.127,0,0,0-.513-1.5,1.782,1.782,0,0,0-1.377-.556h-2.16a.079.079,0,0,0-.09.09v8.064A.08.08,0,0,0,634.868,424.43Z" style="fill:#b7dcdf"/><polygon points="502.805 189.094 492.746 213.288 482.856 189.106 478.707 189.094 468.647 213.288 458.757 189.106 454.608 189.094 441.595 219.755 446.605 219.755 456.665 195.561 466.553 219.743 470.704 219.755 480.762 195.561 490.652 219.743 494.801 219.755 504.876 195.526 514.952 219.755 519.941 219.743 506.949 189.094 502.805 189.094" style="fill:#283337"/></g></g></g></svg>