<svg xmlns="http://www.w3.org/2000/svg" width="190.79" height="190.804" viewBox="0 0 190.79 190.804">
  <title>Asset 2</title>
  <g id="Layer_2" data-name="Layer 2">
    <g id="Layer_1-2" data-name="Layer 1">
      <g>
        <path d="M50.227,60.567a1.038,1.038,0,0,0,0,1.465l5.382,5.382.058.05.064.038.069.029.073.018.076.006.075-.006.073-.018.069-.029.011-.01.032-.033.054-.053.074-.075.064-.064,14.15,14.15.189.214.161.236.131.254.1.267.065.277.03.285-.005.285-.041.282-.074.275L71,84.057l-.309.673-.281.685-.252.7-.224.706-.194.716-.165.722-.135.729-.105.733-.074.737-.044.74-.013.741.017.741.047.739.078.738.109.733.138.728.168.721.2.715.228.7.256.7.284.684.312.671.34.659.367.644.393.629.418.61.443.595.468.575.49.556.513.534L114.562,144.7l.534.512.554.489.574.467.592.443.61.418.627.392.643.365.656.34.671.312.683.285.693.256.7.227.713.2.719.169.727.139.731.109.735.079.739.049.739.018.739-.013.738-.043.736-.072.086-.006.086.005.085.013.083.024.08.033.075.042.07.049.065.057.23.23.152.128.173.1.187.068.2.035h.2l.2-.035.187-.068.173-.1.152-.128.01-.009.031-.032.053-.052.074-.075.095-.094.116-.116.137-.137.157-.157.177-.177.2-.2.216-.216.234-.235.253-.252.269-.27.287-.286.3-.3.318-.318.332-.332.347-.348.36-.359.372-.372.383-.383.394-.394.4-.4.412-.412.42-.42.426-.426.432-.433.437-.437.44-.44.443-.442.445-.446.445-.444.444-.444.443-.443.441-.441.436-.437.432-.431.427-.427.419-.42.413-.412.4-.4.394-.394.383-.383.373-.372.359-.36.347-.347.333-.333.318-.318.3-.3.286-.287.27-.269.252-.253.234-.234.216-.215.2-.2.177-.176.157-.158.136-.136.116-.117.1-.1.074-.072.052-.054.031-.03.01-.011.128-.152.1-.172.068-.187.035-.2v-.2l-.035-.2-.068-.186-.1-.173-.128-.152-.23-.23-.057-.064-.05-.071-.041-.075-.033-.079-.024-.083-.013-.085-.005-.086.005-.086.073-.737.043-.737.012-.74-.018-.739-.049-.738-.079-.736-.109-.731-.139-.727-.169-.719-.2-.712-.227-.7-.256-.694-.285-.682-.312-.672-.339-.656-.367-.643-.392-.626-.418-.61-.442-.594-.467-.573-.489-.555-.512-.532L104.6,74.475l-.535-.513-.555-.49L102.939,73l-.594-.443-.612-.419-.628-.392-.644-.366-.659-.341-.672-.312-.684-.284-.695-.257-.706-.226-.714-.2-.722-.168-.728-.139-.733-.109-.737-.078-.739-.047-.741-.017-.741.014-.74.044-.737.074-.734.1-.729.134-.722.165-.715.194-.707.224-.7.252-.686.282L84.05,71l-.264.109-.275.074-.282.041-.286.005-.284-.029-.277-.065-.268-.1-.254-.13-.235-.162-.214-.189L67.261,56.409l.064-.063.074-.076.054-.052.032-.033.011-.01.029-.07.017-.073.006-.076-.006-.074-.017-.074-.029-.069-.039-.064-.049-.057L62,50.211a1.038,1.038,0,0,0-1.467,0Z" transform="translate(-2.784 -2.827)" style="fill: #283337"/>
        <path d="M41.264,173.146l5.1,3.507a.061.061,0,0,0,.1-.018l2.13-3.1a.061.061,0,0,0-.018-.1l-3.5-2.408a.155.155,0,0,1-.045-.243l.624-.907a.154.154,0,0,1,.244-.045l3.5,2.407a.061.061,0,0,0,.1-.018l2.943-4.28a.155.155,0,0,1,.243-.045l1.094.754a.154.154,0,0,1,.045.242l-6.737,9.8a.153.153,0,0,1-.242.045l-6.4-4.4a.155.155,0,0,1-.045-.243l.625-.908A.154.154,0,0,1,41.264,173.146Z" transform="translate(-2.784 -2.827)" style="fill: #b7dcdf"/>
        <path d="M38.592,156.516l-1.844,5.469a.065.065,0,0,0,.014.085l1.82,1.742a.061.061,0,0,0,.1,0l3.565-3.728a.155.155,0,0,1,.247-.006l.961.919a.155.155,0,0,1,.006.247l-8.219,8.592a.154.154,0,0,1-.246.006l-3.4-3.251A3.8,3.8,0,0,1,30.563,165a3.072,3.072,0,0,1-.043-1.736,3.674,3.674,0,0,1,.939-1.616,3.335,3.335,0,0,1,1.895-1.056,3.127,3.127,0,0,1,2.074.4c.049.016.078,0,.085-.039l1.794-5.542a.173.173,0,0,1,.047-.075c.056-.06.119-.057.185.008l1,.954A.192.192,0,0,1,38.592,156.516ZM34.958,167.7l2.707-2.83a.063.063,0,0,0,0-.1l-2.111-2.018a2.027,2.027,0,0,0-1.455-.629,1.952,1.952,0,0,0-1.412.668,1.923,1.923,0,0,0,.064,2.893l2.109,2.017A.062.062,0,0,0,34.958,167.7Z" transform="translate(-2.784 -2.827)" style="fill: #b7dcdf"/>
        <path d="M32.768,150.242a3.735,3.735,0,0,1-.27,2.1,4.357,4.357,0,0,1-1.43,1.751l-3.328,2.5a4.313,4.313,0,0,1-2.073.879,3.778,3.778,0,0,1-2.088-.336,4.712,4.712,0,0,1-1.773-1.489,4.76,4.76,0,0,1-.945-2.133,3.786,3.786,0,0,1,.263-2.1,4.3,4.3,0,0,1,1.423-1.744l3.328-2.5a4.362,4.362,0,0,1,2.08-.883,3.762,3.762,0,0,1,2.1.33,4.766,4.766,0,0,1,1.784,1.5A4.718,4.718,0,0,1,32.768,150.242ZM28.932,147.9a2.624,2.624,0,0,0-1.994.578l-3.4,2.549a2.687,2.687,0,0,0-1.134,1.768,2.59,2.59,0,0,0,.561,1.984,2.551,2.551,0,0,0,1.742,1.085,2.694,2.694,0,0,0,2.01-.6l3.4-2.549a2.638,2.638,0,0,0,1.117-1.745,2.568,2.568,0,0,0-.562-1.972A2.6,2.6,0,0,0,28.932,147.9Z" transform="translate(-2.784 -2.827)" style="fill: #b7dcdf"/>
        <path d="M11.69,138.666l-.606-1.184a.154.154,0,0,1,.076-.234l10.583-5.419a.155.155,0,0,1,.236.075l.605,1.184a.155.155,0,0,1-.076.235L14.54,137.4a.07.07,0,0,0-.046.064c0,.025.019.036.055.029l4.532.489a.235.235,0,0,1,.189.138l.3.593a.266.266,0,0,1,0,.234l-2.213,3.962c-.026.026-.028.047-.007.063a.073.073,0,0,0,.078,0l7.937-4.064a.154.154,0,0,1,.235.076l.605,1.183a.154.154,0,0,1-.075.235l-10.583,5.418a.154.154,0,0,1-.235-.075l-.606-1.184a.235.235,0,0,1,0-.234l2.683-4.811a.072.072,0,0,0-.008-.054.075.075,0,0,0-.04-.039l-5.464-.62A.27.27,0,0,1,11.69,138.666Z" transform="translate(-2.784 -2.827)" style="fill: #b7dcdf"/>
        <path d="M5.592,114.958l1.387,6.032a.061.061,0,0,0,.083.052l3.665-.843a.06.06,0,0,0,.051-.082l-.952-4.14a.156.156,0,0,1,.131-.211l1.074-.246a.153.153,0,0,1,.209.13l.953,4.141a.062.062,0,0,0,.083.053l5.062-1.164a.154.154,0,0,1,.209.132l.3,1.294a.155.155,0,0,1-.132.21L6.127,122.98a.155.155,0,0,1-.21-.131l-1.739-7.566a.154.154,0,0,1,.131-.209l1.074-.247A.155.155,0,0,1,5.592,114.958Z" transform="translate(-2.784 -2.827)" style="fill: #b7dcdf"/>
        <path d="M14.861,101.657l-1.99.787a.072.072,0,0,0-.047.075l.385,4.9a.067.067,0,0,0,.058.065l2.088.468a.2.2,0,0,1,.156.2l.111,1.413c.01.127-.051.178-.181.154l-12.17-2.887a.2.2,0,0,1-.156-.2l-.136-1.742a.205.205,0,0,1,.124-.222L14.67,99.884l.067-.024c.082-.006.127.042.135.148l.112,1.429A.2.2,0,0,1,14.861,101.657Zm-3.033,5.49a.079.079,0,0,0,.022-.062l-.315-4.01a.088.088,0,0,0-.031-.058.047.047,0,0,0-.062,0l-6.307,2.53a.053.053,0,0,0-.031.054.055.055,0,0,0,.039.05l6.626,1.514A.047.047,0,0,0,11.828,107.147Z" transform="translate(-2.784 -2.827)" style="fill: #b7dcdf"/>
        <path d="M15.426,88.221l-5.418,1.988a.069.069,0,0,0-.059.065l-.217,2.509a.062.062,0,0,0,.064.075l5.139.445a.154.154,0,0,1,.159.189l-.115,1.324a.155.155,0,0,1-.189.16L2.945,93.952a.156.156,0,0,1-.16-.19l.406-4.686a3.779,3.779,0,0,1,.594-1.8,3.061,3.061,0,0,1,1.326-1.122,3.673,3.673,0,0,1,1.849-.279,3.351,3.351,0,0,1,2.01.814,3.135,3.135,0,0,1,.987,1.866c.02.049.048.063.084.043l5.444-2.074a.206.206,0,0,1,.089-.01c.082.007.117.058.11.151l-.12,1.375A.187.187,0,0,1,15.426,88.221ZM4.431,92.4l3.9.337a.062.062,0,0,0,.076-.063l.252-2.908a2.032,2.032,0,0,0-.422-1.53,1.958,1.958,0,0,0-1.406-.683,1.926,1.926,0,0,0-2.213,1.863l-.252,2.908A.063.063,0,0,0,4.431,92.4Z" transform="translate(-2.784 -2.827)" style="fill: #b7dcdf"/>
        <path d="M6.757,70.664,7.1,69.379a.155.155,0,0,1,.214-.124l11.5,3.026a.155.155,0,0,1,.124.214l-.338,1.285a.155.155,0,0,1-.214.124L9.722,71.625a.072.072,0,0,0-.076.017c-.018.019-.01.039.02.059l3.05,3.389a.236.236,0,0,1,.048.228l-.169.643a.273.273,0,0,1-.156.177L8.146,77.611c-.037,0-.051.016-.046.042s.025.042.058.051l8.623,2.27a.153.153,0,0,1,.124.213l-.338,1.286a.155.155,0,0,1-.213.125l-11.5-3.027a.155.155,0,0,1-.124-.214l.338-1.286a.236.236,0,0,1,.156-.175L10.434,75.1a.087.087,0,0,0,.026-.1L6.806,70.894A.262.262,0,0,1,6.757,70.664Z" transform="translate(-2.784 -2.827)" style="fill: #b7dcdf"/>
        <path d="M16.918,48.28l.979.54a.155.155,0,0,1,.07.238L16.346,52a.063.063,0,0,0,.026.1l9.217,5.083a.154.154,0,0,1,.068.237l-.64,1.164a.156.156,0,0,1-.239.069l-9.216-5.084a.061.061,0,0,0-.094.027l-1.546,2.8a.154.154,0,0,1-.237.068l-.981-.54a.155.155,0,0,1-.068-.238l4.045-7.333A.154.154,0,0,1,16.918,48.28Z" transform="translate(-2.784 -2.827)" style="fill: #b7dcdf"/>
        <path d="M30.916,48.542a3.758,3.758,0,0,1-2.1.29,4.361,4.361,0,0,1-2.062-.923l-3.279-2.561a4.3,4.3,0,0,1-1.389-1.772,3.787,3.787,0,0,1-.223-2.1,4.7,4.7,0,0,1,.975-2.1,4.753,4.753,0,0,1,1.812-1.47,3.776,3.776,0,0,1,2.094-.3,4.323,4.323,0,0,1,2.057.918l3.279,2.561a4.381,4.381,0,0,1,1.4,1.777,3.776,3.776,0,0,1,.228,2.109,4.754,4.754,0,0,1-.986,2.114A4.694,4.694,0,0,1,30.916,48.542Zm1.262-4.315A2.621,2.621,0,0,0,31.1,42.453l-3.348-2.614a2.672,2.672,0,0,0-2-.632,2.585,2.585,0,0,0-1.77,1.059,2.546,2.546,0,0,0-.591,1.965,2.682,2.682,0,0,0,1.1,1.783l3.348,2.614a2.643,2.643,0,0,0,1.976.623,2.564,2.564,0,0,0,1.756-1.057A2.6,2.6,0,0,0,32.178,44.227Z" transform="translate(-2.784 -2.827)" style="fill: #b7dcdf"/>
        <path d="M44.949,26.234a2.9,2.9,0,0,1,3.26,1.157A3.026,3.026,0,0,1,48.9,30a4.241,4.241,0,0,1-1.65,2.4l-3.428,2.684a.155.155,0,0,1-.246-.029L36.247,25.7a.156.156,0,0,1,.03-.246l3.318-2.6a4.313,4.313,0,0,1,2.735-1.086,2.96,2.96,0,0,1,2.284,1.287,2.6,2.6,0,0,1,.271,3.1C44.859,26.216,44.882,26.243,44.949,26.234ZM38.4,25.723l2.275,2.9a.062.062,0,0,0,.1.013l2.079-1.628a2.364,2.364,0,0,0,.947-1.385,1.731,1.731,0,0,0-.391-1.449,1.8,1.8,0,0,0-1.334-.754A2.317,2.317,0,0,0,40.489,24L38.41,25.625A.062.062,0,0,0,38.4,25.723ZM47.25,29.84a2.189,2.189,0,0,0-1.85-2.349,2.3,2.3,0,0,0-1.62.569l-2.147,1.681a.062.062,0,0,0-.012.1l2.436,3.111a.061.061,0,0,0,.1.013l2.19-1.714A2.218,2.218,0,0,0,47.25,29.84Z" transform="translate(-2.784 -2.827)" style="fill: #b7dcdf"/>
        <path d="M56.057,25.983a3.74,3.74,0,0,1-2.045-.562,4.373,4.373,0,0,1-1.532-1.662l-2-3.647a4.312,4.312,0,0,1-.577-2.176,3.768,3.768,0,0,1,.625-2.02,5.156,5.156,0,0,1,3.969-2.18,3.77,3.77,0,0,1,2.041.555,4.3,4.3,0,0,1,1.527,1.654l2,3.646a4.344,4.344,0,0,1,.58,2.184,3.727,3.727,0,0,1-.621,2.028,5.142,5.142,0,0,1-3.968,2.18Zm2.861-3.467a2.618,2.618,0,0,0-.289-2.055l-2.047-3.723a2.678,2.678,0,0,0-1.59-1.371,2.584,2.584,0,0,0-2.043.276,2.549,2.549,0,0,0-1.32,1.572,2.7,2.7,0,0,0,.31,2.074l2.047,3.723a2.633,2.633,0,0,0,1.571,1.351,2.87,2.87,0,0,0,3.361-1.847Z" transform="translate(-2.784 -2.827)" style="fill: #b7dcdf"/>
        <path d="M70.208,6.993l.378,1.054a.155.155,0,0,1-.107.223L67.321,9.4a.063.063,0,0,0-.043.09L70.834,19.4a.156.156,0,0,1-.106.224l-1.251.448a.153.153,0,0,1-.223-.105L65.7,10.061a.061.061,0,0,0-.088-.043L62.6,11.1a.154.154,0,0,1-.223-.105L62,9.94a.155.155,0,0,1,.1-.224l7.882-2.828A.156.156,0,0,1,70.208,6.993Z" transform="translate(-2.784 -2.827)" style="fill: #b7dcdf"/>
        <path d="M85.032,3.707l.2,1.1a.154.154,0,0,1-.139.2l-3.3.614a.063.063,0,0,0-.057.082l1.927,10.347a.154.154,0,0,1-.14.2l-1.306.243a.153.153,0,0,1-.2-.139L80.091,6.014a.062.062,0,0,0-.08-.056l-3.147.586a.154.154,0,0,1-.2-.139l-.2-1.1a.155.155,0,0,1,.141-.2l8.232-1.533A.154.154,0,0,1,85.032,3.707Z" transform="translate(-2.784 -2.827)" style="fill: #b7dcdf"/>
        <path d="M92.156,14.93,91.809,3.045a.155.155,0,0,1,.17-.179l1.329-.039a.154.154,0,0,1,.178.17L93.8,13.535a.061.061,0,0,0,.071.068l6.03-.177a.155.155,0,0,1,.18.17l.032,1.1a.154.154,0,0,1-.169.18l-7.6.223A.156.156,0,0,1,92.156,14.93Z" transform="translate(-2.784 -2.827)" style="fill: #b7dcdf"/>
        <path d="M114.25,5.469l-6.158-.788a.06.06,0,0,0-.076.06l-.479,3.729a.062.062,0,0,0,.061.078l4.232.542a.153.153,0,0,1,.15.2l-.14,1.093a.153.153,0,0,1-.194.151l-4.233-.542a.062.062,0,0,0-.077.061l-.488,3.815a.06.06,0,0,0,.058.078l6.158.788a.156.156,0,0,1,.151.2l-.141,1.093a.152.152,0,0,1-.194.15l-7.718-.987a.154.154,0,0,1-.15-.2l1.509-11.793a.154.154,0,0,1,.195-.151l7.718.987a.155.155,0,0,1,.15.2l-.14,1.092A.153.153,0,0,1,114.25,5.469Z" transform="translate(-2.784 -2.827)" style="fill: #b7dcdf"/>
        <path d="M125.276,16.056a2.035,2.035,0,0,1-.094-1.616,1.975,1.975,0,0,1,1.07-1.191,2.069,2.069,0,0,1,1.61-.08,2.04,2.04,0,0,1,1.206,1.059,1.99,1.99,0,0,1,.093,1.6,2.054,2.054,0,0,1-1.068,1.212,2.014,2.014,0,0,1-1.609.1A2.042,2.042,0,0,1,125.276,16.056Z" transform="translate(-2.784 -2.827)" style="fill: #b7dcdf"/>
        <path d="M156.406,24.192,151.365,20.6a.061.061,0,0,0-.1.017l-2.181,3.061a.061.061,0,0,0,.016.1l3.46,2.465a.155.155,0,0,1,.041.244l-.639.9a.153.153,0,0,1-.243.04l-3.461-2.465a.062.062,0,0,0-.1.018L145.15,29.2a.153.153,0,0,1-.243.041l-1.083-.771a.156.156,0,0,1-.041-.244l6.9-9.683a.154.154,0,0,1,.244-.04l6.322,4.5a.154.154,0,0,1,.041.243l-.639.9A.155.155,0,0,1,156.406,24.192Z" transform="translate(-2.784 -2.827)" style="fill: #b7dcdf"/>
        <path d="M158.8,40.859l1.933-5.439a.069.069,0,0,0-.011-.086l-1.791-1.77a.063.063,0,0,0-.1,0L155.2,37.232a.155.155,0,0,1-.248,0l-.945-.933a.156.156,0,0,1,0-.248l8.357-8.455a.154.154,0,0,1,.246,0l3.346,3.306a3.784,3.784,0,0,1,1,1.608,3.071,3.071,0,0,1,.016,1.736,3.705,3.705,0,0,1-.967,1.6,3.341,3.341,0,0,1-1.911,1.024,3.13,3.13,0,0,1-2.067-.433c-.05-.016-.078,0-.086.038l-1.885,5.511a.184.184,0,0,1-.048.075c-.059.059-.12.054-.186-.01l-.982-.971A.192.192,0,0,1,158.8,40.859Zm3.817-11.125-2.753,2.786a.062.062,0,0,0,0,.1l2.077,2.053a2.026,2.026,0,0,0,1.445.652,1.952,1.952,0,0,0,1.424-.644,1.925,1.925,0,0,0-.018-2.893l-2.076-2.053A.062.062,0,0,0,162.614,29.734Z" transform="translate(-2.784 -2.827)" style="fill: #b7dcdf"/>
        <path d="M164.523,47.234a3.741,3.741,0,0,1,.3-2.1,4.357,4.357,0,0,1,1.457-1.726l3.369-2.443a4.32,4.32,0,0,1,2.088-.844,3.763,3.763,0,0,1,2.082.37,5.142,5.142,0,0,1,2.658,3.666,3.781,3.781,0,0,1-.3,2.093,4.3,4.3,0,0,1-1.452,1.721l-3.367,2.443a4.361,4.361,0,0,1-2.095.849,3.75,3.75,0,0,1-2.088-.363,5.149,5.149,0,0,1-2.659-3.666Zm3.8,2.406a2.618,2.618,0,0,0,2-.544l3.44-2.494a2.669,2.669,0,0,0,1.161-1.75,2.581,2.581,0,0,0-.527-1.992,2.553,2.553,0,0,0-1.726-1.113,2.688,2.688,0,0,0-2.018.567l-3.439,2.494a2.64,2.64,0,0,0-1.145,1.727,2.872,2.872,0,0,0,2.252,3.105Z" transform="translate(-2.784 -2.827)" style="fill: #b7dcdf"/>
        <path d="M185.415,59.164,186,60.356a.154.154,0,0,1-.079.234l-10.671,5.243a.154.154,0,0,1-.234-.08l-.586-1.192a.155.155,0,0,1,.08-.234l8.034-3.948a.07.07,0,0,0,.047-.062c0-.026-.018-.037-.054-.031l-4.523-.565a.231.231,0,0,1-.187-.14l-.293-.6a.269.269,0,0,1,0-.235l2.279-3.924c.027-.028.03-.047.009-.063a.074.074,0,0,0-.078,0l-8,3.933a.155.155,0,0,1-.233-.08l-.586-1.194a.154.154,0,0,1,.079-.233l10.672-5.243a.154.154,0,0,1,.233.08l.586,1.193a.237.237,0,0,1,0,.235l-2.762,4.765a.082.082,0,0,0,.046.094l5.453.711A.261.261,0,0,1,185.415,59.164Z" transform="translate(-2.784 -2.827)" style="fill: #b7dcdf"/>
        <path d="M191.121,82.992l-1.284-6.054a.062.062,0,0,0-.082-.054l-3.678.78a.062.062,0,0,0-.054.083L186.9,81.9a.153.153,0,0,1-.133.207l-1.079.229a.155.155,0,0,1-.207-.135l-.881-4.156a.062.062,0,0,0-.083-.054l-5.08,1.078a.153.153,0,0,1-.207-.134l-.276-1.3a.154.154,0,0,1,.135-.207l11.63-2.468a.154.154,0,0,1,.207.135l1.611,7.593a.154.154,0,0,1-.134.207l-1.078.229A.156.156,0,0,1,191.121,82.992Z" transform="translate(-2.784 -2.827)" style="fill: #b7dcdf"/>
        <path d="M181.628,96.118l2-.753a.069.069,0,0,0,.049-.073l-.3-4.9a.068.068,0,0,0-.057-.067l-2.081-.5a.205.205,0,0,1-.152-.2L181,88.205c-.009-.128.052-.179.183-.151L193.3,91.142a.2.2,0,0,1,.153.2l.107,1.745a.2.2,0,0,1-.126.218L181.791,97.9l-.069.021c-.082,0-.125-.044-.132-.149l-.088-1.431A.2.2,0,0,1,181.628,96.118Zm3.124-5.438a.09.09,0,0,0-.023.062l.249,4.015a.076.076,0,0,0,.03.057.044.044,0,0,0,.06.005l6.35-2.423a.058.058,0,0,0,.031-.054.053.053,0,0,0-.037-.05l-6.6-1.625A.047.047,0,0,0,184.752,90.68Z" transform="translate(-2.784 -2.827)" style="fill: #b7dcdf"/>
        <path d="M180.844,109.535l5.451-1.9a.07.07,0,0,0,.059-.063l.257-2.506a.061.061,0,0,0-.062-.076l-5.13-.528a.155.155,0,0,1-.157-.191l.136-1.323a.155.155,0,0,1,.193-.156l11.826,1.219a.152.152,0,0,1,.155.191l-.481,4.678a3.76,3.76,0,0,1-.624,1.79,3.064,3.064,0,0,1-1.344,1.1,3.686,3.686,0,0,1-1.853.249,3.356,3.356,0,0,1-2-.847,3.152,3.152,0,0,1-.956-1.884c-.018-.048-.046-.062-.083-.043l-5.478,1.984a.2.2,0,0,1-.088.009c-.082-.009-.117-.059-.107-.151l.14-1.374A.192.192,0,0,1,180.844,109.535Zm11.062-3.992-3.9-.4a.06.06,0,0,0-.076.06l-.3,2.9a2.029,2.029,0,0,0,.394,1.536,1.959,1.959,0,0,0,1.4.706,1.925,1.925,0,0,0,2.244-1.826l.3-2.9A.062.062,0,0,0,191.906,105.543Z" transform="translate(-2.784 -2.827)" style="fill: #b7dcdf"/>
        <path d="M189.225,127.231l-.36,1.28a.155.155,0,0,1-.216.121L177.2,125.417a.155.155,0,0,1-.121-.215l.359-1.28a.156.156,0,0,1,.216-.121l8.618,2.421a.072.072,0,0,0,.078-.016c.017-.019.01-.039-.021-.059l-2.992-3.438a.232.232,0,0,1-.045-.23l.18-.64a.264.264,0,0,1,.158-.174l4.316-1.4c.036,0,.053-.016.047-.041s-.023-.043-.057-.053l-8.585-2.411a.155.155,0,0,1-.122-.215l.36-1.279a.155.155,0,0,1,.217-.122l11.445,3.214a.156.156,0,0,1,.121.217l-.359,1.279a.237.237,0,0,1-.158.174l-5.237,1.706a.067.067,0,0,0-.031.046.068.068,0,0,0,0,.055L189.181,127A.276.276,0,0,1,189.225,127.231Z" transform="translate(-2.784 -2.827)" style="fill: #b7dcdf"/>
        <path d="M178.686,149.459l-.971-.557a.154.154,0,0,1-.065-.238l1.67-2.913a.061.061,0,0,0-.025-.095l-9.131-5.237a.153.153,0,0,1-.064-.238l.662-1.153a.154.154,0,0,1,.238-.065l9.13,5.237a.062.062,0,0,0,.095-.026l1.591-2.775a.156.156,0,0,1,.24-.065l.97.557a.155.155,0,0,1,.066.238l-4.167,7.265A.154.154,0,0,1,178.686,149.459Z" transform="translate(-2.784 -2.827)" style="fill: #b7dcdf"/>
        <path d="M164.7,148.953a3.749,3.749,0,0,1,2.107-.254,4.359,4.359,0,0,1,2.046.956l3.237,2.616a4.309,4.309,0,0,1,1.359,1.8,3.763,3.763,0,0,1,.186,2.106,5.137,5.137,0,0,1-2.846,3.522,3.761,3.761,0,0,1-2.1.26,4.31,4.31,0,0,1-2.039-.951l-3.238-2.615a4.346,4.346,0,0,1-1.365-1.8,3.753,3.753,0,0,1-.195-2.111,5.153,5.153,0,0,1,2.846-3.523Zm-1.333,4.294a2.618,2.618,0,0,0,1.048,1.791l3.305,2.67a2.671,2.671,0,0,0,1.991.665,2.585,2.585,0,0,0,1.787-1.029,2.554,2.554,0,0,0,.625-1.956,2.7,2.7,0,0,0-1.074-1.8l-3.3-2.67a2.641,2.641,0,0,0-1.966-.655,2.874,2.874,0,0,0-2.411,2.985Z" transform="translate(-2.784 -2.827)" style="fill: #b7dcdf"/>
        <path d="M150.314,171.015a2.9,2.9,0,0,1-3.24-1.209,3.029,3.029,0,0,1-.648-2.623,4.241,4.241,0,0,1,1.689-2.375l3.471-2.628a.155.155,0,0,1,.245.033l7.177,9.48a.156.156,0,0,1-.035.245l-3.36,2.543a4.311,4.311,0,0,1-2.752,1.042A2.962,2.962,0,0,1,150.6,174.2a2.6,2.6,0,0,1-.22-3.1C150.4,171.035,150.383,171.007,150.314,171.015Zm-2.242-3.642a2.189,2.189,0,0,0,1.813,2.378,2.3,2.3,0,0,0,1.629-.542l2.174-1.647a.061.061,0,0,0,.013-.1l-2.385-3.151a.062.062,0,0,0-.1-.014L149,165.979A2.218,2.218,0,0,0,148.072,167.373Zm8.784,4.26-2.227-2.942a.063.063,0,0,0-.1-.014l-2.1,1.594a2.362,2.362,0,0,0-.97,1.371,1.732,1.732,0,0,0,.367,1.454,1.806,1.806,0,0,0,1.322.776,2.313,2.313,0,0,0,1.592-.548l2.1-1.594A.061.061,0,0,0,156.856,171.633Z" transform="translate(-2.784 -2.827)" style="fill: #b7dcdf"/>
        <path d="M139.182,171.1a3.742,3.742,0,0,1,2.035.595,4.379,4.379,0,0,1,1.5,1.687l1.942,3.68a4.311,4.311,0,0,1,.541,2.185,3.763,3.763,0,0,1-.659,2.01,4.692,4.692,0,0,1-1.749,1.516,4.76,4.76,0,0,1-2.255.6,3.784,3.784,0,0,1-2.031-.589,4.3,4.3,0,0,1-1.5-1.68l-1.944-3.68a4.372,4.372,0,0,1-.546-2.193,3.765,3.765,0,0,1,.656-2.016,4.752,4.752,0,0,1,1.765-1.526A4.7,4.7,0,0,1,139.182,171.1Zm-2.919,3.419a2.618,2.618,0,0,0,.257,2.059l1.983,3.757a2.671,2.671,0,0,0,1.568,1.4,2.581,2.581,0,0,0,2.047-.241,2.554,2.554,0,0,0,1.346-1.55,2.7,2.7,0,0,0-.277-2.079l-1.984-3.757a2.641,2.641,0,0,0-1.548-1.377,2.872,2.872,0,0,0-3.392,1.792Z" transform="translate(-2.784 -2.827)" style="fill: #b7dcdf"/>
        <path d="M124.717,189.853l-.36-1.06a.154.154,0,0,1,.11-.222l3.178-1.081a.062.062,0,0,0,.043-.089l-3.389-9.964a.155.155,0,0,1,.109-.222l1.259-.428a.155.155,0,0,1,.222.109l3.388,9.965a.062.062,0,0,0,.089.044l3.03-1.03a.153.153,0,0,1,.221.109l.362,1.059a.157.157,0,0,1-.111.223l-7.929,2.7A.156.156,0,0,1,124.717,189.853Z" transform="translate(-2.784 -2.827)" style="fill: #b7dcdf"/>
        <path d="M109.83,192.893l-.186-1.1a.154.154,0,0,1,.143-.2l3.309-.559a.061.061,0,0,0,.058-.08L111.4,180.571a.157.157,0,0,1,.145-.2l1.31-.221a.155.155,0,0,1,.2.143l1.753,10.378a.061.061,0,0,0,.079.058l3.156-.534a.154.154,0,0,1,.2.143l.187,1.1a.156.156,0,0,1-.143.2l-8.259,1.394A.154.154,0,0,1,109.83,192.893Z" transform="translate(-2.784 -2.827)" style="fill: #b7dcdf"/>
        <path d="M102.908,181.549l.151,11.889a.155.155,0,0,1-.172.177l-1.329.016a.155.155,0,0,1-.178-.172l-.133-10.542a.062.062,0,0,0-.07-.069l-6.031.076a.155.155,0,0,1-.178-.172l-.014-1.1a.156.156,0,0,1,.173-.177l7.6-.1A.154.154,0,0,1,102.908,181.549Z" transform="translate(-2.784 -2.827)" style="fill: #b7dcdf"/>
        <path d="M80.67,190.646l6.142.888a.061.061,0,0,0,.079-.059l.539-3.72a.063.063,0,0,0-.059-.08l-4.223-.611a.154.154,0,0,1-.148-.2l.158-1.091a.155.155,0,0,1,.2-.148l4.223.611a.061.061,0,0,0,.078-.059l.551-3.807a.061.061,0,0,0-.058-.079l-6.142-.889a.155.155,0,0,1-.149-.2l.159-1.09a.153.153,0,0,1,.2-.148l7.7,1.114a.154.154,0,0,1,.147.2l-1.7,11.767a.155.155,0,0,1-.2.148l-7.7-1.114a.156.156,0,0,1-.149-.2l.159-1.091A.153.153,0,0,1,80.67,190.646Z" transform="translate(-2.784 -2.827)" style="fill: #b7dcdf"/>
        <path d="M69.815,179.879a2.032,2.032,0,0,1,.068,1.617,1.978,1.978,0,0,1-1.09,1.174,2.071,2.071,0,0,1-1.611.052,2.039,2.039,0,0,1-1.189-1.077,2,2,0,0,1-.066-1.6,2.049,2.049,0,0,1,1.089-1.193,2.008,2.008,0,0,1,1.609-.073A2.043,2.043,0,0,1,69.815,179.879Z" transform="translate(-2.784 -2.827)" style="fill: #b7dcdf"/>
      </g>
    </g>
  </g>
</svg>
