<?xml version="1.0" encoding="utf-8"?>
<!-- Generator: Adobe Illustrator 27.9.0, SVG Export Plug-In . SVG Version: 6.00 Build 0)  -->
<svg version="1.1" id="Layer_1" xmlns="http://www.w3.org/2000/svg" xmlns:xlink="http://www.w3.org/1999/xlink" x="0px" y="0px"
	 viewBox="0 0 190 190" enable-background="new 0 0 190 190" xml:space="preserve">
<g>
	<path fill="#B4D9DC" d="M39.9,167.5l4.9,3.4c0,0,0.1,0,0.1,0l2.1-3c0,0,0-0.1,0-0.1l-3.4-2.3c-0.1-0.1-0.1-0.1,0-0.2l0.6-0.9
		c0.1-0.1,0.1-0.1,0.2,0l3.4,2.3c0,0,0.1,0,0.1,0l2.8-4.1c0.1-0.1,0.1-0.1,0.2,0l1.1,0.7c0.1,0.1,0.1,0.1,0,0.2l-6.5,9.5
		c-0.1,0.1-0.1,0.1-0.2,0l-6.2-4.3c-0.1-0.1-0.1-0.1,0-0.2l0.6-0.9C39.8,167.4,39.8,167.4,39.9,167.5z"/>
	<path fill="#B4D9DC" d="M37.2,151.3l-1.8,5.3c0,0,0,0.1,0,0.1l1.8,1.7c0,0,0.1,0,0.1,0l3.5-3.6c0.1-0.1,0.2-0.1,0.2,0l0.9,0.9
		c0.1,0.1,0.1,0.2,0,0.2l-8,8.3c-0.1,0.1-0.2,0.1-0.2,0l-3.3-3.2c-0.5-0.5-0.8-1-1-1.5c-0.2-0.6-0.2-1.1,0-1.7s0.5-1.1,0.9-1.6
		c0.5-0.6,1.2-0.9,1.8-1c0.7-0.1,1.3,0,2,0.4c0,0,0.1,0,0.1,0l1.7-5.4c0,0,0,0,0-0.1c0.1-0.1,0.1-0.1,0.2,0l1,0.9
		C37.2,151.1,37.2,151.2,37.2,151.3z M33.7,162.1l2.6-2.7c0,0,0-0.1,0-0.1l-2-2c-0.4-0.4-0.9-0.6-1.4-0.6s-1,0.2-1.4,0.6
		c-0.4,0.4-0.6,0.9-0.6,1.4c0,0.5,0.2,1,0.7,1.4L33.7,162.1C33.6,162.1,33.6,162.1,33.7,162.1z"/>
	<path fill="#B4D9DC" d="M31.5,145c0.1,0.7,0,1.4-0.3,2c-0.3,0.6-0.7,1.2-1.4,1.7l-3.2,2.4c-0.6,0.5-1.3,0.8-2,0.8
		c-0.7,0.1-1.4,0-2-0.3c-0.6-0.3-1.2-0.8-1.7-1.4c-0.5-0.7-0.8-1.4-0.9-2.1c-0.1-0.7,0-1.4,0.3-2c0.3-0.6,0.7-1.2,1.4-1.7l3.2-2.4
		c0.6-0.5,1.3-0.8,2-0.8c0.7-0.1,1.4,0,2,0.3c0.6,0.3,1.2,0.8,1.7,1.5C31.1,143.6,31.4,144.3,31.5,145z M27.8,142.7
		c-0.7-0.1-1.3,0.1-1.9,0.5l-3.3,2.4c-0.6,0.5-1,1-1.1,1.7c-0.1,0.7,0.1,1.3,0.5,1.9c0.5,0.6,1,1,1.7,1.1c0.7,0.1,1.3-0.1,1.9-0.6
		l3.3-2.5c0.6-0.5,1-1,1.1-1.7c0.1-0.7-0.1-1.3-0.5-1.9C29,143.2,28.4,142.8,27.8,142.7z"/>
	<path fill="#B4D9DC" d="M11.1,133.6l-0.6-1.1c-0.1-0.1,0-0.2,0.1-0.2l10.3-5.2c0.1,0,0.2,0,0.2,0.1l0.6,1.1c0.1,0.1,0,0.2-0.1,0.2
		l-7.7,3.9c0,0,0,0,0,0.1c0,0,0,0,0.1,0l4.4,0.5c0.1,0,0.1,0.1,0.2,0.1l0.3,0.6c0,0.1,0,0.1,0,0.2l-2.2,3.8c0,0,0,0,0,0.1s0,0,0.1,0
		l7.7-3.9c0.1-0.1,0.2,0,0.2,0.1l0.6,1.1c0.1,0.1,0,0.2-0.1,0.2l-10.3,5.2c-0.1,0-0.2,0-0.2-0.1l-0.6-1.1c0-0.1,0-0.2,0-0.2l2.6-4.6
		c0,0,0,0,0-0.1s0,0,0,0l-5.3-0.6C11.2,133.7,11.1,133.6,11.1,133.6z"/>
	<path fill="#B4D9DC" d="M5.3,110.2l1.3,5.8c0,0,0,0.1,0.1,0.1l3.6-0.8c0,0,0.1,0,0.1-0.1l-0.9-4c0-0.1,0-0.2,0.1-0.2l1-0.2
		c0.1,0,0.2,0,0.2,0.1l0.9,4c0,0,0,0.1,0.1,0.1l4.9-1.1c0.1,0,0.2,0,0.2,0.1l0.3,1.3c0,0.1,0,0.2-0.1,0.2L5.7,118
		c-0.1,0-0.2,0-0.2-0.1l-1.6-7.3c0-0.1,0-0.2,0.1-0.2l1-0.2C5.2,110.1,5.2,110.1,5.3,110.2z"/>
	<path fill="#B4D9DC" d="M14.4,97.3L12.4,98c0,0,0,0,0,0.1l0.3,4.7c0,0,0,0.1,0.1,0.1l2,0.5c0.1,0,0.1,0.1,0.1,0.2l0.1,1.4
		c0,0.1-0.1,0.2-0.2,0.1l-11.7-2.9c-0.1,0-0.1-0.1-0.1-0.2l-0.1-1.7c0-0.1,0-0.2,0.1-0.2l11.2-4.5l0.1,0c0.1,0,0.1,0,0.1,0.1
		l0.1,1.4C14.5,97.2,14.5,97.2,14.4,97.3z M11.4,102.6C11.4,102.5,11.4,102.5,11.4,102.6l-0.2-3.9c0,0,0,0,0-0.1c0,0,0,0-0.1,0
		l-6.1,2.4c0,0,0,0,0,0.1c0,0,0,0,0,0L11.4,102.6C11.3,102.6,11.3,102.6,11.4,102.6z"/>
	<path fill="#B4D9DC" d="M15.1,84.1l-5.3,1.8c0,0-0.1,0-0.1,0.1l-0.2,2.4c0,0,0,0.1,0.1,0.1l5,0.5c0.1,0,0.2,0.1,0.2,0.2l-0.1,1.3
		c0,0.1-0.1,0.2-0.2,0.2L3,89.4c-0.1,0-0.2-0.1-0.2-0.2l0.5-4.5c0.1-0.7,0.3-1.2,0.6-1.7c0.3-0.5,0.8-0.8,1.3-1.1
		c0.5-0.2,1.1-0.3,1.8-0.2c0.8,0.1,1.4,0.4,1.9,0.8c0.5,0.5,0.8,1.1,0.9,1.8c0,0,0,0.1,0.1,0l5.3-1.9c0,0,0.1,0,0.1,0
		c0.1,0,0.1,0.1,0.1,0.1l-0.1,1.3C15.2,84,15.2,84.1,15.1,84.1z M4.4,88l3.8,0.4c0,0,0.1,0,0.1-0.1l0.3-2.8c0.1-0.6-0.1-1.1-0.4-1.5
		c-0.3-0.4-0.8-0.6-1.3-0.7c-0.6-0.1-1.1,0.1-1.5,0.4c-0.4,0.3-0.6,0.8-0.7,1.4L4.4,88C4.3,87.9,4.4,88,4.4,88z"/>
	<path fill="#B4D9DC" d="M7.1,66.8l0.3-1.2c0-0.1,0.1-0.1,0.2-0.1l11.1,3.1c0.1,0,0.1,0.1,0.1,0.2L18.4,70c0,0.1-0.1,0.1-0.2,0.1
		l-8.3-2.4c0,0-0.1,0-0.1,0s0,0,0,0.1l2.9,3.3c0.1,0.1,0.1,0.1,0,0.2L12.6,72c0,0.1-0.1,0.1-0.2,0.2l-4.2,1.4c0,0-0.1,0,0,0
		c0,0,0,0,0.1,0l8.3,2.3c0.1,0,0.1,0.1,0.1,0.2l-0.3,1.2c0,0.1-0.1,0.1-0.2,0.1L5.1,74.4c-0.1,0-0.1-0.1-0.1-0.2L5.3,73
		c0-0.1,0.1-0.1,0.2-0.2l5.1-1.6c0,0,0,0,0,0c0,0,0,0,0-0.1l-3.5-4C7,66.9,7,66.9,7.1,66.8z"/>
	<path fill="#B4D9DC" d="M17.5,45l0.9,0.5c0.1,0.1,0.1,0.1,0.1,0.2l-1.6,2.8c0,0,0,0.1,0,0.1l8.8,5.1c0.1,0.1,0.1,0.1,0.1,0.2
		l-0.6,1.1c-0.1,0.1-0.1,0.1-0.2,0.1l-8.8-5.1c0,0-0.1,0-0.1,0l-1.6,2.7c-0.1,0.1-0.1,0.1-0.2,0.1l-0.9-0.5
		c-0.1-0.1-0.1-0.1-0.1-0.2l4.1-7C17.3,45,17.4,44.9,17.5,45z"/>
	<path fill="#B4D9DC" d="M31.1,45.4c-0.7,0.3-1.3,0.4-2,0.2c-0.7-0.1-1.4-0.4-2-0.9L24,42.1c-0.6-0.5-1.1-1.1-1.3-1.7
		c-0.2-0.7-0.3-1.3-0.2-2c0.1-0.7,0.5-1.4,1-2c0.5-0.6,1.1-1.1,1.8-1.4c0.7-0.3,1.3-0.4,2-0.2c0.7,0.1,1.3,0.4,2,0.9l3.1,2.6
		c0.6,0.5,1.1,1.1,1.3,1.8c0.3,0.7,0.3,1.3,0.2,2c-0.1,0.7-0.5,1.4-1,2C32.4,44.7,31.8,45.1,31.1,45.4z M32.4,41.3
		c-0.1-0.7-0.4-1.2-1-1.7l-3.2-2.6c-0.6-0.5-1.2-0.7-1.9-0.7c-0.7,0.1-1.2,0.4-1.7,1c-0.5,0.6-0.7,1.2-0.6,1.9
		c0.1,0.7,0.4,1.2,1,1.7l3.2,2.6c0.6,0.5,1.2,0.7,1.9,0.6c0.7-0.1,1.2-0.4,1.7-1C32.3,42.6,32.5,41.9,32.4,41.3z"/>
	<path fill="#B4D9DC" d="M45.5,24c1.3-0.3,2.3,0.1,3.1,1.2c0.6,0.8,0.8,1.7,0.6,2.5c-0.2,0.9-0.8,1.6-1.7,2.3l-3.4,2.5
		c-0.1,0.1-0.2,0.1-0.2,0l-6.8-9.2c-0.1-0.1-0.1-0.2,0-0.2l3.3-2.4c0.9-0.7,1.8-1,2.7-1c0.8,0,1.6,0.5,2.2,1.3
		C46,21.9,46.1,22.9,45.5,24C45.4,24,45.4,24,45.5,24z M39.2,23.3l2.1,2.9c0,0,0.1,0,0.1,0l2.1-1.5c0.5-0.4,0.8-0.8,1-1.3
		c0.1-0.5,0-1-0.3-1.4c-0.3-0.5-0.8-0.7-1.3-0.8s-1,0.1-1.5,0.5L39.2,23.3C39.2,23.2,39.2,23.3,39.2,23.3z M47.6,27.5
		c0.1-0.5,0-1-0.4-1.5c-0.4-0.5-0.8-0.8-1.3-0.8c-0.5-0.1-1,0.1-1.6,0.5l-2.1,1.6c0,0,0,0.1,0,0.1l2.3,3.1c0,0,0.1,0,0.1,0l2.2-1.6
		C47.2,28.5,47.5,28,47.6,27.5z"/>
	<path fill="#B4D9DC" d="M56.4,23.9c-0.7,0-1.4-0.2-2-0.6s-1.1-0.9-1.4-1.7l-1.8-3.6c-0.4-0.7-0.5-1.4-0.5-2.1
		c0-0.7,0.3-1.3,0.7-1.9c0.4-0.6,1-1.1,1.7-1.4c0.7-0.4,1.5-0.6,2.2-0.5c0.7,0,1.4,0.2,2,0.6c0.6,0.4,1.1,0.9,1.4,1.6l1.8,3.6
		c0.4,0.7,0.5,1.4,0.5,2.1c0,0.7-0.3,1.4-0.7,1.9c-0.4,0.6-1,1.1-1.7,1.4C57.9,23.8,57.1,23.9,56.4,23.9z M59.3,20.7
		c0.2-0.6,0.1-1.3-0.2-2L57.2,15c-0.4-0.7-0.9-1.2-1.5-1.4c-0.6-0.2-1.3-0.1-2,0.2c-0.7,0.3-1.1,0.8-1.3,1.5c-0.2,0.6-0.1,1.3,0.2,2
		l1.9,3.7c0.4,0.7,0.8,1.1,1.5,1.4c0.6,0.2,1.3,0.1,2-0.2C58.7,21.8,59.1,21.3,59.3,20.7z"/>
	<path fill="#B4D9DC" d="M70.9,6l0.3,1c0,0.1,0,0.2-0.1,0.2l-3.1,1c0,0-0.1,0,0,0.1l3.1,9.7c0,0.1,0,0.2-0.1,0.2l-1.2,0.4
		c-0.1,0-0.2,0-0.2-0.1l-3.1-9.7c0,0,0-0.1-0.1,0l-2.9,0.9c-0.1,0-0.2,0-0.2-0.1l-0.3-1c0-0.1,0-0.2,0.1-0.2l7.7-2.5
		C70.8,5.8,70.9,5.8,70.9,6z"/>
	<path fill="#B4D9DC" d="M85.5,3.2l0.2,1.1c0,0.1,0,0.2-0.1,0.2L82.3,5c0,0-0.1,0-0.1,0.1l1.5,10.1c0,0.1,0,0.2-0.1,0.2l-1.3,0.2
		c-0.1,0-0.2,0-0.2-0.1L80.7,5.3c0,0,0-0.1-0.1-0.1l-3.1,0.5c-0.1,0-0.2,0-0.2-0.1l-0.2-1.1c0-0.1,0-0.2,0.1-0.2l8-1.2
		C85.4,3.1,85.5,3.1,85.5,3.2z"/>
	<path fill="#B4D9DC" d="M92.2,14.3l0.1-11.5c0-0.1,0.1-0.2,0.2-0.2l1.3,0c0.1,0,0.2,0.1,0.2,0.2L93.8,13c0,0,0,0.1,0.1,0.1l5.8,0
		c0.1,0,0.2,0.1,0.2,0.2l0,1.1c0,0.1-0.1,0.2-0.2,0.2l-7.4-0.1C92.2,14.5,92.2,14.4,92.2,14.3z"/>
	<path fill="#B4D9DC" d="M114.1,6l-5.9-1c0,0-0.1,0-0.1,0.1l-0.6,3.6c0,0,0,0.1,0.1,0.1l4.1,0.7c0.1,0,0.2,0.1,0.1,0.2l-0.2,1.1
		c0,0.1-0.1,0.2-0.2,0.1l-4.1-0.7c0,0-0.1,0-0.1,0.1l-0.6,3.7c0,0,0,0.1,0.1,0.1l5.9,1c0.1,0,0.2,0.1,0.1,0.2l-0.2,1
		c0,0.1-0.1,0.2-0.2,0.1l-7.4-1.3c-0.1,0-0.2-0.1-0.1-0.2l1.9-11.3c0-0.1,0.1-0.2,0.2-0.1l7.4,1.3c0.1,0,0.2,0.1,0.1,0.2l-0.2,1.1
		C114.3,6,114.2,6.1,114.1,6z"/>
	<path fill="#B4D9DC" d="M124.7,16.8c-0.2-0.5-0.2-1,0-1.6c0.2-0.5,0.6-0.9,1.1-1.1c0.5-0.2,1-0.2,1.6,0c0.5,0.2,0.9,0.6,1.1,1.1
		c0.2,0.5,0.2,1,0,1.5c-0.2,0.5-0.6,0.9-1.1,1.1c-0.5,0.2-1,0.2-1.6,0C125.2,17.7,124.9,17.3,124.7,16.8z"/>
	<path fill="#B4D9DC" d="M149.1,21.8l-5-3.3c0,0-0.1,0-0.1,0l-2,3c0,0,0,0.1,0,0.1l3.4,2.3c0.1,0.1,0.1,0.1,0,0.2l-0.6,0.9
		c-0.1,0.1-0.1,0.1-0.2,0l-3.4-2.3c0,0-0.1,0-0.1,0l-2.8,4.2c-0.1,0.1-0.1,0.1-0.2,0l-1.1-0.7c-0.1-0.1-0.1-0.1,0-0.2l6.4-9.6
		c0.1-0.1,0.1-0.1,0.2,0l6.2,4.2c0.1,0.1,0.1,0.1,0,0.2l-0.6,0.9C149.2,21.8,149.2,21.8,149.1,21.8z"/>
	<path fill="#B4D9DC" d="M152,38l1.7-5.3c0,0,0-0.1,0-0.1l-1.8-1.7c0,0-0.1,0-0.1,0l-3.4,3.6c-0.1,0.1-0.2,0.1-0.2,0l-0.9-0.9
		c-0.1-0.1-0.1-0.2,0-0.2l7.9-8.4c0.1-0.1,0.2-0.1,0.2,0l3.3,3.1c0.5,0.5,0.8,1,1,1.5c0.2,0.6,0.2,1.1,0.1,1.7
		c-0.1,0.6-0.4,1.1-0.9,1.6c-0.5,0.6-1.1,0.9-1.8,1c-0.7,0.1-1.3,0-2-0.4c0,0-0.1,0-0.1,0l-1.7,5.4c0,0,0,0,0,0.1
		c-0.1,0.1-0.1,0.1-0.2,0l-1-0.9C152,38.1,152,38,152,38z M155.4,27.1l-2.6,2.8c0,0,0,0.1,0,0.1l2.1,1.9c0.4,0.4,0.9,0.6,1.4,0.6
		c0.5,0,1-0.2,1.4-0.7c0.4-0.4,0.6-0.9,0.6-1.4c0-0.5-0.2-1-0.7-1.4L155.4,27.1C155.5,27.1,155.4,27.1,155.4,27.1z"/>
	<path fill="#B4D9DC" d="M157.8,44.1c-0.1-0.7,0-1.4,0.2-2s0.7-1.2,1.4-1.7l3.2-2.4c0.6-0.5,1.3-0.8,2-0.9c0.7-0.1,1.4,0,2,0.3
		c0.7,0.3,1.2,0.8,1.7,1.4c0.5,0.7,0.8,1.3,0.9,2.1c0.1,0.7,0,1.4-0.2,2c-0.3,0.6-0.7,1.2-1.4,1.7l-3.2,2.4c-0.6,0.5-1.3,0.8-2,0.9
		c-0.7,0.1-1.4,0-2-0.3s-1.2-0.8-1.7-1.4C158.3,45.5,158,44.8,157.8,44.1z M161.6,46.4c0.7,0.1,1.3-0.1,1.9-0.6l3.3-2.5
		c0.6-0.5,1-1.1,1.1-1.7c0.1-0.7-0.1-1.3-0.6-1.9c-0.5-0.6-1-1-1.7-1c-0.7-0.1-1.3,0.1-1.9,0.6l-3.3,2.5c-0.6,0.5-1,1-1.1,1.7
		c-0.1,0.7,0.1,1.3,0.6,1.9C160.3,45.9,160.9,46.3,161.6,46.4z"/>
	<path fill="#B4D9DC" d="M178.4,55.3l0.6,1.1c0.1,0.1,0,0.2-0.1,0.2L168.7,62c-0.1,0.1-0.2,0-0.2-0.1l-0.6-1.1
		c-0.1-0.1,0-0.2,0.1-0.2l7.7-4c0,0,0,0,0-0.1c0,0,0,0-0.1,0l-4.4-0.4c-0.1,0-0.1-0.1-0.2-0.1l-0.3-0.6c0-0.1,0-0.1,0-0.2l2.1-3.8
		c0,0,0,0,0-0.1c0,0,0,0-0.1,0l-7.6,4c-0.1,0.1-0.2,0-0.2-0.1l-0.6-1.1c-0.1-0.1,0-0.2,0.1-0.2l10.2-5.3c0.1-0.1,0.2,0,0.2,0.1
		l0.6,1.1c0,0.1,0,0.2,0,0.2l-2.6,4.7c0,0,0,0,0,0.1c0,0,0,0,0,0l5.3,0.6C178.3,55.2,178.4,55.2,178.4,55.3z"/>
	<path fill="#B4D9DC" d="M184.5,78.6l-1.4-5.8c0,0,0-0.1-0.1-0.1l-3.5,0.8c0,0-0.1,0-0.1,0.1l0.9,4c0,0.1,0,0.2-0.1,0.2l-1,0.2
		c-0.1,0-0.2,0-0.2-0.1l-0.9-4c0,0,0-0.1-0.1-0.1l-4.9,1.1c-0.1,0-0.2,0-0.2-0.1l-0.3-1.3c0-0.1,0-0.2,0.1-0.2l11.2-2.6
		c0.1,0,0.2,0,0.2,0.1l1.7,7.3c0,0.1,0,0.2-0.1,0.2l-1,0.2C184.6,78.7,184.6,78.7,184.5,78.6z"/>
	<path fill="#B4D9DC" d="M175.6,91.7l1.9-0.8c0,0,0,0,0-0.1l-0.4-4.7c0,0,0-0.1-0.1-0.1l-2-0.5c-0.1,0-0.1-0.1-0.2-0.2l-0.1-1.4
		c0-0.1,0-0.2,0.2-0.1l11.8,2.8c0.1,0,0.1,0.1,0.2,0.2l0.1,1.7c0,0.1,0,0.2-0.1,0.2l-11.2,4.6l-0.1,0c-0.1,0-0.1,0-0.1-0.1l-0.1-1.4
		C175.5,91.8,175.5,91.7,175.6,91.7z M178.5,86.3C178.5,86.4,178.5,86.4,178.5,86.3l0.3,3.9c0,0,0,0,0,0.1c0,0,0,0,0.1,0l6.1-2.4
		c0,0,0,0,0-0.1c0,0,0,0,0,0L178.5,86.3C178.6,86.3,178.5,86.3,178.5,86.3z"/>
	<path fill="#B4D9DC" d="M175,104.8l5.2-1.9c0,0,0.1,0,0.1-0.1l0.2-2.4c0,0,0-0.1-0.1-0.1l-5-0.4c-0.1,0-0.2-0.1-0.2-0.2l0.1-1.3
		c0-0.1,0.1-0.2,0.2-0.2l11.5,1c0.1,0,0.2,0.1,0.2,0.2l-0.4,4.5c-0.1,0.7-0.3,1.3-0.6,1.7c-0.3,0.5-0.8,0.8-1.3,1.1
		c-0.5,0.2-1.1,0.3-1.8,0.3c-0.8-0.1-1.4-0.3-1.9-0.8c-0.5-0.5-0.8-1.1-1-1.8c0,0,0-0.1-0.1,0l-5.3,2c0,0-0.1,0-0.1,0
		c-0.1,0-0.1-0.1-0.1-0.1l0.1-1.3C174.9,104.9,174.9,104.8,175,104.8z M185.7,100.8l-3.8-0.3c0,0-0.1,0-0.1,0.1l-0.2,2.8
		c-0.1,0.6,0.1,1.1,0.4,1.5s0.8,0.6,1.4,0.7c0.6,0.1,1.1-0.1,1.5-0.4c0.4-0.3,0.6-0.8,0.7-1.4L185.7,100.8
		C185.7,100.8,185.7,100.8,185.7,100.8z"/>
	<path fill="#B4D9DC" d="M183.3,122l-0.3,1.2c0,0.1-0.1,0.1-0.2,0.1l-11.1-3c-0.1,0-0.1-0.1-0.1-0.2l0.3-1.2c0-0.1,0.1-0.1,0.2-0.1
		l8.4,2.2c0,0,0.1,0,0.1,0c0,0,0,0,0-0.1l-2.9-3.3c-0.1-0.1-0.1-0.1,0-0.2l0.2-0.6c0-0.1,0.1-0.1,0.2-0.2l4.2-1.4c0,0,0.1,0,0,0
		c0,0,0,0-0.1-0.1l-8.3-2.2c-0.1,0-0.1-0.1-0.1-0.2l0.3-1.2c0-0.1,0.1-0.1,0.2-0.1l11.1,3c0.1,0,0.1,0.1,0.1,0.2l-0.3,1.2
		c0,0.1-0.1,0.1-0.2,0.2l-5,1.7c0,0,0,0,0,0c0,0,0,0,0,0.1l3.5,4C183.3,121.9,183.3,121.9,183.3,122z"/>
	<path fill="#B4D9DC" d="M173.2,143.9l-0.9-0.5c-0.1-0.1-0.1-0.1-0.1-0.2l1.6-2.8c0,0,0-0.1,0-0.1l-8.9-5c-0.1-0.1-0.1-0.1-0.1-0.2
		l0.6-1.1c0.1-0.1,0.1-0.1,0.2-0.1l8.9,5c0,0,0.1,0,0.1,0l1.5-2.7c0.1-0.1,0.1-0.1,0.2-0.1l0.9,0.5c0.1,0.1,0.1,0.1,0.1,0.2l-4,7.1
		C173.4,144,173.3,144,173.2,143.9z"/>
	<path fill="#B4D9DC" d="M159.5,143.7c0.7-0.3,1.3-0.4,2-0.3c0.7,0.1,1.4,0.4,2,0.9l3.1,2.5c0.6,0.5,1.1,1.1,1.3,1.7
		c0.3,0.7,0.3,1.3,0.2,2c-0.1,0.7-0.5,1.4-1,2c-0.5,0.7-1.1,1.1-1.8,1.4c-0.7,0.3-1.3,0.4-2,0.3c-0.7-0.1-1.4-0.4-2-0.9l-3.1-2.5
		c-0.6-0.5-1.1-1.1-1.3-1.7c-0.3-0.7-0.3-1.3-0.2-2c0.1-0.7,0.5-1.4,1-2C158.3,144.5,158.9,144,159.5,143.7z M158.3,147.9
		c0.1,0.7,0.4,1.2,1,1.7l3.2,2.6c0.6,0.5,1.3,0.7,1.9,0.6s1.2-0.4,1.7-1c0.5-0.6,0.7-1.2,0.6-1.9c-0.1-0.7-0.4-1.2-1-1.7l-3.2-2.6
		c-0.6-0.5-1.2-0.7-1.9-0.6c-0.7,0.1-1.2,0.4-1.7,1C158.4,146.6,158.2,147.2,158.3,147.9z"/>
	<path fill="#B4D9DC" d="M145.5,165.3c-1.3,0.3-2.3-0.1-3.1-1.2c-0.6-0.8-0.8-1.7-0.6-2.5c0.2-0.9,0.8-1.6,1.6-2.3l3.4-2.5
		c0.1-0.1,0.2-0.1,0.2,0l6.9,9.2c0.1,0.1,0.1,0.2,0,0.2l-3.2,2.5c-0.9,0.7-1.8,1-2.7,1c-0.8,0-1.6-0.5-2.2-1.3
		C145,167.5,144.9,166.5,145.5,165.3C145.5,165.4,145.5,165.3,145.5,165.3z M143.3,161.8c-0.1,0.5,0.1,1,0.4,1.5
		c0.4,0.5,0.8,0.8,1.3,0.8c0.5,0.1,1-0.1,1.6-0.5l2.1-1.6c0,0,0-0.1,0-0.1l-2.3-3c0,0-0.1,0-0.1,0l-2.1,1.6
		C143.7,160.9,143.4,161.3,143.3,161.8z M151.8,165.9l-2.2-2.8c0,0-0.1,0-0.1,0l-2,1.5c-0.5,0.4-0.8,0.8-0.9,1.3
		c-0.1,0.5,0,1,0.4,1.4c0.3,0.5,0.8,0.7,1.3,0.7c0.5,0,1-0.1,1.5-0.5L151.8,165.9C151.8,166,151.8,166,151.8,165.9z"/>
	<path fill="#B4D9DC" d="M134.5,165.5c0.7,0,1.4,0.2,2,0.6c0.6,0.4,1.1,0.9,1.5,1.6l1.9,3.6c0.4,0.7,0.5,1.4,0.5,2.1
		c0,0.7-0.2,1.3-0.6,1.9c-0.4,0.6-1,1.1-1.7,1.5c-0.7,0.4-1.5,0.6-2.2,0.6c-0.7,0-1.4-0.2-2-0.6c-0.6-0.4-1.1-0.9-1.4-1.6l-1.9-3.6
		c-0.4-0.7-0.5-1.4-0.5-2.1c0-0.7,0.2-1.4,0.6-1.9c0.4-0.6,1-1.1,1.7-1.5C133.1,165.7,133.8,165.5,134.5,165.5z M131.7,168.8
		c-0.2,0.6-0.1,1.3,0.2,2l1.9,3.6c0.4,0.7,0.9,1.1,1.5,1.4c0.6,0.2,1.3,0.1,2-0.2s1.1-0.9,1.3-1.5c0.2-0.6,0.1-1.3-0.3-2l-1.9-3.6
		c-0.4-0.7-0.9-1.1-1.5-1.3c-0.6-0.2-1.3-0.1-2,0.2C132.4,167.7,131.9,168.2,131.7,168.8z"/>
	<path fill="#B4D9DC" d="M120.3,183.7l-0.3-1c0-0.1,0-0.2,0.1-0.2l3.1-1c0,0,0.1,0,0-0.1l-3.2-9.6c0-0.1,0-0.2,0.1-0.2l1.2-0.4
		c0.1,0,0.2,0,0.2,0.1l3.2,9.6c0,0,0,0.1,0.1,0l2.9-1c0.1,0,0.2,0,0.2,0.1l0.3,1c0,0.1,0,0.2-0.1,0.2l-7.7,2.6
		C120.4,183.8,120.4,183.8,120.3,183.7z"/>
	<path fill="#B4D9DC" d="M105.7,186.6l-0.2-1.1c0-0.1,0-0.2,0.1-0.2l3.2-0.5c0,0,0.1,0,0.1-0.1l-1.6-10c0-0.1,0-0.2,0.1-0.2l1.3-0.2
		c0.1,0,0.2,0,0.2,0.1l1.6,10c0,0,0,0.1,0.1,0.1l3.1-0.5c0.1,0,0.2,0,0.2,0.1l0.2,1.1c0,0.1,0,0.2-0.1,0.2l-8,1.3
		C105.8,186.8,105.8,186.7,105.7,186.6z"/>
	<path fill="#B4D9DC" d="M98.9,175.6l0.1,11.5c0,0.1-0.1,0.2-0.2,0.2l-1.3,0c-0.1,0-0.2-0.1-0.2-0.2l-0.1-10.2c0,0,0-0.1-0.1-0.1
		l-5.8,0c-0.1,0-0.2-0.1-0.2-0.2l0-1.1c0-0.1,0.1-0.2,0.2-0.2l7.4,0C98.9,175.5,98.9,175.5,98.9,175.6z"/>
	<path fill="#B4D9DC" d="M77.1,184.2l5.9,0.9c0,0,0.1,0,0.1-0.1l0.6-3.6c0,0,0-0.1-0.1-0.1l-4.1-0.6c-0.1,0-0.2-0.1-0.1-0.2l0.2-1.1
		c0-0.1,0.1-0.2,0.2-0.1l4.1,0.6c0,0,0.1,0,0.1-0.1l0.6-3.7c0,0,0-0.1-0.1-0.1l-5.9-0.9c-0.1,0-0.2-0.1-0.1-0.2l0.2-1.1
		c0-0.1,0.1-0.2,0.2-0.1l7.4,1.2c0.1,0,0.2,0.1,0.1,0.2l-1.8,11.4c0,0.1-0.1,0.2-0.2,0.1l-7.4-1.2c-0.1,0-0.2-0.1-0.1-0.2l0.2-1.1
		C76.9,184.2,77,184.2,77.1,184.2z"/>
	<path fill="#B4D9DC" d="M66.4,173.6c0.2,0.5,0.2,1,0,1.6c-0.2,0.5-0.6,0.9-1.1,1.1c-0.5,0.2-1,0.2-1.6,0c-0.5-0.2-0.9-0.6-1.1-1.1
		c-0.2-0.5-0.2-1,0-1.5c0.2-0.5,0.6-0.9,1.1-1.1c0.5-0.2,1-0.2,1.6,0C65.8,172.7,66.2,173.1,66.4,173.6z"/>
</g>
</svg>
