<svg xmlns="http://www.w3.org/2000/svg" width="37.675" height="37.688" viewBox="0 0 37.675 37.688">
  <title>Asset 1</title>
  <g id="Layer_2" data-name="Layer 2">
    <g id="Layer_1-2" data-name="Layer 1">
      <g>
        <path d="M21,18.854q0,8.746,0,17.495a1.527,1.527,0,0,1-.258.938A1.159,1.159,0,0,1,19.1,37.4c-.424-.415-.863-.815-1.294-1.224q-1.866-1.77-3.731-3.54-1.614-1.527-3.233-3.049c-.789-.743-1.58-1.483-2.367-2.229a.42.42,0,0,0-.321-.1h-5.7c-.466,0-.931.006-1.4,0a1.08,1.08,0,0,1-.985-.623A.779.779,0,0,1,0,26.265q0-1.01,0-2.021,0-6.34,0-12.68a1.029,1.029,0,0,1,.8-1.105,1.038,1.038,0,0,1,.328-.029q3.5,0,7,0a.561.561,0,0,0,.421-.172q1.7-1.617,3.4-3.22,1.314-1.244,2.63-2.485,2.01-1.9,4.019-3.8a6.667,6.667,0,0,1,.615-.551,1.1,1.1,0,0,1,1.73.677A3.237,3.237,0,0,1,21,1.432q0,8.711,0,17.422m-2.219,15.2V3.639c-.111.093-.2.16-.275.233q-1.323,1.247-2.645,2.5t-2.643,2.5q-1.788,1.692-3.574,3.384a1.328,1.328,0,0,1-.96.386c-2.076,0-4.153,0-6.229,0-.274,0-.275,0-.275.277V24.782c0,.278,0,.279.274.279q3.114,0,6.229,0a1.3,1.3,0,0,1,.932.361q1.368,1.293,2.737,2.586,1.843,1.739,3.69,3.475c.81.765,1.615,1.536,2.423,2.3.092.087.191.166.316.274" style="fill: #283337"/>
        <path d="M37.669,19.056a10.14,10.14,0,0,1-.065,1.549,14.449,14.449,0,0,1-.266,1.5A15.52,15.52,0,0,1,36.772,24a14.2,14.2,0,0,1-1.7,3.225,14.383,14.383,0,0,1-2.4,2.668,17.2,17.2,0,0,1-1.787,1.348,1.08,1.08,0,0,1-1.673-.53,1.063,1.063,0,0,1,.5-1.329,14.873,14.873,0,0,0,1.5-1.121,13.135,13.135,0,0,0,1.858-2A12.245,12.245,0,0,0,34.6,23.541a13.638,13.638,0,0,0,.683-2.317,12.913,12.913,0,0,0,.2-3.287,10.736,10.736,0,0,0-.33-2.077,12.5,12.5,0,0,0-1.128-2.938,12.039,12.039,0,0,0-1.523-2.2,12.9,12.9,0,0,0-2.781-2.4,1.1,1.1,0,0,1-.458-1.435,1.086,1.086,0,0,1,1.585-.456,16.678,16.678,0,0,1,1.975,1.5,13.26,13.26,0,0,1,1.494,1.541A14.592,14.592,0,0,1,36.444,12.9a14.972,14.972,0,0,1,.776,2.194c.144.548.244,1.106.333,1.668a15.738,15.738,0,0,1,.116,2.3" style="fill: #283337"/>
        <path d="M26.141,24.1a1.058,1.058,0,0,1-1.033-.676,1.1,1.1,0,0,1,.248-1.168,7.007,7.007,0,0,0,.925-.914,3.974,3.974,0,0,0,.832-2.157,4.13,4.13,0,0,0-.335-2.019,4.19,4.19,0,0,0-1.185-1.522,1.423,1.423,0,0,1-.492-.6,1.084,1.084,0,0,1,.94-1.46,1.322,1.322,0,0,1,.915.345,6.944,6.944,0,0,1,1.252,1.334,6.176,6.176,0,0,1,.806,1.6,6.332,6.332,0,0,1,.049,3.821,6.444,6.444,0,0,1-.612,1.37,6.1,6.1,0,0,1-1.379,1.607,2.417,2.417,0,0,1-.44.327.879.879,0,0,1-.491.116" style="fill: #283337"/>
      </g>
    </g>
  </g>
</svg>
