<svg id="Layer_1" data-name="Layer 1" xmlns="http://www.w3.org/2000/svg" viewBox="0 0 63.157 103.229"><title>text</title><path d="M58.117,59.993A47.31,47.31,0,0,0,46.845,48.858q-6.051-4.242-12.091-8.3a42.212,42.212,0,0,1-9.271-8.333,13.005,13.005,0,0,1-3.235-8.418c0-3.06,0-9.428,14.282-9.428A43.047,43.047,0,0,1,53.356,18l3.988,1.693L62.966,6.82,59.1,5.012A54.279,54.279,0,0,0,35.96,0C27.35,0,20.329,2.1,15.092,6.249,9.533,10.642,6.716,16.635,6.716,24.064a26.424,26.424,0,0,0,5.01,15.429A48.285,48.285,0,0,0,22.971,50.882q6.052,4.37,12.094,8.552a44.9,44.9,0,0,1,9.323,8.5,12.7,12.7,0,0,1,3.232,8.161c0,4.177-1.312,7.105-4.125,9.217-3.13,2.346-7.925,3.535-14.251,3.535a31.606,31.606,0,0,1-17.8-5.3L7.811,81.177,0,92.9l3.415,2.469c7.207,5.217,15.964,7.863,26.022,7.863,10.1,0,18.24-2.3,24.195-6.839,6.32-4.819,9.525-11.9,9.525-21.062a25.875,25.875,0,0,0-5.04-15.335" style="fill:#b7dcdf"/></svg>