<?xml version="1.0" encoding="utf-8"?>
<!-- Generator: Adobe Illustrator 22.0.1, SVG Export Plug-In . SVG Version: 6.00 Build 0)  -->
<svg version="1.1" id="Layer_1" xmlns="http://www.w3.org/2000/svg" xmlns:xlink="http://www.w3.org/1999/xlink" x="0px" y="0px"
	 viewBox="0 0 666.1 736.4" style="enable-background:new 0 0 666.1 736.4;" xml:space="preserve">
<style type="text/css">
	.st0{fill:#FFFFFF;}
</style>
<path class="st0" d="M0,0l2.8,736.4h663.3V0H0z M413.6,524.6l-0.1,2.6v0.4c0,1.1,0.1,2.1,0.1,3.2c0,42.1-34.2,76.3-76.3,76.3
	S261,572.9,261,530.8c0-1.1,0-2.1,0.1-3.2v-0.4l-0.1-2.6v-203l0.1-2.7l0.2-2.6l0.3-2.6l0.4-2.6l0.5-2.6l0.6-2.6l0.7-2.6l0.8-2.5
	l0.9-2.5l1-2.5l1.1-2.4l1.2-2.4l1.3-2.3l1.4-2.3l1.5-2.2l1.6-2.1l1.7-2.1l1.8-2l1.8-1.9l1.9-1.8l2-1.8l2.1-1.7l2.1-1.6l2.2-1.5
	l2.2-1.4l2.3-1.3l2.4-1.2l2.4-1.1l2.4-1l2.5-0.9l0.9-0.4l0.9-0.5l0.8-0.6l0.7-0.7l0.6-0.8l0.5-0.9l0.4-0.9l0.3-1l0.2-1l0.1-1v-71.6
	l-0.3-29v-8.1c0-3.7,3-6.7,6.7-6.7h42.1c3.7,0,6.7,3,6.7,6.7v8.1l-0.3,29V253l0.1,1l0.2,1l0.3,1l0.4,0.9l0.5,0.9l0.6,0.8l0.7,0.7
	l0.8,0.6l0.9,0.5l0.9,0.4l2.5,0.9l2.4,1l2.4,1.1l2.4,1.2l2.3,1.3l2.2,1.4l2.2,1.5l2.1,1.6l2.1,1.7l2,1.8l1.9,1.8l1.8,1.9l1.8,2
	l1.7,2.1l1.6,2.1l1.5,2.2l1.4,2.3l1.3,2.3l1.2,2.4l1.1,2.4l1,2.5l0.9,2.5l0.8,2.5l0.7,2.6l0.6,2.6l0.5,2.6l0.4,2.6l0.3,2.6l0.2,2.6
	l0.1,2.7L413.6,524.6L413.6,524.6z"/>
</svg>
