<?xml version="1.0" encoding="utf-8"?>
<!-- Generator: Adobe Illustrator 27.8.0, SVG Export Plug-In . SVG Version: 6.00 Build 0)  -->
<svg version="1.0" id="Layer_1" xmlns="http://www.w3.org/2000/svg" xmlns:xlink="http://www.w3.org/1999/xlink" x="0px" y="0px"
	 viewBox="0 0 115.5 328.6" enable-background="new 0 0 115.5 328.6" xml:space="preserve">
<path d="M37.9,0.1c-1.5,0-2.8,1.3-2.8,2.8v20.6l0,0.2l0,0.2l0.1,0.2l0.1,0.2l0.1,0.2l0.2,0.1l0.2,0.1l0.2,0.1h0h0.1h0.2h0.3h0.2V79
	l0,0.8l-0.1,0.8l-0.2,0.7L36.2,82l-0.4,0.7l-0.5,0.6l-0.6,0.5l-0.6,0.5l-0.7,0.4l-0.7,0.3l-1.9,0.7L29,86.4l-1.8,0.9l-1.8,0.9
	l-1.7,1L22,90.2l-1.7,1.1l-1.6,1.2l-1.6,1.3l-1.5,1.3l-1.4,1.4L12.8,98l-1.3,1.5l-1.3,1.6L9,102.7l-1.1,1.7l-1.1,1.7l-1,1.7
	l-0.9,1.8l-0.8,1.8l-0.8,1.9l-0.7,1.9L2,117.1L1.5,119L1,121l-0.4,2l-0.3,2l-0.2,2L0,129l0,2v153.7l0,2l0.1,2l0.2,2l0.3,2l0.4,2
	l0.4,2l0.5,1.9l0.6,1.9l0.7,1.9l0.8,1.9l0.8,1.8l0.9,1.8l1,1.7l1.1,1.7l1.1,1.7l1.2,1.6l1.3,1.6l1.3,1.5l1.4,1.5l1.4,1.4l1.5,1.3
	l1.6,1.3l0.2,0.2l0.2,0.2l0.1,0.2l0.1,0.2l0.1,0.2l0.1,0.2l0,0.2l0,0.2v0.9l0,0.5l0.1,0.5l0.2,0.5l0.3,0.4l0.4,0.4l0.4,0.3l0.5,0.2
	l0.5,0.1l0.5,0h0h0.1h0.2h0.3h0.4H24h0.5h0.6h0.7h0.8h0.8h0.9h1h1h1.1h1.2h1.2H35h1.3h1.4h1.4h1.5h1.5h1.5h1.6h1.6h1.6h1.7h1.7h1.7
	h1.7h1.7h1.7h1.7H62h1.7h1.7H67h1.6h1.6h1.6h1.5h1.5h1.5h1.4h1.4h1.3h1.3H83h1.2h1.1h1h1h0.9H89h0.8h0.7H91h0.5H92h0.4h0.3h0.2H93h0
	l0.5,0l0.5-0.1l0.5-0.2l0.4-0.3l0.4-0.4l0.3-0.4l0.2-0.5l0.1-0.5l0-0.5v-0.9l0-0.2l0-0.2l0.1-0.2l0.1-0.2l0.1-0.2l0.1-0.2l0.2-0.2
	l0.2-0.2l1.6-1.3l1.5-1.3l1.4-1.4l1.4-1.5l1.3-1.5l1.3-1.6l1.2-1.6l1.1-1.7l1.1-1.7l1-1.7l0.9-1.8l0.8-1.8l0.8-1.9l0.7-1.9l0.6-1.9
	l0.5-1.9l0.4-2l0.4-2l0.3-2l0.2-2l0.1-2l0-2V131l0-2l-0.1-2l-0.2-2l-0.3-2l-0.4-2l-0.5-2l-0.5-1.9l-0.6-1.9l-0.7-1.9l-0.8-1.9
	l-0.8-1.8l-0.9-1.8l-1-1.7l-1.1-1.7l-1.1-1.7l-1.2-1.6l-1.3-1.6l-1.3-1.5l-1.4-1.5l-1.4-1.4l-1.5-1.3l-1.6-1.3l-1.6-1.2l-1.7-1.1
	l-1.7-1.1l-1.7-1l-1.8-0.9l-1.8-0.9l-1.9-0.8l-1.9-0.7l-0.7-0.3l-0.7-0.4l-0.6-0.5l-0.6-0.5l-0.5-0.6L79.3,82L79,81.3l-0.2-0.7
	l-0.1-0.8l0-0.8V24.8h0.2h0.3h0.2h0.1h0l0.2-0.1l0.2-0.1l0.2-0.1l0.1-0.2l0.1-0.2l0.1-0.2l0-0.2l0-0.2V2.8c0-1.6-1.3-2.8-2.8-2.8
	L37.9,0.1z"/>
</svg>
