<?xml version="1.0" encoding="utf-8"?>
<!-- Generator: Adobe Illustrator 22.0.1, SVG Export Plug-In . SVG Version: 6.00 Build 0)  -->
<svg version="1.1" id="Layer_1" xmlns="http://www.w3.org/2000/svg" xmlns:xlink="http://www.w3.org/1999/xlink" x="0px" y="0px"
	 viewBox="0 0 318 796" style="enable-background:new 0 0 318 796;" xml:space="preserve">
<style type="text/css">
	.st0{fill:#FFFFFF;}
</style>
<path class="st0" d="M26.6,663.6c0-1.9,0.1-3.7,0.1-5.6v-0.8l-0.1-4.6V300.3l0.1-4.6l0.3-4.6l0.5-4.6l0.7-4.6l0.8-4.5l1-4.5l1.2-4.4
	l1.4-4.4l1.6-4.3l1.8-4.3l1.9-4.2l2.1-4.1l2.3-4l2.4-3.9l2.6-3.8l2.7-3.7l2.9-3.6l3-3.5l3.2-3.3l3.3-3.2l3.4-3.1l3.6-2.9l3.7-2.8
	l3.8-2.6l3.9-2.5l4-2.3l4.1-2.1l4.2-2l4.2-1.8l4.3-1.6l1.6-0.7l1.5-0.9l1.4-1.1l1.3-1.2l1.1-1.4l0.9-1.5l0.7-1.6l0.5-1.7l0.3-1.7
	l0.1-1.8V56.8l-0.5-50.1c0-3.6,2.9-6.4,6.4-6.4L200.7,0H0v796h159C85.9,796,26.6,736.7,26.6,663.6z M200.7,0c3.6,0,6.5,2.9,6.5,6.4
	l-0.4,50.3v124.4l0.1,1.8l0.3,1.7l0.5,1.7l0.7,1.6l0.9,1.5l1.1,1.4l1.3,1.2l1.4,1.1l1.5,0.9l1.6,0.7l4.3,1.6l4.2,1.8l4.2,2l4.1,2.1
	l4,2.3l3.9,2.5l3.8,2.6l3.7,2.8l3.6,2.9l3.4,3.1l3.3,3.2l3.2,3.3l3,3.5l2.9,3.6l2.7,3.7l2.6,3.8l2.4,3.9l2.3,4l2.1,4.1l1.9,4.2
	l1.8,4.3l1.6,4.3l1.4,4.4l1.2,4.4l1,4.5l0.8,4.5l0.7,4.6l0.5,4.6l0.3,4.6l0.1,4.6v352.4l-0.1,4.6v0.8c0.1,1.8,0.1,3.7,0.1,5.6
	c0,73.1-59.3,132.4-132.4,132.4h159V0H200.7z"/>
</svg>
