<?xml version="1.0" encoding="utf-8"?>
<!-- Generator: Adobe Illustrator 27.9.0, SVG Export Plug-In . SVG Version: 6.00 Build 0)  -->
<svg version="1.1" id="Layer_1" xmlns="http://www.w3.org/2000/svg" xmlns:xlink="http://www.w3.org/1999/xlink" x="0px" y="0px"
	 viewBox="0 0 191 191" enable-background="new 0 0 191 191" xml:space="preserve">
<g>
	<path fill="#283337" d="M116,137.4l0.3-55.3l0-0.7l0-0.7l-0.1-0.7l-0.1-0.7l-0.1-0.7l-0.2-0.7l-0.2-0.7l-0.2-0.7l-0.2-0.7l-0.3-0.7
		l-0.3-0.7l-0.3-0.6l-0.4-0.6l-0.4-0.6l-0.4-0.6l-0.4-0.6l-0.5-0.6l-0.5-0.5l-0.5-0.5l-0.5-0.5l-0.5-0.5l-0.6-0.5l-0.6-0.4l-0.6-0.4
		l-0.6-0.4l-0.6-0.4l-0.6-0.3L106,66l-0.7-0.3l-0.7-0.3l-0.3-0.1l-0.2-0.1l-0.2-0.2l-0.2-0.2l-0.2-0.2l-0.1-0.2l-0.1-0.3l-0.1-0.3
		l0-0.3l0-0.3l0.1-19.5l0.1-7.9c0-0.6-0.4-1-1-1l-13.1,0c-0.6,0-1,0.4-1,1l0,7.9l-0.1,19.5l0,0.3l-0.1,0.3L88,64.1l-0.1,0.3
		l-0.1,0.2l-0.2,0.2L87.3,65l-0.2,0.2l-0.2,0.1l-0.3,0.1l-0.7,0.2l-0.7,0.3l-0.7,0.3L84,66.6l-0.6,0.4l-0.6,0.4l-0.6,0.4l-0.6,0.4
		L81,68.6l-0.5,0.5l-0.5,0.5l-0.5,0.5l-0.5,0.5l-0.5,0.6L78,71.8l-0.4,0.6L77.2,73l-0.4,0.6l-0.3,0.6l-0.3,0.7L76,75.6l-0.3,0.7
		l-0.2,0.7l-0.2,0.7l-0.2,0.7L75,79l-0.1,0.7l-0.1,0.7l0,0.7l0,0.7l-0.3,55.3l0,0.7l0,0.1c0,0.3,0,0.6,0,0.9
		c-0.1,11.5,9.2,20.8,20.7,20.9c11.5,0.1,20.8-9.2,20.9-20.7c0-0.3,0-0.6,0-0.9l0-0.1L116,137.4z"/>
	<g>
		<g>
			<path fill="#B4D9DC" d="M6.9,65.5c0,0.1,0,0.1,0,0.2l-1.6,5.5c0,0.1,0,0.1,0.1,0.1L8,72c0.1,0,0.1,0,0.1-0.1l1-3.6
				c0-0.1,0-0.1,0.1-0.1c0.1,0,0.1,0,0.2,0l1.6,0.5c0.1,0,0.1,0,0.1,0.1c0,0,0,0.1,0,0.2l-1,3.6c0,0.1,0,0.1,0.1,0.1l4.6,1.3
				c0.1,0,0.1,0,0.1,0.1c0,0,0,0.1,0,0.2l-0.6,2c0,0.1,0,0.1-0.1,0.1c-0.1,0-0.1,0-0.2,0L2.8,73.1c-0.1,0-0.1,0-0.1-0.1
				c0-0.1,0-0.1,0-0.2L4.8,65c0-0.1,0-0.1,0.1-0.1c0,0,0.1,0,0.2,0l1.6,0.5C6.8,65.4,6.8,65.4,6.9,65.5z"/>
			<path fill="#B4D9DC" d="M20.6,58.6l-5.3,0c-0.1,0-0.1,0-0.1,0.1l-0.7,1.5c0,0.1,0,0.1,0,0.1l4.3,2c0.1,0,0.1,0.1,0.1,0.1
				c0,0.1,0,0.1,0,0.2l-0.9,1.9c0,0.1-0.1,0.1-0.1,0.1c-0.1,0-0.1,0-0.2,0l-10.7-5c-0.1,0-0.1-0.1-0.1-0.1c0-0.1,0-0.1,0-0.2
				l2.1-4.5c0.3-0.7,0.7-1.2,1.2-1.6c0.5-0.4,1.1-0.6,1.7-0.6c0.6,0,1.3,0.1,2,0.4c0.7,0.3,1.3,0.8,1.6,1.4c0.3,0.6,0.5,1.3,0.4,2
				c0,0.1,0,0.1,0.1,0.1l5.5-0.1c0.1,0,0.1,0,0.1,0c0.1,0,0.1,0.1,0,0.2l-0.9,2C20.8,58.6,20.7,58.6,20.6,58.6z M10,58.1l2.7,1.3
				c0.1,0,0.1,0,0.1,0l1-2.1c0.2-0.4,0.2-0.9,0.1-1.3c-0.1-0.4-0.4-0.7-0.8-0.9c-0.4-0.2-0.8-0.2-1.2-0.1c-0.4,0.2-0.7,0.5-0.9,0.9
				l-1,2.1C9.9,58.1,9.9,58.1,10,58.1z"/>
			<path fill="#B4D9DC" d="M24.7,50.9c-0.7,0.4-1.4,0.5-2.2,0.5c-0.8-0.1-1.5-0.3-2.2-0.8l-3.1-2.1c-0.7-0.5-1.2-1.1-1.6-1.8
				c-0.3-0.7-0.5-1.4-0.4-2.2c0.1-0.8,0.4-1.5,0.9-2.3c0.5-0.8,1.1-1.3,1.8-1.7c0.7-0.4,1.4-0.5,2.2-0.5c0.8,0.1,1.5,0.3,2.2,0.8
				l3.1,2.1c0.7,0.5,1.3,1.1,1.6,1.8c0.3,0.7,0.5,1.4,0.4,2.2c-0.1,0.8-0.4,1.6-0.9,2.3C26,50,25.4,50.6,24.7,50.9z M25.1,46.4
				c-0.1-0.6-0.5-1-1-1.4l-3.2-2.1c-0.6-0.4-1.1-0.5-1.7-0.4c-0.6,0.1-1,0.4-1.4,1c-0.4,0.5-0.5,1.1-0.3,1.6c0.1,0.6,0.5,1,1,1.4
				l3.2,2.1c0.6,0.4,1.1,0.5,1.7,0.4c0.6-0.1,1-0.4,1.4-0.9C25.1,47.5,25.2,47,25.1,46.4z"/>
			<path fill="#B4D9DC" d="M28.2,27.6l1.4-1.5c0,0,0.1-0.1,0.1-0.1c0.1,0,0.1,0,0.2,0.1l8.6,8.1c0,0,0.1,0.1,0.1,0.1
				c0,0.1,0,0.1-0.1,0.2l-1.4,1.5c0,0-0.1,0.1-0.1,0.1s-0.1,0-0.2-0.1l-5.6-5.3c0,0-0.1,0-0.1,0c0,0,0,0,0,0.1l0.8,3.3
				c0,0.1,0,0.2-0.1,0.3l-0.7,0.7c-0.1,0.1-0.2,0.1-0.3,0.1l-3.4-0.7c0,0-0.1,0-0.1,0c0,0,0,0,0,0.1l5.6,5.3c0,0,0.1,0.1,0.1,0.1
				c0,0.1,0,0.1-0.1,0.1l-1.4,1.5c0,0-0.1,0.1-0.1,0.1c-0.1,0-0.1,0-0.1-0.1l-8.6-8.1c0,0-0.1-0.1-0.1-0.1c0-0.1,0-0.1,0.1-0.2
				l1.4-1.5c0.1-0.1,0.2-0.1,0.3-0.1l4.8,0.9c0.1,0,0.1,0,0.1-0.1l-1.1-4.7C28.1,27.8,28.2,27.7,28.2,27.6z"/>
			<path fill="#B4D9DC" d="M48.5,14.6c0,0.1,0,0.1-0.1,0.1l-4.8,3.1c0,0-0.1,0.1,0,0.1l1.5,2.3c0,0,0.1,0.1,0.1,0l3.2-2
				c0,0,0.1,0,0.2,0c0.1,0,0.1,0,0.1,0.1l0.9,1.4c0,0,0,0.1,0,0.2s0,0.1-0.1,0.1l-3.2,2c0,0-0.1,0.1,0,0.1l2.6,4.1c0,0,0,0.1,0,0.2
				c0,0.1,0,0.1-0.1,0.1l-1.7,1.1c0,0-0.1,0-0.2,0c-0.1,0-0.1,0-0.1-0.1l-6.4-9.9c0,0,0-0.1,0-0.2c0-0.1,0-0.1,0.1-0.1l6.8-4.4
				c0,0,0.1,0,0.2,0c0.1,0,0.1,0,0.1,0.1l0.9,1.4C48.5,14.5,48.5,14.5,48.5,14.6z"/>
			<path fill="#B4D9DC" d="M63.2,18.5L62,17.2c0,0-0.1,0-0.1,0L58,19c0,0,0,0-0.1,0.1l0.3,1.8c0,0.1,0,0.2-0.1,0.3L56,22
				c-0.1,0-0.1,0-0.2,0c0,0-0.1-0.1-0.1-0.2L54.3,9.5c0-0.1,0-0.2,0.1-0.3l2.5-1.1c0.1,0,0.2,0,0.3,0.1l8.4,9.2c0,0,0,0,0.1,0.1
				c0,0.1,0,0.2-0.1,0.2l-2,0.9C63.4,18.7,63.3,18.6,63.2,18.5z M57.7,17l2.8-1.3c0.1,0,0.1-0.1,0-0.1L57,11.5c0,0-0.1,0-0.1,0
				c0,0,0,0,0,0.1l0.8,5.4C57.7,17,57.7,17,57.7,17z"/>
			<path fill="#B4D9DC" d="M75.7,14.5l-3.4-4.1c0,0-0.1-0.1-0.1,0l-1.6,0.4c-0.1,0-0.1,0.1-0.1,0.1l1.2,4.6c0,0.1,0,0.1,0,0.2
				c0,0.1-0.1,0.1-0.1,0.1l-2,0.5c-0.1,0-0.1,0-0.2,0c0,0-0.1-0.1-0.1-0.1L66.3,4.7c0-0.1,0-0.1,0-0.2c0,0,0.1-0.1,0.1-0.1l4.8-1.3
				c0.7-0.2,1.4-0.2,2-0.1c0.6,0.1,1.2,0.4,1.6,0.9c0.4,0.5,0.8,1,1,1.8c0.2,0.8,0.2,1.5,0,2.1c-0.2,0.6-0.7,1.2-1.3,1.6
				c0,0-0.1,0.1,0,0.1l3.6,4.2c0,0,0.1,0.1,0.1,0.1c0,0.1,0,0.2-0.1,0.2l-2.1,0.6C75.8,14.6,75.7,14.6,75.7,14.5z M69.2,6L70,8.9
				C70,8.9,70,9,70.1,8.9l2.2-0.6c0.5-0.1,0.8-0.4,1-0.7s0.3-0.8,0.1-1.2c-0.1-0.5-0.4-0.8-0.7-1c-0.4-0.2-0.8-0.2-1.3-0.1l-2.2,0.6
				C69.2,5.9,69.2,5.9,69.2,6z"/>
			<path fill="#B4D9DC" d="M89,0.2l2-0.2c0.1,0,0.1,0,0.2,0c0,0,0.1,0.1,0.1,0.1L92.5,12c0,0.1,0,0.1,0,0.2c0,0-0.1,0.1-0.1,0.1
				l-2,0.2c-0.1,0-0.1,0-0.2,0c0,0-0.1-0.1-0.1-0.1l-0.8-7.7c0,0,0-0.1,0-0.1c0,0,0,0-0.1,0.1l-1.6,3.1c0,0.1-0.1,0.2-0.2,0.2
				l-1,0.1c-0.1,0-0.2,0-0.3-0.1L83.9,5c0,0-0.1,0-0.1,0c0,0,0,0,0,0.1l0.8,7.7c0,0.1,0,0.1,0,0.2c0,0-0.1,0.1-0.1,0.1l-2,0.2
				c-0.1,0-0.1,0-0.2,0c0,0-0.1-0.1-0.1-0.1L81,1.2c0-0.1,0-0.1,0-0.2c0,0,0.1-0.1,0.1-0.1l2-0.2c0.1,0,0.2,0,0.3,0.1l3,3.8
				c0,0.1,0.1,0.1,0.1,0l2.2-4.3C88.8,0.3,88.9,0.2,89,0.2z"/>
			<path fill="#B4D9DC" d="M113.4,1.7c0,0,0,0.1,0,0.2l-0.2,1.7c0,0.1,0,0.1-0.1,0.1c0,0-0.1,0-0.2,0l-3.1-0.4c-0.1,0-0.1,0-0.1,0.1
				l-1.4,9.7c0,0.1,0,0.1-0.1,0.1c0,0-0.1,0-0.2,0l-2-0.3c-0.1,0-0.1,0-0.1-0.1c0,0,0-0.1,0-0.2l1.4-9.7c0-0.1,0-0.1-0.1-0.1l-3-0.4
				c-0.1,0-0.1,0-0.1-0.1c0,0,0-0.1,0-0.2l0.2-1.7c0-0.1,0-0.1,0.1-0.1c0,0,0.1,0,0.2,0l8.7,1.2C113.3,1.6,113.4,1.6,113.4,1.7z"/>
			<path fill="#B4D9DC" d="M117.5,14.8c-0.6-0.6-0.9-1.2-1.1-2c-0.2-0.8-0.1-1.5,0.1-2.4l1.1-3.6c0.3-0.8,0.7-1.5,1.2-2
				c0.6-0.5,1.2-0.9,2-1c0.8-0.1,1.6-0.1,2.5,0.2c0.9,0.3,1.6,0.7,2.2,1.2c0.6,0.6,0.9,1.2,1.1,2c0.2,0.7,0.1,1.5-0.1,2.4l-1.1,3.6
				c-0.3,0.8-0.7,1.5-1.2,2.1c-0.6,0.5-1.2,0.9-2,1c-0.8,0.1-1.6,0.1-2.5-0.2C118.8,15.8,118.1,15.4,117.5,14.8z M122,13.9
				c0.5-0.3,0.8-0.7,1-1.4l1.1-3.7c0.2-0.6,0.2-1.2-0.1-1.7c-0.3-0.5-0.7-0.9-1.3-1c-0.6-0.2-1.2-0.1-1.7,0.1
				c-0.5,0.3-0.8,0.7-1,1.4l-1.1,3.7c-0.2,0.6-0.2,1.2,0.1,1.7c0.3,0.5,0.7,0.8,1.3,1C120.9,14.2,121.5,14.2,122,13.9z"/>
			<path fill="#B4D9DC" d="M143.2,19.7c0.7,1.1,0.7,2.2,0,3.3c-0.6,1-1.3,1.5-2.3,1.6c-1,0.1-2-0.2-3-0.8l-3.9-2.3
				c0,0-0.1-0.1-0.1-0.1c0-0.1,0-0.1,0-0.2l6-10.2c0,0,0.1-0.1,0.1-0.1c0.1,0,0.1,0,0.2,0l3.8,2.2c2.4,1.4,3,3.1,1.9,5
				C145.2,19.3,144.3,19.7,143.2,19.7C143.1,19.6,143.1,19.7,143.2,19.7z M140.2,22.3c0.4-0.1,0.7-0.3,1-0.7
				c0.2-0.4,0.3-0.8,0.2-1.2c-0.1-0.4-0.4-0.7-0.9-1l-1.9-1.1c0,0-0.1,0-0.1,0l-1.5,2.5c0,0.1,0,0.1,0,0.1l1.9,1.1
				C139.4,22.3,139.8,22.4,140.2,22.3z M140.9,14.1l-1.4,2.4c0,0.1,0,0.1,0,0.1l1.8,1c0.5,0.3,0.9,0.4,1.3,0.3
				c0.4-0.1,0.7-0.3,0.9-0.7c0.2-0.4,0.3-0.8,0.2-1.2c-0.1-0.4-0.4-0.7-0.9-1l-1.8-1C141,14,141,14,140.9,14.1z"/>
			<path fill="#B4D9DC" d="M146.7,29.4c-0.3-0.7-0.4-1.5-0.3-2.2c0.1-0.8,0.5-1.5,1-2.2l2.4-2.9c0.5-0.7,1.2-1.1,1.9-1.4
				c0.7-0.3,1.5-0.3,2.2-0.2c0.8,0.2,1.5,0.5,2.2,1.1c0.7,0.6,1.2,1.2,1.5,2c0.3,0.7,0.4,1.5,0.3,2.2c-0.1,0.8-0.5,1.5-1,2.1
				l-2.4,2.9c-0.6,0.7-1.2,1.2-1.9,1.4c-0.7,0.3-1.5,0.3-2.2,0.2c-0.8-0.2-1.5-0.5-2.2-1.1C147.5,30.8,147,30.1,146.7,29.4z
				 M151.1,30.3c0.6-0.1,1.1-0.4,1.5-0.9l2.4-3c0.4-0.5,0.6-1.1,0.6-1.6c0-0.6-0.3-1.1-0.8-1.5c-0.5-0.4-1-0.6-1.6-0.5
				c-0.6,0.1-1.1,0.4-1.5,0.9l-2.4,3c-0.4,0.5-0.6,1.1-0.6,1.6c0,0.6,0.3,1,0.8,1.5C150,30.1,150.5,30.3,151.1,30.3z"/>
			<path fill="#B4D9DC" d="M169.7,35.4c0,0.1,0,0.1-0.1,0.1l-1.3,1.1c0,0-0.1,0.1-0.2,0.1c-0.1,0-0.1,0-0.1-0.1l-2.1-2.3
				c0,0-0.1,0-0.1,0l-7.3,6.5c0,0-0.1,0.1-0.2,0.1c-0.1,0-0.1,0-0.1-0.1l-1.4-1.5c0,0-0.1-0.1-0.1-0.2c0-0.1,0-0.1,0.1-0.1l7.3-6.5
				c0,0,0-0.1,0-0.1l-2-2.3c0,0-0.1-0.1-0.1-0.2c0-0.1,0-0.1,0.1-0.1l1.3-1.1c0,0,0.1-0.1,0.2-0.1c0.1,0,0.1,0,0.1,0.1l5.9,6.6
				C169.7,35.3,169.7,35.4,169.7,35.4z"/>
			<path fill="#B4D9DC" d="M178.1,47.7c0,0.1,0,0.1-0.1,0.1l-1.4,0.9c0,0-0.1,0-0.2,0s-0.1,0-0.1-0.1l-1.7-2.6c0,0-0.1-0.1-0.1,0
				l-8.2,5.3c0,0-0.1,0-0.2,0c-0.1,0-0.1,0-0.1-0.1l-1.1-1.7c0,0,0-0.1,0-0.2c0-0.1,0-0.1,0.1-0.1l8.2-5.3c0,0,0.1-0.1,0-0.1
				l-1.6-2.6c0,0,0-0.1,0-0.2c0-0.1,0-0.1,0.1-0.1L173,40c0,0,0.1,0,0.2,0s0.1,0,0.1,0.1l4.8,7.4C178.1,47.6,178.1,47.6,178.1,47.7z
				"/>
			<path fill="#B4D9DC" d="M169.9,57.9c0-0.1,0.1-0.1,0.1-0.1l10.8-4.8c0.1,0,0.1,0,0.2,0c0.1,0,0.1,0.1,0.1,0.1l0.8,1.9
				c0,0.1,0,0.1,0,0.2c0,0.1-0.1,0.1-0.1,0.1l-9,4c-0.1,0-0.1,0.1,0,0.1l2.3,5.2c0,0.1,0,0.1,0,0.2c0,0.1-0.1,0.1-0.1,0.1l-1.5,0.7
				c-0.1,0-0.1,0-0.2,0c-0.1,0-0.1-0.1-0.1-0.1l-3.3-7.4C169.9,58,169.9,58,169.9,57.9z"/>
			<path fill="#B4D9DC" d="M186.6,74.8c-0.1,0-0.1-0.1-0.1-0.1l-1.5-5.5c0-0.1-0.1-0.1-0.1-0.1l-2.6,0.7c-0.1,0-0.1,0.1-0.1,0.1
				l1,3.6c0,0.1,0,0.1,0,0.2c0,0-0.1,0.1-0.1,0.1l-1.6,0.5c-0.1,0-0.1,0-0.2,0c-0.1,0-0.1-0.1-0.1-0.1l-1-3.6c0-0.1-0.1-0.1-0.1-0.1
				l-2.7,0.8c-0.1,0-0.1,0.1-0.1,0.1l1.5,5.5c0,0.1,0,0.1,0,0.2c0,0-0.1,0.1-0.1,0.1l-1.6,0.5c-0.1,0-0.1,0-0.2,0
				c-0.1,0-0.1-0.1-0.1-0.1l-2.1-7.8c0-0.1,0-0.1,0-0.2c0-0.1,0.1-0.1,0.1-0.1l11.4-3.1c0.1,0,0.1,0,0.2,0c0,0,0.1,0.1,0.1,0.1
				l2.1,7.8c0,0.1,0,0.1,0,0.2c0,0-0.1,0.1-0.1,0.1l-1.6,0.5C186.7,74.9,186.7,74.9,186.6,74.8z"/>
			<path fill="#B4D9DC" d="M181.5,94.6c0.2-0.3,0.5-0.6,0.8-0.8c0.4-0.2,0.7-0.3,1.1-0.3c0.4,0,0.8,0.1,1.1,0.3
				c0.3,0.2,0.6,0.5,0.8,0.8c0.2,0.4,0.3,0.7,0.3,1.1c0,0.4-0.1,0.8-0.3,1.1c-0.2,0.3-0.5,0.6-0.8,0.8c-0.4,0.2-0.7,0.3-1.1,0.3
				c-0.4,0-0.8-0.1-1.1-0.3c-0.4-0.2-0.6-0.5-0.8-0.8s-0.3-0.7-0.3-1.1C181.2,95.3,181.3,95,181.5,94.6z"/>
			<path fill="#B4D9DC" d="M184.2,125.1c0,0,0-0.1,0-0.2l1.5-5.5c0-0.1,0-0.1-0.1-0.1l-2.6-0.7c-0.1,0-0.1,0-0.1,0.1l-1,3.6
				c0,0.1,0,0.1-0.1,0.1c-0.1,0-0.1,0-0.2,0L180,122c-0.1,0-0.1,0-0.1-0.1c0-0.1,0-0.1,0-0.2l1-3.6c0-0.1,0-0.1-0.1-0.1l-4.6-1.3
				c-0.1,0-0.1,0-0.1-0.1c0,0,0-0.1,0-0.2l0.6-2c0-0.1,0-0.1,0.1-0.1c0,0,0.1,0,0.2,0l11.4,3.2c0.1,0,0.1,0,0.1,0.1
				c0,0.1,0,0.1,0,0.2l-2.2,7.8c0,0.1,0,0.1-0.1,0.1c-0.1,0-0.1,0-0.2,0l-1.6-0.5C184.2,125.2,184.2,125.2,184.2,125.1z"/>
			<path fill="#B4D9DC" d="M170.5,132l5.3,0c0.1,0,0.1,0,0.1-0.1l0.7-1.5c0-0.1,0-0.1,0-0.1l-4.3-2c-0.1,0-0.1-0.1-0.1-0.1
				c0-0.1,0-0.1,0-0.2l0.8-1.9c0-0.1,0.1-0.1,0.1-0.1c0.1,0,0.1,0,0.2,0l10.8,4.9c0.1,0,0.1,0.1,0.1,0.1c0,0.1,0,0.1,0,0.2l-2.1,4.5
				c-0.3,0.7-0.7,1.2-1.2,1.6c-0.5,0.4-1.1,0.6-1.7,0.7c-0.6,0-1.3-0.1-2-0.4c-0.7-0.3-1.3-0.8-1.6-1.4c-0.4-0.6-0.5-1.3-0.4-2
				c0-0.1,0-0.1-0.1-0.1l-5.5,0.1c-0.1,0-0.1,0-0.1,0c-0.1,0-0.1-0.1,0-0.2l0.9-2C170.3,132.1,170.3,132,170.5,132z M181.1,132.5
				l-2.7-1.2c-0.1,0-0.1,0-0.1,0l-0.9,2.1c-0.2,0.4-0.2,0.9-0.1,1.3c0.1,0.4,0.4,0.7,0.8,0.9c0.4,0.2,0.8,0.2,1.2,0.1
				c0.4-0.2,0.7-0.5,0.9-0.9l0.9-2.1C181.2,132.5,181.2,132.5,181.1,132.5z"/>
			<path fill="#B4D9DC" d="M166.4,139.7c0.7-0.4,1.4-0.5,2.2-0.5c0.8,0.1,1.5,0.3,2.2,0.8l3.1,2.1c0.7,0.5,1.2,1.1,1.6,1.7
				s0.5,1.4,0.4,2.2c-0.1,0.8-0.4,1.6-0.9,2.3c-0.5,0.8-1.1,1.3-1.8,1.7c-0.7,0.4-1.4,0.5-2.2,0.5c-0.8,0-1.5-0.3-2.2-0.8l-3.1-2.1
				c-0.7-0.5-1.3-1.1-1.6-1.8c-0.4-0.7-0.5-1.4-0.4-2.2c0.1-0.8,0.4-1.6,0.9-2.3C165.1,140.7,165.7,140.1,166.4,139.7z M166,144.2
				c0.1,0.6,0.5,1,1,1.4l3.2,2.1c0.6,0.4,1.1,0.5,1.7,0.4s1-0.4,1.4-1c0.4-0.5,0.5-1.1,0.3-1.6c-0.1-0.6-0.5-1-1-1.4l-3.2-2.1
				c-0.6-0.4-1.1-0.5-1.7-0.4c-0.6,0.1-1,0.4-1.4,0.9C166,143.1,165.9,143.7,166,144.2z"/>
			<path fill="#B4D9DC" d="M163,163l-1.4,1.5c0,0-0.1,0.1-0.1,0.1c-0.1,0-0.1,0-0.2-0.1l-8.6-8.1c0,0-0.1-0.1-0.1-0.1
				c0-0.1,0-0.1,0.1-0.2l1.4-1.5c0,0,0.1-0.1,0.1-0.1c0.1,0,0.1,0,0.2,0.1l5.6,5.3c0,0,0.1,0,0.1,0c0,0,0,0,0-0.1l-0.8-3.3
				c0-0.1,0-0.2,0.1-0.3l0.7-0.8c0.1-0.1,0.2-0.1,0.3-0.1l3.4,0.6c0,0,0.1,0,0.1,0c0,0,0,0,0-0.1l-5.6-5.3c0,0-0.1-0.1-0.1-0.1
				c0-0.1,0-0.1,0.1-0.2l1.4-1.5c0,0,0.1-0.1,0.1-0.1c0.1,0,0.1,0,0.2,0.1l8.6,8.1c0,0,0.1,0.1,0.1,0.1c0,0.1,0,0.1-0.1,0.2
				l-1.4,1.5c-0.1,0.1-0.2,0.1-0.3,0.1L162,158c-0.1,0-0.1,0-0.1,0.1l1.2,4.7C163.1,162.9,163.1,163,163,163z"/>
			<path fill="#B4D9DC" d="M142.8,176.2c0-0.1,0-0.1,0.1-0.1l4.8-3.1c0,0,0.1-0.1,0-0.1l-1.5-2.3c0,0-0.1-0.1-0.1,0l-3.1,2.1
				c0,0-0.1,0-0.2,0c-0.1,0-0.1,0-0.1-0.1l-0.9-1.4c0,0,0-0.1,0-0.2c0-0.1,0-0.1,0.1-0.1l3.1-2.1c0,0,0.1-0.1,0-0.1l-2.6-4
				c0,0,0-0.1,0-0.2c0-0.1,0-0.1,0.1-0.1l1.7-1.1c0,0,0.1,0,0.2,0c0.1,0,0.1,0,0.1,0.1l6.5,9.9c0,0,0,0.1,0,0.2c0,0.1,0,0.1-0.1,0.1
				l-6.7,4.4c0,0-0.1,0-0.2,0c-0.1,0-0.1,0-0.1-0.1l-0.9-1.4C142.8,176.3,142.8,176.2,142.8,176.2z"/>
			<path fill="#B4D9DC" d="M128.1,172.3l1.2,1.3c0,0,0.1,0,0.1,0l3.9-1.8c0,0,0,0,0-0.1l-0.3-1.8c0-0.1,0-0.2,0.1-0.3l2-0.9
				c0.1,0,0.1,0,0.2,0c0,0,0.1,0.1,0.1,0.2l1.5,12.3c0,0.1,0,0.2-0.1,0.3l-2.5,1.2c-0.1,0-0.2,0-0.3-0.1l-8.4-9.1c0,0,0,0-0.1-0.1
				c0-0.1,0-0.2,0.1-0.2l2-0.9C127.9,172.2,128,172.2,128.1,172.3z M133.5,173.9l-2.8,1.3c-0.1,0-0.1,0.1,0,0.1l3.6,4.1
				c0,0,0.1,0,0.1,0c0,0,0,0,0-0.1l-0.8-5.4C133.6,173.9,133.6,173.8,133.5,173.9z"/>
			<path fill="#B4D9DC" d="M115.6,176.4l3.4,4.1c0,0,0.1,0.1,0.1,0l1.6-0.4c0.1,0,0.1-0.1,0.1-0.1l-1.3-4.6c0-0.1,0-0.1,0-0.2
				c0-0.1,0.1-0.1,0.1-0.1l2-0.5c0.1,0,0.1,0,0.2,0c0,0,0.1,0.1,0.1,0.1l3.1,11.4c0,0.1,0,0.1,0,0.2c0,0.1-0.1,0.1-0.1,0.1l-4.8,1.3
				c-0.7,0.2-1.4,0.2-2,0.1s-1.2-0.4-1.6-0.9c-0.4-0.5-0.8-1-1-1.7c-0.2-0.8-0.2-1.5,0-2.1c0.2-0.7,0.7-1.2,1.3-1.6
				c0,0,0.1-0.1,0-0.1l-3.6-4.1c0,0-0.1-0.1-0.1-0.1c0-0.1,0-0.2,0.1-0.2l2.1-0.6C115.5,176.3,115.6,176.4,115.6,176.4z
				 M122.1,184.9l-0.8-2.9c0-0.1-0.1-0.1-0.1-0.1l-2.2,0.6c-0.5,0.1-0.8,0.4-1,0.7c-0.2,0.4-0.3,0.8-0.1,1.2c0.1,0.4,0.4,0.8,0.8,1
				c0.4,0.2,0.8,0.2,1.3,0.1l2.2-0.6C122.1,185,122.1,185,122.1,184.9z"/>
			<path fill="#B4D9DC" d="M102.3,190.8l-2,0.2c-0.1,0-0.1,0-0.2,0c0,0-0.1-0.1-0.1-0.1L98.8,179c0-0.1,0-0.1,0-0.2
				c0,0,0.1-0.1,0.1-0.1l2-0.2c0.1,0,0.1,0,0.2,0c0,0,0.1,0.1,0.1,0.1l0.8,7.7c0,0,0,0.1,0,0.1c0,0,0,0,0.1-0.1l1.5-3.1
				c0-0.1,0.1-0.2,0.2-0.2l1-0.1c0.1,0,0.2,0,0.3,0.1l2.1,2.7c0,0,0.1,0,0.1,0c0,0,0,0,0-0.1l-0.8-7.7c0-0.1,0-0.1,0-0.2
				c0,0,0.1-0.1,0.1-0.1l2-0.2c0.1,0,0.1,0,0.2,0c0,0,0.1,0.1,0.1,0.1l1.2,11.8c0,0.1,0,0.1,0,0.2c0,0-0.1,0.1-0.1,0.1l-2,0.2
				c-0.1,0-0.2,0-0.3-0.1l-3-3.8c0-0.1-0.1-0.1-0.1,0l-2.2,4.3C102.5,190.7,102.4,190.8,102.3,190.8z"/>
			<path fill="#B4D9DC" d="M78,189.4c0,0,0-0.1,0-0.2l0.2-1.7c0-0.1,0-0.1,0.1-0.1c0,0,0.1,0,0.2,0l3.1,0.4c0.1,0,0.1,0,0.1-0.1
				l1.3-9.7c0-0.1,0-0.1,0.1-0.1c0,0,0.1,0,0.2,0l2,0.3c0.1,0,0.1,0,0.1,0.1s0,0.1,0,0.2l-1.3,9.7c0,0.1,0,0.1,0.1,0.1l3,0.4
				c0.1,0,0.1,0,0.1,0.1c0,0,0,0.1,0,0.2l-0.2,1.7c0,0.1,0,0.1-0.1,0.1c0,0-0.1,0-0.2,0l-8.7-1.2C78,189.5,78,189.5,78,189.4z"/>
			<path fill="#B4D9DC" d="M73.7,176.3c0.6,0.6,0.9,1.2,1.1,2s0.1,1.5-0.1,2.4l-1.1,3.6c-0.2,0.8-0.6,1.5-1.2,2
				c-0.6,0.5-1.2,0.9-2,1c-0.8,0.2-1.6,0.1-2.5-0.2c-0.9-0.3-1.6-0.7-2.2-1.2c-0.6-0.6-0.9-1.2-1.1-1.9c-0.2-0.7-0.1-1.5,0.1-2.4
				l1.1-3.6c0.3-0.8,0.7-1.5,1.2-2.1c0.6-0.5,1.2-0.9,2-1c0.8-0.2,1.6-0.1,2.5,0.2C72.5,175.3,73.2,175.7,73.7,176.3z M69.3,177.2
				c-0.5,0.3-0.8,0.7-1,1.4l-1.1,3.7c-0.2,0.6-0.2,1.2,0.1,1.7c0.3,0.5,0.7,0.9,1.3,1c0.6,0.2,1.2,0.1,1.7-0.2
				c0.5-0.3,0.8-0.8,1-1.4l1.1-3.7c0.2-0.6,0.2-1.2-0.1-1.7c-0.3-0.5-0.7-0.8-1.3-1C70.4,176.9,69.8,177,69.3,177.2z"/>
			<path fill="#B4D9DC" d="M48.1,171.5c-0.7-1.1-0.7-2.1,0-3.3c0.6-1,1.3-1.5,2.3-1.6s2,0.1,3.1,0.8l3.9,2.3c0.1,0,0.1,0.1,0.1,0.1
				c0,0.1,0,0.1,0,0.2l-5.9,10.2c0,0.1-0.1,0.1-0.1,0.1c-0.1,0-0.1,0-0.2,0l-3.8-2.2c-2.4-1.4-3-3-1.9-5
				C46.1,172,46.9,171.6,48.1,171.5C48.1,171.6,48.1,171.6,48.1,171.5z M50.4,177.2l1.4-2.4c0-0.1,0-0.1,0-0.1l-1.8-1
				c-0.5-0.3-0.9-0.4-1.3-0.3c-0.4,0.1-0.7,0.3-0.9,0.7c-0.2,0.4-0.3,0.8-0.1,1.2c0.1,0.4,0.4,0.7,0.9,1l1.8,1
				C50.3,177.2,50.3,177.2,50.4,177.2z M51.1,168.9c-0.4,0.1-0.7,0.3-1,0.7c-0.2,0.4-0.3,0.8-0.2,1.2c0.1,0.4,0.4,0.7,0.9,1l1.9,1.1
				c0,0,0.1,0,0.1,0l1.5-2.5c0-0.1,0-0.1,0-0.1l-1.9-1.1C51.9,168.9,51.5,168.8,51.1,168.9z"/>
			<path fill="#B4D9DC" d="M44.5,161.9c0.3,0.7,0.4,1.5,0.3,2.2c-0.1,0.8-0.5,1.5-1,2.2l-2.4,2.9c-0.5,0.7-1.2,1.1-1.9,1.4
				c-0.7,0.3-1.5,0.3-2.2,0.2c-0.8-0.2-1.5-0.5-2.2-1.1c-0.7-0.6-1.2-1.2-1.5-2c-0.3-0.7-0.4-1.5-0.3-2.2c0.1-0.8,0.5-1.5,1-2.1
				l2.4-2.9c0.6-0.7,1.2-1.2,1.9-1.4c0.7-0.3,1.5-0.3,2.2-0.2c0.8,0.2,1.5,0.5,2.2,1.1C43.7,160.5,44.2,161.1,44.5,161.9z M40.1,161
				c-0.6,0.1-1.1,0.4-1.5,0.9l-2.4,3c-0.4,0.5-0.6,1.1-0.6,1.6c0,0.6,0.3,1.1,0.8,1.5c0.5,0.4,1,0.6,1.6,0.5
				c0.6-0.1,1.1-0.4,1.5-0.9l2.4-3c0.4-0.5,0.6-1.1,0.6-1.6c0-0.6-0.3-1-0.8-1.5C41.2,161.1,40.7,161,40.1,161z"/>
			<path fill="#B4D9DC" d="M21.5,155.9c0-0.1,0-0.1,0.1-0.1l1.3-1.1c0,0,0.1-0.1,0.2-0.1c0.1,0,0.1,0,0.1,0.1l2.1,2.3
				c0,0,0.1,0,0.1,0l7.3-6.6c0,0,0.1-0.1,0.2-0.1c0.1,0,0.1,0,0.1,0.1l1.4,1.5c0,0,0.1,0.1,0.1,0.2c0,0.1,0,0.1-0.1,0.1l-7.3,6.6
				c0,0,0,0.1,0,0.1l2,2.3c0,0,0.1,0.1,0.1,0.2c0,0.1,0,0.1-0.1,0.1l-1.3,1.1c0,0-0.1,0.1-0.2,0.1c-0.1,0-0.1,0-0.1-0.1l-5.9-6.5
				C21.5,156,21.5,156,21.5,155.9z"/>
			<path fill="#B4D9DC" d="M13,143.8c0-0.1,0-0.1,0.1-0.1l1.4-0.9c0,0,0.1,0,0.2,0c0.1,0,0.1,0,0.1,0.1l1.7,2.6c0,0,0.1,0.1,0.1,0
				l8.2-5.4c0,0,0.1,0,0.2,0s0.1,0,0.1,0.1l1.1,1.7c0,0,0,0.1,0,0.2c0,0.1,0,0.1-0.1,0.1l-8.2,5.4c0,0-0.1,0.1,0,0.1l1.7,2.6
				c0,0,0,0.1,0,0.2c0,0.1,0,0.1-0.1,0.1l-1.4,0.9c0,0-0.1,0-0.2,0c-0.1,0-0.1,0-0.1-0.1l-4.8-7.4C13,143.9,13,143.8,13,143.8z"/>
			<path fill="#B4D9DC" d="M21.2,133.5c0,0.1-0.1,0.1-0.1,0.1l-10.8,4.9c-0.1,0-0.1,0-0.2,0c-0.1,0-0.1-0.1-0.1-0.1l-0.8-1.9
				c0-0.1,0-0.1,0-0.2c0-0.1,0.1-0.1,0.1-0.1l9-4.1c0.1,0,0.1-0.1,0-0.1l-2.4-5.2c0-0.1,0-0.1,0-0.2c0-0.1,0.1-0.1,0.1-0.1l1.5-0.7
				c0.1,0,0.1,0,0.2,0c0.1,0,0.1,0.1,0.1,0.1l3.3,7.3C21.2,133.4,21.2,133.4,21.2,133.5z"/>
			<path fill="#B4D9DC" d="M4.4,116.7c0.1,0,0.1,0.1,0.1,0.1l1.6,5.5c0,0.1,0.1,0.1,0.1,0.1l2.6-0.7c0.1,0,0.1-0.1,0.1-0.1l-1-3.6
				c0-0.1,0-0.1,0-0.2c0-0.1,0.1-0.1,0.1-0.1l1.6-0.5c0.1,0,0.1,0,0.2,0c0,0,0.1,0.1,0.1,0.1l1,3.6c0,0.1,0.1,0.1,0.1,0.1l2.7-0.8
				c0.1,0,0.1-0.1,0.1-0.1l-1.6-5.5c0-0.1,0-0.1,0-0.2c0-0.1,0.1-0.1,0.1-0.1l1.6-0.5c0.1,0,0.1,0,0.2,0c0.1,0,0.1,0.1,0.1,0.1
				l2.2,7.8c0,0.1,0,0.1,0,0.2c0,0.1-0.1,0.1-0.1,0.1l-11.4,3.2c-0.1,0-0.1,0-0.2,0c-0.1,0-0.1-0.1-0.1-0.1l-2.2-7.8
				c0-0.1,0-0.1,0-0.2c0,0,0.1-0.1,0.1-0.1l1.6-0.5C4.3,116.6,4.3,116.6,4.4,116.7z"/>
			<path fill="#B4D9DC" d="M9.4,96.8c-0.2,0.3-0.5,0.6-0.8,0.8C8.2,97.9,7.8,98,7.4,98c-0.4,0-0.8-0.1-1.1-0.3
				c-0.4-0.2-0.6-0.5-0.8-0.8c-0.2-0.3-0.3-0.7-0.3-1.1c0-0.4,0.1-0.8,0.3-1.1c0.2-0.3,0.5-0.6,0.8-0.8c0.3-0.2,0.7-0.3,1.1-0.3
				c0.4,0,0.8,0.1,1.1,0.3c0.4,0.2,0.6,0.5,0.8,0.8c0.2,0.3,0.3,0.7,0.3,1.1C9.7,96.1,9.6,96.5,9.4,96.8z"/>
		</g>
	</g>
</g>
</svg>
