<?xml version="1.0" encoding="utf-8"?>
<!-- Generator: Adobe Illustrator 27.8.0, SVG Export Plug-In . SVG Version: 6.00 Build 0)  -->
<svg version="1.0" id="Layer_1" xmlns="http://www.w3.org/2000/svg" xmlns:xlink="http://www.w3.org/1999/xlink" x="0px" y="0px"
	 viewBox="0 0 118.5 328.6" enable-background="new 0 0 118.5 328.6" xml:space="preserve">
<g>
	<g>
		<path d="M79.3,97.6V52.1c0-0.8,0.3-1.6,0.9-2.2c0.5-0.5,0.9-1.2,0.9-2v-5.7c0-1.5-1.2-2.8-2.8-2.8h-38c-1.5,0-2.8,1.2-2.8,2.8v5.7
			c0,0.8,0.3,1.5,0.9,2c0.6,0.6,0.9,1.3,0.9,2.2v45.5c0,5.9-3.4,11.4-8.7,14C12.4,120.4,0,139,0,160.5v148.3
			c0,11,8.9,19.8,19.8,19.8h78.9c11,0,19.8-8.9,19.8-19.8V160.5c0-21.5-12.4-40.1-30.5-48.9C82.7,108.9,79.3,103.5,79.3,97.6z"/>
	</g>
</g>
</svg>
