<?xml version="1.0" encoding="utf-8"?>
<!-- Generator: Adobe Illustrator 22.0.1, SVG Export Plug-In . SVG Version: 6.00 Build 0)  -->
<svg version="1.1" id="footer-svg" xmlns="http://www.w3.org/2000/svg" xmlns:xlink="http://www.w3.org/1999/xlink" x="0px" y="0px"
	 viewBox="0 0 1348.9 177.3" style="enable-background:new 0 0 1348.9 177.3;" xml:space="preserve">
<path d="M68.9,81.6h-54V41.5H0v100.2h14.9V95.9h54v45.8h14.9V41.5H68.9V81.6z"/>
<path d="M116.5,41.5h14.9v100.2h-14.9V41.5z"/>
<path d="M463.2,40.8L421,141.6h16l7.3-17.7h46.7l7.4,17.7h16.4L472.6,40.8H463.2z M450.2,109.9l17.4-41.9l0.2-0.4l0.2,0.5l17.4,41.8
	H450.2z"/>
<path d="M545.4,40.8h-14.9V141h57v-14.4h-42.1V40.8z"/>
<path d="M620.9,93.8h42v-14h-42V55h45.4V40.8H606V141h61.7v-14.1h-46.8V93.8z"/>
<path d="M760.1,81.6h-54V41.5h-14.9v100.2h14.9V95.9h54v45.8H775V41.5h-14.9V81.6z"/>
<path d="M353.4,41.5L320.3,121l-32.5-79.5l-13.6,0L241.1,121l-32.5-79.5l-13.6,0l-42.8,100.8h16.5l33.1-79.5l32.5,79.5l13.6,0
	l33.1-79.5l32.5,79.5l13.6,0l33.1-79.7l33.1,79.7l16.4,0L367,41.5H353.4z"/>
<path d="M904.2,87.3c-4-2.8-8.1-5.6-12.1-8.3c-3.5-2.3-6.6-5.1-9.3-8.3c-2-2.3-3.2-5.3-3.2-8.4c0-3.1,0-9.4,14.3-9.4
	c5.8,0.1,11.5,1.3,16.8,3.6l4,1.7l5.6-12.9l-3.9-1.8c-7.2-3.4-15.1-5.1-23.1-5c-8.6,0-15.6,2.1-20.9,6.2c-5.6,4.4-8.4,10.4-8.4,17.8
	c0,5.5,1.8,10.9,5,15.4c3.1,4.4,6.9,8.2,11.2,11.4c4,2.9,8.1,5.8,12.1,8.6c3.5,2.4,6.6,5.2,9.3,8.5c2,2.2,3.2,5.1,3.2,8.2
	c0,4.2-1.3,7.1-4.1,9.2c-3.1,2.3-7.9,3.5-14.3,3.5c-6.3,0.1-12.5-1.8-17.8-5.3l-3.6-2.4l-7.8,11.7l3.4,2.5c7.2,5.2,16,7.9,26,7.9
	c10.1,0,18.2-2.3,24.2-6.8c6.3-4.8,9.5-11.9,9.5-21.1c0-5.5-1.8-10.9-5-15.3C912.3,94.1,908.5,90.3,904.2,87.3"/>
<path d="M1024.8,41.5h14.9v100.2h-14.9V41.5z"/>
<path d="M1132.2,120.7c-1.3-1.4-4.2-5.1-8.8-11.1c-3.5-4.5-6.5-8.5-9.1-12c3.2-2.9,6.1-6.1,8.5-9.7c3.7-5.3,5.6-11.5,5.6-17.9
	c0-9.5-3.4-17.1-10.1-22.4c-6.4-5.1-14.5-7.7-24.2-7.7c-5.6,0-12.3,0.3-20.6,0.9l-4.1,0.3v99.5h14.9v-37.3c5,0.3,10.4,0.4,16.1,0.5
	c11.1,15.2,18,24.2,21,27.3c3,3.2,6.6,5.9,10.6,7.8c3.8,1.7,8.6,2.7,14.4,2.8l4.3,0.1l0.4-12.4l-4-0.5
	C1141.5,128.1,1136.7,125.5,1132.2,120.7 M1107.6,84c-3.3,3.9-6.3,5.9-8.7,5.9c-4.6,0-9.5-0.1-14.7-0.4V54.4c3.4-0.2,6.4-0.3,9-0.3
	c6.2,0,11.2,1.4,14.8,4.1c3.3,2.5,4.9,6.2,4.9,11.4C1113,74.9,1111.1,80,1107.6,84"/>
<path d="M1168,41.5h14.9v100.2H1168V41.5z"/>
<path d="M1201.5,55.6h30.9v86h14.9v-86h30.9V41.5h-76.8V55.6z"/>
<path d="M1343.8,98.4c-3.1-4.3-6.9-8.1-11.3-11.1c-4-2.8-8.1-5.6-12.1-8.3c-3.5-2.3-6.6-5.1-9.3-8.3c-2-2.3-3.2-5.3-3.2-8.4
	c0-3.1,0-9.4,14.3-9.4c5.8,0.1,11.5,1.3,16.8,3.6l4,1.7l5.6-12.9l-3.9-1.8c-7.2-3.4-15.2-5.1-23.1-5c-8.6,0-15.6,2.1-20.9,6.2
	c-5.6,4.4-8.4,10.4-8.4,17.8c0,5.5,1.8,10.9,5,15.4c3.1,4.4,6.9,8.2,11.2,11.4c4,2.9,8.1,5.8,12.1,8.6c3.5,2.4,6.6,5.2,9.3,8.5
	c2,2.2,3.2,5.1,3.2,8.2c0,4.2-1.3,7.1-4.1,9.2c-3.1,2.3-7.9,3.5-14.3,3.5c-6.3,0.1-12.5-1.8-17.8-5.3l-3.6-2.4l-7.8,11.7l3.4,2.5
	c7.2,5.2,16,7.9,26,7.9c10.1,0,18.2-2.3,24.2-6.8c6.3-4.8,9.5-11.9,9.5-21.1C1348.9,108.2,1347.1,102.8,1343.8,98.4"/>
<path d="M992.3,47.2c-6.2-4.8-14.5-7.3-24.5-7.3c-6.8,0-14,0.4-21.2,1.1l-4,0.4v100.2h15v-38.4h2.3c11.2,0,21.1-3,29.3-9.1
	c8.6-6.3,13-14.6,13-24.5C1002.2,59.9,998.8,52.3,992.3,47.2 M979.1,84.3c-5.6,4-12,5.9-19.6,5.9h-1.8V54.6c3.4-0.2,6.4-0.3,9.1-0.3
	c6.4,0,11.5,1.3,15.1,4c3.2,2.4,4.8,6.3,4.8,12.1C986.6,76.1,984.1,80.7,979.1,84.3"/>
</svg>
