<svg id="Layer_1" data-name="Layer 1" xmlns="http://www.w3.org/2000/svg" width="47.585cm" height="6.253cm" viewBox="0 0 1348.863 177.237">
  <title>svg-logo-bottom</title>
  <g>
    <polygon points="68.905 80.783 14.899 80.783 14.899 40.644 0 40.644 0 140.804 14.899 140.804 14.899 95.037 68.905 95.037 68.905 140.804 83.803 140.804 83.803 40.644 68.905 40.644 68.905 80.783" style="fill: #b7dcdf"/>
    <rect x="116.462" y="77.075" width="14.898" height="100.161" style="fill: #b7dcdf"/>
    <path d="M463.173,40,421.031,140.8h16.016l7.339-17.706H491.1l7.351,17.706h16.413L472.58,40Zm-12.985,69.1,17.361-41.884.165-.388.208.453L485.285,109.1Z" style="fill: #b7dcdf"/>
    <polygon points="545.382 77.076 530.484 77.076 530.484 177.237 587.437 177.237 587.437 162.855 545.382 162.855 545.382 77.076" style="fill: #b7dcdf"/>
    <polygon points="620.929 93.631 662.884 93.631 662.884 79.634 620.929 79.634 620.929 54.768 666.34 54.768 666.34 40.643 606.036 40.643 606.036 140.803 667.742 140.803 667.742 126.678 620.929 126.678 620.929 93.631" style="fill: #b7dcdf"/>
    <polygon points="760.103 60.78 706.097 60.78 706.097 20.641 691.198 20.641 691.198 120.801 706.097 120.801 706.097 75.034 760.103 75.034 760.103 120.801 775.001 120.801 775.001 20.641 760.103 20.641 760.103 60.78" style="fill: #b7dcdf"/>
    <polygon points="353.405 0 320.337 79.539 287.825 0.041 274.184 0 241.113 79.539 208.6 0.041 194.959 0 152.179 100.799 168.65 100.799 201.718 21.26 234.23 100.759 247.871 100.799 280.942 21.26 313.455 100.759 327.096 100.799 360.216 21.146 393.34 100.799 409.74 100.759 367.029 0 353.405 0" style="fill: #b7dcdf"/>
    <path d="M904.163,122.865q-6.051-4.242-12.09-8.3a42.167,42.167,0,0,1-9.271-8.333,13,13,0,0,1-3.236-8.418c0-3.059,0-9.428,14.283-9.428A43.058,43.058,0,0,1,910.674,92l3.989,1.694,5.622-12.872-3.869-1.807a54.289,54.289,0,0,0-23.137-5.011c-8.61,0-15.632,2.1-20.868,6.249-5.56,4.392-8.376,10.385-8.376,17.814a26.43,26.43,0,0,0,5.009,15.429,48.294,48.294,0,0,0,11.247,11.389q6.049,4.371,12.092,8.553a44.894,44.894,0,0,1,9.323,8.5,12.7,12.7,0,0,1,3.232,8.162c0,4.177-1.311,7.1-4.125,9.216-3.13,2.347-7.925,3.536-14.251,3.536a31.606,31.606,0,0,1-17.8-5.3l-3.631-2.371-7.811,11.72,3.414,2.469c7.208,5.217,15.965,7.862,26.023,7.862,10.1,0,18.239-2.3,24.2-6.839,6.32-4.818,9.525-11.9,9.525-21.062A25.876,25.876,0,0,0,915.435,134a47.31,47.31,0,0,0-11.272-11.135" style="fill: #b7dcdf"/>
    <rect x="1024.829" y="21.536" width="14.892" height="100.161" style="fill: #b7dcdf"/>
    <path d="M1132.225,121.875c-1.262-1.415-4.227-5.141-8.818-11.076-3.464-4.478-6.521-8.51-9.133-12.036a51.138,51.138,0,0,0,8.461-9.733,31.439,31.439,0,0,0,5.614-17.929c0-9.544-3.392-17.084-10.088-22.41-6.392-5.086-14.538-7.666-24.2-7.666-5.562,0-12.315.3-20.646.907l-4.058.3V141.7h14.892V104.408c5,.279,10.409.436,16.148.467,11.12,15.226,17.993,24.164,20.99,27.294a35.325,35.325,0,0,0,10.6,7.786c3.779,1.741,8.628,2.67,14.409,2.767l4.312.072.4-12.424-4-.467c-5.559-.648-10.448-3.3-14.882-8.028m-24.613-36.759c-3.322,3.857-6.33,5.895-8.7,5.895-4.562,0-9.479-.134-14.671-.4V55.542c3.353-.174,6.38-.26,9.042-.26,6.228,0,11.2,1.4,14.789,4.143,3.273,2.517,4.866,6.231,4.866,11.357a21.084,21.084,0,0,1-5.331,14.334" style="fill: #b7dcdf"/>
    <rect x="1168.035" y="61.54" width="14.893" height="100.161" style="fill: #b7dcdf"/>
    <polygon points="1201.533 55.664 1232.464 55.664 1232.464 141.699 1247.363 141.699 1247.363 55.664 1278.3 55.664 1278.3 41.538 1201.533 41.538 1201.533 55.664" style="fill: #b7dcdf"/>
    <path d="M1343.823,134a47.31,47.31,0,0,0-11.272-11.135q-6.051-4.242-12.091-8.3a42.212,42.212,0,0,1-9.271-8.333,13.005,13.005,0,0,1-3.235-8.418c0-3.06,0-9.428,14.282-9.428a43.047,43.047,0,0,1,16.826,3.615l3.988,1.693,5.622-12.871L1344.8,79.02a54.279,54.279,0,0,0-23.138-5.012c-8.61,0-15.631,2.1-20.868,6.249-5.559,4.393-8.376,10.386-8.376,17.815a26.424,26.424,0,0,0,5.01,15.429,48.285,48.285,0,0,0,11.245,11.389q6.053,4.37,12.094,8.552a44.9,44.9,0,0,1,9.323,8.5,12.7,12.7,0,0,1,3.232,8.161c0,4.177-1.312,7.1-4.125,9.217-3.13,2.346-7.925,3.535-14.251,3.535a31.606,31.606,0,0,1-17.8-5.3l-3.632-2.372-7.811,11.72,3.415,2.469c7.207,5.217,15.964,7.863,26.022,7.863,10.1,0,18.24-2.3,24.195-6.839,6.32-4.819,9.525-11.9,9.525-21.062a25.875,25.875,0,0,0-5.04-15.335" style="fill: #b7dcdf"/>
    <path d="M992.262,47.255C986.027,42.443,977.8,40,967.8,40c-6.816,0-13.954.354-21.216,1.054l-4,.386V141.7h15.046V103.347h2.29c11.245,0,21.1-3.049,29.284-9.059,8.611-6.321,12.976-14.558,12.976-24.485,0-9.882-3.338-17.468-9.921-22.548M979.053,84.343c-5.57,3.967-12,5.894-19.646,5.894h-1.774V54.667c3.384-.174,6.446-.262,9.135-.262,6.409,0,11.479,1.339,15.071,3.982,3.218,2.365,4.782,6.31,4.782,12.062,0,5.721-2.476,10.267-7.568,13.894" style="fill: #b7dcdf"/>
  </g>
</svg>
