<svg xmlns="http://www.w3.org/2000/svg" baseProfile="tiny" overflow="visible" viewBox="0 0 145.3 603"><g fill="#E5E1D6"><path d="M139.2 578c-4.1 8-9.9 14.1-17.4 18.5-7.4 4.3-16 6.5-25.8 6.5H49.1c-9.7 0-18.3-2.2-25.8-6.5-7.4-4.4-13.2-10.5-17.2-18.5C2 570 0 560.7 0 550.2c0-10.4 1.9-19.6 5.8-27.5 3.9-7.9 9.3-14.1 16.4-18.5 7.1-4.4 15.3-6.6 24.7-6.6 1.2 0 2 .8 2.2 2.4l1.4 23.8v.4c0 1.4-.7 2-2.2 2-7.2 0-12.9 2.2-17.3 6.6-4.3 4.4-6.5 10.2-6.5 17.4 0 7.3 2.2 13.2 6.5 17.6 4.3 4.4 10.1 6.6 17.3 6.6h48.9c7 0 12.7-2.2 17.1-6.6 4.3-4.4 6.5-10.3 6.5-17.6 0-7.2-2.2-13-6.5-17.4-4.3-4.4-10-6.6-17.1-6.6-1.5 0-2.2-.8-2.2-2.4l1-23.8c0-.7.2-1.2.6-1.7.4-.5.9-.7 1.4-.7 9.3 0 17.6 2.2 24.8 6.6 7.2 4.4 12.7 10.6 16.6 18.5 3.9 7.9 5.9 17.1 5.9 27.5 0 10.5-2 19.8-6.1 27.8zM141.9 404.4l-56.2 25.4c-.5.3-.8.7-.8 1.2v18.9c0 .7.3 1 1 1h55.4c.7 0 1.3.2 1.7.7.5.5.7 1.1.7 1.7v23.8c0 .7-.2 1.3-.7 1.7-.5.5-1 .7-1.7.7H4.1c-.7 0-1.2-.2-1.7-.7-.5-.5-.7-1-.7-1.7V419c0-8.7 1.8-16.3 5.3-22.8 3.5-6.6 8.5-11.6 15-15.2 6.5-3.6 14-5.4 22.5-5.4 9.2 0 17.1 2.3 23.6 6.9 6.6 4.6 11.2 11 13.9 19.3.3.7.7.9 1.4.6l57.4-27.6c.5-.3.9-.4 1.2-.4 1.1 0 1.6.7 1.6 2.2v25c.1 1.3-.5 2.3-1.7 2.8zM27.2 450.9h34.7c.7 0 1-.3 1-1v-26.6c0-5.7-1.7-10.3-5.1-13.9-3.4-3.6-7.8-5.4-13.2-5.4-5.4 0-9.8 1.8-13.3 5.4-3.5 3.6-5.2 8.2-5.2 13.9v26.6c.1.7.4 1 1.1 1zM141.7 265.4l-19.9 6.1c-.5.3-.8.6-.8 1v49.9c0 .4.3.7.8 1l19.9 5.9c1.4.4 2 1.3 2 2.6v25.8c0 .8-.2 1.4-.7 1.8-.5.4-1.2.5-2.1.2L3.7 316c-1.4-.4-2-1.3-2-2.6v-31.9c0-1.4.7-2.2 2-2.6L140.9 235c.3-.1.6-.2 1-.2 1.2 0 1.8.7 1.8 2.2v25.8c0 1.3-.7 2.2-2 2.6zm-42.8 50v-35.7c0-.8-.4-1.1-1.2-.8l-60.3 18.3c-.5.1-.8.3-.7.6.1.3.3.5.7.6l60.3 17.9c.8 0 1.2-.3 1.2-.9zM25.5 120.3c.5.5.7 1 .7 1.7v66.4c0 .7.3 1 1 1h31.5c.7 0 1-.3 1-1v-43.6c0-.7.2-1.2.7-1.7.5-.5 1-.7 1.7-.7h19.7c.7 0 1.3.2 1.7.7.5.5.7 1.1.7 1.7v43.6c0 .7.3 1 1 1h56c.7 0 1.3.2 1.7.7.5.5.7 1 .7 1.7v23.8c0 .7-.2 1.3-.7 1.7-.5.5-1 .7-1.7.7H4.1c-.7 0-1.2-.2-1.7-.7-.5-.5-.7-1-.7-1.7V122c0-.7.2-1.2.7-1.7.5-.5 1-.7 1.7-.7h19.7c.6 0 1.2.2 1.7.7zM2.3.7C2.8.2 3.4 0 4.1 0H24c.7 0 1.3.2 1.7.7.5.5.7 1 .7 1.7v36.3c0 .7.3 1 1 1h113.9c.7 0 1.3.2 1.7.7.5.5.7 1 .7 1.7V66c0 .7-.2 1.3-.7 1.7-.5.5-1 .7-1.7.7H27.4c-.7 0-1 .3-1 1v35.3c0 .7-.2 1.3-.7 1.7-.5.5-1 .7-1.7.7H4.1c-.7 0-1.2-.2-1.7-.7-.5-.5-.7-1-.7-1.7V2.4c-.1-.6.2-1.2.6-1.7z"/></g></svg>