<svg xmlns="http://www.w3.org/2000/svg" baseProfile="tiny" overflow="visible" viewBox="0 0 146 1233.2"><g fill="#E5E1D6"><path d="M139.2 1208.3c-4.1 8-9.9 14.1-17.4 18.5-7.4 4.3-16 6.5-25.8 6.5H49.1c-9.7 0-18.3-2.2-25.8-6.5-7.4-4.3-13.2-10.5-17.3-18.5-4.1-8-6.1-17.3-6.1-27.8 0-10.4 1.9-19.6 5.8-27.5s9.3-14.1 16.4-18.5c7.1-4.4 15.3-6.6 24.7-6.6 1.2 0 2 .8 2.2 2.4l1.4 23.8v.4c0 1.4-.7 2-2.2 2-7.2 0-12.9 2.2-17.3 6.6-4.3 4.4-6.5 10.2-6.5 17.4 0 7.3 2.2 13.2 6.5 17.6 4.3 4.4 10.1 6.6 17.3 6.6h48.9c7 0 12.7-2.2 17.1-6.6 4.3-4.4 6.5-10.3 6.5-17.6 0-7.2-2.2-13-6.5-17.4-4.3-4.4-10-6.6-17.1-6.6-1.5 0-2.2-.8-2.2-2.4l1-23.8c0-.7.2-1.2.6-1.7.4-.5.9-.7 1.4-.7 9.3 0 17.6 2.2 24.8 6.6 7.2 4.4 12.7 10.6 16.6 18.5 3.9 7.9 5.9 17.1 5.9 27.5.1 10.5-1.9 19.8-6 27.8zM139.5 1085.6c-4.3 8.1-10.4 14.3-18.2 18.8-7.8 4.5-16.7 6.7-26.9 6.7H51c-10 0-18.9-2.2-26.6-6.7-7.7-4.5-13.7-10.7-18-18.8-4.3-8.1-6.4-17.4-6.4-27.9 0-10.7 2.1-20.1 6.4-28.1 4.3-8.1 10.3-14.3 18-18.8s16.6-6.7 26.6-6.7h43.4c10.2 0 19.2 2.2 27 6.7 7.9 4.5 13.9 10.7 18.2 18.8 4.3 8.1 6.4 17.4 6.4 28.1 0 10.5-2.2 19.8-6.5 27.9zm-25.2-46c-4.7-4.6-11-6.9-18.9-6.9H50.8c-7.8 0-14.2 2.3-19 6.8-4.8 4.5-7.2 10.6-7.2 18.2 0 7.4 2.4 13.4 7.2 18 4.8 4.5 11.1 6.8 19 6.8h44.7c7.9 0 14.1-2.3 18.9-6.8 4.7-4.5 7.1-10.5 7.1-18-.1-7.5-2.5-13.5-7.2-18.1zM1.6 890v-23.8c0-.7.2-1.2.7-1.7.5-.5 1-.7 1.7-.7h137.2c.7 0 1.3.2 1.7.7.5.5.7 1.1.7 1.7V890c0 .7-.2 1.3-.7 1.7-.5.5-1 .7-1.7.7H51.8c-.5 0-.8.1-.8.4 0 .3.2.5.6.8l33.7 21.5c1.1.7 1.6 1.6 1.6 2.8v12c0 1.2-.5 2.2-1.6 2.8l-33.7 21.5c-.4.3-.6.5-.5.8.1.3.4.4.9.4h89.3c.7 0 1.3.2 1.7.7.5.5.7 1.1.7 1.7v23.8c0 .7-.2 1.3-.7 1.7-.5.5-1 .7-1.7.7H4.1c-.7 0-1.2-.2-1.7-.7-.5-.5-.7-1-.7-1.7V958c0-1.2.5-2.2 1.6-2.8l47.3-30.5c.8-.4.8-.8 0-1.2L3.2 892.8c-1-.7-1.6-1.6-1.6-2.8zM1.6 746.9v-23.8c0-.7.2-1.2.7-1.7.5-.5 1-.7 1.7-.7h137.2c.7 0 1.3.2 1.7.7.5.5.7 1 .7 1.7v23.8c0 .7-.2 1.3-.7 1.7-.5.5-1 .7-1.7.7H51.8c-.5 0-.8.1-.8.4 0 .3.2.5.6.8L85.3 772c1.1.7 1.6 1.6 1.6 2.8v12c0 1.2-.5 2.2-1.6 2.8l-33.7 21.5c-.4.3-.6.5-.5.8.1.3.4.4.9.4h89.3c.7 0 1.3.2 1.7.7.5.5.7 1 .7 1.7v23.8c0 .7-.2 1.3-.7 1.7-.5.5-1 .7-1.7.7H4.1c-.7 0-1.2-.2-1.7-.7-.5-.5-.7-1-.7-1.7v-23.8c0-1.2.5-2.2 1.6-2.8l47.3-30.5c.8-.4.8-.8 0-1.2L3.2 749.7c-1-.6-1.6-1.6-1.6-2.8zM139.3 673.7c-4.1 7.9-9.8 14.1-17.2 18.5-7.4 4.4-15.9 6.6-25.5 6.6H4.1c-.7 0-1.2-.2-1.7-.7-.5-.5-.7-1-.7-1.7v-23.8c0-.7.2-1.2.7-1.7.5-.5 1-.7 1.7-.7h92.8c7.2 0 13-2.2 17.4-6.6 4.4-4.4 6.6-10.2 6.6-17.4 0-7.2-2.2-13-6.6-17.4-4.4-4.4-10.2-6.6-17.4-6.6H4.1c-.7 0-1.2-.2-1.7-.7-.5-.5-.7-1-.7-1.7V596c0-.7.2-1.2.7-1.7.5-.5 1-.7 1.7-.7h92.6c9.6 0 18.1 2.2 25.5 6.6 7.4 4.4 13.1 10.6 17.2 18.5s6.1 17.1 6.1 27.5c-.2 10.4-2.2 19.6-6.2 27.5zM2.3 489.5c-.5-.5-.7-1-.7-1.7V464c0-.7.2-1.2.7-1.7.5-.5 1-.7 1.7-.7h137.2c.7 0 1.3.2 1.7.7.5.5.7 1 .7 1.7v23c0 1.4-.5 2.3-1.6 2.8l-86.9 52.6c-.4.3-.6.5-.5.8.1.3.4.4.9.4l85.7-.4c.7 0 1.3.2 1.7.7.5.5.7 1 .7 1.7v23.8c0 .7-.2 1.3-.7 1.7-.5.5-1 .7-1.7.7H4.1c-.7 0-1.2-.2-1.7-.7-.5-.5-.7-1-.7-1.7v-22.9c0-1.4.5-2.3 1.6-2.8l86.5-52.4c.4-.3.6-.5.5-.8-.1-.3-.4-.4-.9-.4l-85.3.2c-.7 0-1.3-.3-1.8-.8zM143 438.2c-.5.5-1 .7-1.7.7H4.1c-.7 0-1.2-.2-1.7-.7-.5-.5-.7-1-.7-1.7v-23.8c0-.7.2-1.2.7-1.7.5-.5 1-.7 1.7-.7h137.2c.7 0 1.3.2 1.7.7.5.5.7 1 .7 1.7v23.8c0 .7-.2 1.3-.7 1.7zM2.3 287.1c.5-.5 1-.7 1.7-.7h20c.7 0 1.3.2 1.7.7.5.5.7 1 .7 1.7v36.3c0 .7.3 1 1 1h113.9c.7 0 1.3.2 1.7.7.5.5.7 1 .7 1.7v23.8c0 .7-.2 1.3-.7 1.7-.5.5-1 .7-1.7.7H27.4c-.7 0-1 .3-1 1V391c0 .7-.2 1.3-.7 1.7-.5.5-1 .7-1.7.7H4.1c-.7 0-1.2-.2-1.7-.7-.5-.5-.7-1-.7-1.7V288.9c-.1-.7.2-1.3.6-1.8zM143 268.8c-.5.5-1 .7-1.7.7H4.1c-.7 0-1.2-.2-1.7-.7-.5-.5-.7-1-.7-1.7v-23.8c0-.7.2-1.2.7-1.7.5-.5 1-.7 1.7-.7h137.2c.7 0 1.3.2 1.7.7.5.5.7 1 .7 1.7v23.8c0 .7-.2 1.2-.7 1.7zM25.5 120.4c.5.5.7 1 .7 1.7v66.6c0 .7.3 1 1 1h31.5c.7 0 1-.3 1-1V145c0-.7.2-1.2.7-1.7.5-.5 1-.7 1.7-.7h19.7c.7 0 1.3.2 1.7.7.5.5.7 1 .7 1.7v43.6c0 .7.3 1 1 1h32.9c.7 0 1-.3 1-1V122c0-.7.2-1.2.7-1.7.5-.5 1-.7 1.7-.7h19.7c.7 0 1.3.2 1.7.7.5.5.7 1 .7 1.7v93.8c0 .7-.2 1.3-.7 1.7-.5.5-1 .7-1.7.7H4.1c-.7 0-1.2-.2-1.7-.7-.5-.5-.7-1-.7-1.7V122c0-.7.2-1.2.7-1.7.5-.5 1-.7 1.7-.7h19.7c.6.1 1.2.3 1.7.8zM140.2 80.4c-3.5 8.1-8.4 14.4-14.8 18.8s-13.9 6.6-22.4 6.6h-4.5c-.7 0-1.2-.2-1.7-.7-.5-.5-.7-1-.7-1.7V80.2c0-.7.2-1.2.7-1.7.5-.5 1-.7 1.7-.7h3c5.4 0 10-2.5 13.7-7.5 3.7-5 5.6-11.8 5.6-20.3 0-7.2-1.5-12.5-4.6-16-3-3.5-6.8-5.3-11.3-5.3-3.2 0-6 1.1-8.2 3.2-2.2 2.2-4.2 5.1-5.9 8.8-1.7 3.7-4 9.6-7 17.8-3.1 9.1-6.3 16.7-9.5 23S66.6 93.1 61 97.3c-5.6 4.3-12.6 6.4-20.8 6.4-8.1 0-15.2-2.1-21.3-6.3-6.1-4.2-10.8-10-14-17.5C1.6 72.5 0 63.9 0 54.2c0-10.3 1.8-19.5 5.5-27.5s8.8-14.3 15.3-18.9C27.4 3.3 35 1 43.6 1h3c.7 0 1.3.2 1.7.7.5.5.7 1 .7 1.7v23.3c0 .7-.2 1.3-.7 1.7-.5.5-1 .7-1.7.7H45c-5.7 0-10.5 2.3-14.5 7s-6 11.1-6 19.2c0 6.4 1.4 11.3 4.1 14.9 2.7 3.6 6.4 5.4 11.2 5.4 3.4 0 6.2-1 8.5-3.1s4.4-5.2 6.2-9.3c1.8-4.1 4.3-10.5 7.4-19.2 3.5-9.6 6.6-17.2 9.3-22.6C74 15.9 78 11 83.3 6.6 88.7 2.2 95.6 0 104.1 0c12.7 0 22.8 4.7 30.1 14 7.4 9.3 11.1 22 11.1 38 0 10.8-1.7 20.3-5.1 28.4z"/></g></svg>