<svg xmlns="http://www.w3.org/2000/svg" baseProfile="tiny" overflow="visible" viewBox="0 0 146 707.6"><g fill="#E5E1D6"><path d="M139.5 682.2c-4.3 8.1-10.4 14.3-18.2 18.8-7.8 4.5-16.7 6.7-26.9 6.7H51c-10 0-18.9-2.2-26.6-6.7s-13.7-10.7-18-18.8c-4.3-8-6.4-17.4-6.4-27.9 0-10.7 2.1-20.1 6.4-28.1 4.3-8 10.3-14.3 18-18.8s16.6-6.7 26.6-6.7h43.4c10.2 0 19.2 2.2 27 6.7 7.9 4.5 13.9 10.7 18.2 18.8 4.3 8.1 6.4 17.4 6.4 28.1 0 10.5-2.2 19.8-6.5 27.9zm-25.2-46c-4.7-4.6-11-6.9-18.9-6.9H50.8c-7.8 0-14.2 2.3-19 6.8-4.8 4.5-7.2 10.6-7.2 18.2 0 7.4 2.4 13.4 7.2 18 4.8 4.5 11.1 6.8 19 6.8h44.7c7.9 0 14.1-2.3 18.9-6.8 4.7-4.5 7.1-10.5 7.1-18-.1-7.5-2.5-13.5-7.2-18.1zM141.9 505.6L85.7 531c-.5.3-.8.7-.8 1.2v18.9c0 .7.3 1 1 1h55.4c.7 0 1.3.2 1.7.7.5.5.7 1 .7 1.7v23.8c0 .7-.2 1.3-.7 1.7-.5.5-1 .7-1.7.7H4.1c-.7 0-1.2-.2-1.7-.7-.5-.5-.7-1-.7-1.7v-58.1c0-8.7 1.8-16.3 5.3-22.8 3.5-6.6 8.5-11.6 15-15.2 6.5-3.6 14-5.4 22.5-5.4 9.2 0 17.1 2.3 23.6 6.9 6.6 4.6 11.2 11 13.9 19.3.3.7.7.9 1.4.6l57.4-27.6c.5-.3.9-.4 1.2-.4 1.1 0 1.6.7 1.6 2.2v25c.1 1.3-.5 2.3-1.7 2.8zM27.2 552.1h34.7c.7 0 1-.3 1-1v-26.6c0-5.7-1.7-10.3-5.1-13.9-3.4-3.6-7.8-5.4-13.2-5.4-5.4 0-9.8 1.8-13.3 5.4-3.5 3.6-5.2 8.2-5.2 13.9v26.6c.1.7.4 1 1.1 1zM143 457.4c-.5.5-1 .7-1.7.7H4.1c-.7 0-1.2-.2-1.7-.7-.5-.5-.7-1-.7-1.7v-23.8c0-.7.2-1.2.7-1.7.5-.5 1-.7 1.7-.7h137.2c.7 0 1.3.2 1.7.7.5.5.7 1 .7 1.7v23.8c0 .7-.2 1.2-.7 1.7zM139.1 384.4c-4.2 8-10 14.2-17.6 18.6-7.5 4.4-16.2 6.6-26.1 6.6H49.9c-9.9 0-18.6-2.2-26.2-6.6-7.6-4.4-13.4-10.6-17.6-18.6-4.1-8-6.2-17.2-6.2-27.6 0-10.3 2-19.4 6.1-27.3 4.1-7.9 9.6-14.1 16.5-18.5 7-4.4 14.7-6.6 23.2-6.6h1.4c.7 0 1.3.2 1.7.7.5.5.7 1 .7 1.7v23.8c0 .7-.2 1.3-.7 1.7-.5.5-1 .7-1.7.7h-.6c-6.2 0-11.5 2.2-15.7 6.5-4.3 4.3-6.4 10.1-6.4 17.3 0 7.3 2.3 13.2 6.8 17.6 4.5 4.4 10.5 6.6 17.8 6.6h47.1c7.3 0 13.2-2.4 17.8-7.1 4.5-4.7 6.8-10.8 6.8-18.1 0-7-1.9-12.7-5.6-16.8-3.7-4.2-8.9-6.3-15.5-6.3h-9.1c-.7 0-1 .3-1 1v22.7c0 .7-.2 1.3-.7 1.7-.5.5-1 .7-1.7.7H68.4c-.7 0-1.2-.2-1.7-.7-.5-.5-.7-1-.7-1.7v-49.5c0-.7.2-1.2.7-1.7.5-.5 1-.7 1.7-.7h26.8c10.3 0 19.2 2.2 26.8 6.5 7.6 4.3 13.4 10.5 17.4 18.4 4 7.9 6 17.1 6 27.5-.1 10.3-2.1 19.5-6.3 27.5zM143 284c-.5.5-1 .7-1.7.7H4.1c-.7 0-1.2-.2-1.7-.7-.5-.5-.7-1-.7-1.7v-23.8c0-.7.2-1.2.7-1.7.5-.5 1-.7 1.7-.7h137.2c.7 0 1.3.2 1.7.7.5.5.7 1 .7 1.7v23.8c0 .7-.2 1.2-.7 1.7zM2.3 151.2c-.5-.5-.7-1-.7-1.7v-23.8c0-.7.2-1.2.7-1.7.5-.5 1-.7 1.7-.7h137.2c.7 0 1.3.2 1.7.7.5.5.7 1 .7 1.7v22.9c0 1.4-.5 2.3-1.6 2.8L55.1 204c-.4.3-.6.5-.5.8.1.3.4.4.9.4l85.7-.4c.7 0 1.3.2 1.7.7.5.5.7 1 .7 1.7V231c0 .7-.2 1.3-.7 1.7-.5.5-1 .7-1.7.7H4.1c-.7 0-1.2-.2-1.7-.7-.5-.5-.7-1-.7-1.7v-22.9c0-1.4.5-2.3 1.6-2.8l86.5-52.4c.4-.3.6-.5.5-.8-.1-.3-.4-.4-.9-.4l-85.3.2c-.7 0-1.3-.2-1.8-.7zM140.2 80.4c-3.5 8.1-8.4 14.4-14.8 18.8s-13.9 6.6-22.4 6.6h-4.5c-.7 0-1.2-.2-1.7-.7-.5-.5-.7-1-.7-1.7V80.2c0-.7.2-1.2.7-1.7.5-.5 1-.7 1.7-.7h3c5.4 0 10-2.5 13.7-7.5 3.7-5 5.6-11.8 5.6-20.3 0-7.2-1.5-12.5-4.6-16-3-3.5-6.8-5.3-11.3-5.3-3.2 0-6 1.1-8.2 3.2-2.2 2.2-4.2 5.1-5.9 8.8-1.7 3.7-4 9.6-7 17.8-3.1 9.1-6.3 16.7-9.5 23S66.6 93.1 61 97.3c-5.6 4.3-12.6 6.4-20.8 6.4-8.1 0-15.2-2.1-21.3-6.3-6.1-4.2-10.8-10-14-17.5C1.6 72.5 0 63.9 0 54.2c0-10.3 1.8-19.5 5.5-27.5s8.8-14.3 15.3-18.9C27.4 3.3 35 1 43.6 1h3c.7 0 1.3.2 1.7.7.5.5.7 1 .7 1.7v23.3c0 .7-.2 1.3-.7 1.7-.5.5-1 .7-1.7.7H45c-5.7 0-10.5 2.3-14.5 7s-6 11.1-6 19.2c0 6.4 1.4 11.3 4.1 14.9 2.7 3.6 6.4 5.4 11.2 5.4 3.4 0 6.2-1 8.5-3.1s4.4-5.2 6.2-9.3c1.8-4.1 4.3-10.5 7.4-19.2 3.5-9.6 6.6-17.2 9.3-22.6C74 15.9 78 11 83.3 6.6 88.7 2.2 95.6 0 104.1 0c12.7 0 22.8 4.7 30.1 14 7.4 9.3 11.1 22 11.1 38 0 10.8-1.7 20.3-5.1 28.4z"/></g></svg>