<svg id="Layer_1" data-name="Layer 1" xmlns="http://www.w3.org/2000/svg" viewBox="0 0 59.596 101.694"><title>text</title><path d="M49.675,7.251C43.44,2.439,35.209,0,25.215,0,18.4,0,11.261.354,4,1.054L0,1.44V101.694H15.046V63.343h2.29c11.245,0,21.1-3.049,29.284-9.059C55.231,47.963,59.6,39.726,59.6,29.8c0-9.882-3.338-17.468-9.921-22.548M36.466,44.339c-5.57,3.967-11.995,5.894-19.646,5.894H15.046V14.663c3.384-.174,6.446-.262,9.135-.262,6.409,0,11.479,1.339,15.071,3.982,3.218,2.365,4.782,6.31,4.782,12.062,0,5.721-2.476,10.267-7.568,13.894" style="fill:#b7dcdf"/></svg>