<svg id="Layer_1" data-name="Layer 1" xmlns="http://www.w3.org/2000/svg" viewBox="0 0 63.157 103.228"><title>text</title><path d="M46.844,48.857q-6.051-4.242-12.09-8.3a42.167,42.167,0,0,1-9.271-8.333,13,13,0,0,1-3.236-8.418c0-3.059,0-9.428,14.283-9.428A43.058,43.058,0,0,1,53.355,18l3.989,1.694L62.966,6.818,59.1,5.011A54.289,54.289,0,0,0,35.96,0C27.35,0,20.328,2.1,15.092,6.249c-5.56,4.392-8.376,10.385-8.376,17.814a26.43,26.43,0,0,0,5.009,15.429A48.294,48.294,0,0,0,22.972,50.881q6.049,4.371,12.092,8.553a44.894,44.894,0,0,1,9.323,8.5,12.7,12.7,0,0,1,3.232,8.162c0,4.177-1.311,7.1-4.125,9.216-3.13,2.347-7.925,3.536-14.251,3.536a31.606,31.606,0,0,1-17.8-5.3L7.811,81.177,0,92.9l3.414,2.469c7.208,5.217,15.965,7.862,26.023,7.862,10.1,0,18.239-2.3,24.195-6.839,6.32-4.818,9.525-11.9,9.525-21.062a25.876,25.876,0,0,0-5.041-15.335A47.31,47.31,0,0,0,46.844,48.857" style="fill:#b7dcdf"/></svg>