<svg id="Layer_1" data-name="Layer 1" xmlns="http://www.w3.org/2000/svg" viewBox="0 0 81.75 101.769"><title>text</title><path d="M62.872,80.85c-1.263-1.415-4.228-5.141-8.818-11.076-3.464-4.478-6.522-8.51-9.134-12.036a51.138,51.138,0,0,0,8.461-9.733A31.439,31.439,0,0,0,59,30.076c0-9.544-3.392-17.084-10.087-22.41C42.515,2.58,34.369,0,24.705,0,19.143,0,12.389.3,4.059.907L0,1.2v99.471H14.893V63.383c5,.279,10.408.436,16.147.467C42.16,79.076,49.034,88.014,52.03,91.144a35.337,35.337,0,0,0,10.6,7.786c3.779,1.741,8.629,2.67,14.41,2.767l4.311.072.4-12.424-4-.467c-5.559-.648-10.448-3.3-14.881-8.028M38.258,44.091c-3.322,3.857-6.329,5.895-8.7,5.895-4.561,0-9.479-.134-14.67-.4V14.517c3.352-.174,6.379-.26,9.042-.26,6.227,0,11.2,1.395,14.788,4.143,3.273,2.517,4.866,6.231,4.866,11.357a21.084,21.084,0,0,1-5.331,14.334" style="fill:#b7dcdf"/></svg>